<?xml version="1.0" encoding="utf-8"?>
<!-- Generator: Adobe Illustrator 27.5.0, SVG Export Plug-In . SVG Version: 6.00 Build 0)  -->
<svg version="1.1" xmlns="http://www.w3.org/2000/svg" xmlns:xlink="http://www.w3.org/1999/xlink" x="0px" y="0px"
	 viewBox="0 0 500 500" style="enable-background:new 0 0 500 500;" xml:space="preserve">
<g id="Background_complete">
	<g>
		<g>
			<g>
				<g>
					<path style="fill:#E0E0E0;" d="M444.708,349.145H263.962c-3.232,0-5.862-2.63-5.862-5.862V80.009
						c0-3.232,2.63-5.862,5.862-5.862h180.746c3.232,0,5.862,2.629,5.862,5.862v263.273
						C450.57,346.515,447.94,349.145,444.708,349.145z M263.962,74.397c-3.095,0-5.612,2.518-5.612,5.612v263.273
						c0,3.095,2.518,5.612,5.612,5.612h180.746c3.095,0,5.612-2.518,5.612-5.612V80.009c0-3.094-2.518-5.612-5.612-5.612H263.962z"
						/>
				</g>
			</g>
			<g>
				<g>
					<path style="fill:#E0E0E0;" d="M236.28,349.145H55.534c-3.232,0-5.862-2.63-5.862-5.862V80.009
						c0-3.232,2.629-5.862,5.862-5.862H236.28c3.232,0,5.862,2.629,5.862,5.862v263.273
						C242.143,346.515,239.513,349.145,236.28,349.145z M55.534,74.397c-3.094,0-5.612,2.518-5.612,5.612v263.273
						c0,3.095,2.518,5.612,5.612,5.612H236.28c3.095,0,5.612-2.518,5.612-5.612V80.009c0-3.094-2.518-5.612-5.612-5.612H55.534z"/>
				</g>
			</g>
		</g>
		<g>
			<g>
				<rect x="0.788" y="410.214" style="fill:#E0E0E0;" width="500" height="0.25"/>
			</g>
		</g>
	</g>
	<g>
		<g>
			<g>
				
					<rect x="29.269" y="151.332" transform="matrix(-1.836970e-16 1 -1 -1.836970e-16 300.5182 71.6861)" style="fill:#E0E0E0;" width="170.295" height="69.54"/>
			</g>
		</g>
		<g>
			<g>
				<rect x="83.464" y="104.773" style="fill:#F0F0F0;" width="61.904" height="162.659"/>
			</g>
		</g>
		<g>
			<g>
				<rect x="113.169" y="100.955" style="fill:#E0E0E0;" width="4.608" height="170.295"/>
			</g>
		</g>
	</g>
	<g>
		<g>
			<g>
				
					<rect x="313.995" y="151.332" transform="matrix(-1.836970e-16 1 -1 -1.836970e-16 585.2446 -213.0403)" style="fill:#E0E0E0;" width="170.295" height="69.54"/>
			</g>
		</g>
		<g>
			<g>
				<rect x="368.19" y="104.773" style="fill:#F0F0F0;" width="61.904" height="162.659"/>
			</g>
		</g>
		<g>
			<g>
				<rect x="397.896" y="100.955" style="fill:#E0E0E0;" width="4.608" height="170.295"/>
			</g>
		</g>
	</g>
	<g>
		<g>
			<g>
				<path style="fill:#F5F5F5;" d="M160.397,267.801c0.068,0.006,0.138-0.002,0.207-0.026c0.26-0.091,0.398-0.376,0.307-0.637
					c-6.671-19.083,5.971-28.793,19.357-39.073c1.248-0.958,2.499-1.919,3.738-2.892c14.579-11.431,13.499-29.282,13.486-29.461
					c-0.019-0.275-0.267-0.482-0.533-0.464c-0.276,0.02-0.483,0.258-0.464,0.534c0.012,0.174,1.045,17.508-13.106,28.604
					c-1.237,0.97-2.485,1.929-3.73,2.885c-13.681,10.507-26.602,20.43-19.693,40.196
					C160.034,267.66,160.206,267.785,160.397,267.801z"/>
			</g>
		</g>
		<g>
			<g>
				<g>
					<path style="fill:#E0E0E0;" d="M219.047,172.961c-2.069,10.666-12.226,22.28-21.624,20.457
						c-9.397-1.823-14.476-16.392-12.408-27.058c2.069-10.665,11.364-17.834,20.761-16.011
						C215.174,152.171,221.116,162.295,219.047,172.961z"/>
				</g>
			</g>
			<g>
				<g>
					<path style="fill:#E6E6E6;" d="M219.047,172.961c-2.069,10.666-12.226,22.28-21.624,20.457
						c-9.397-1.823-14.476-16.392-12.408-27.058c2.069-10.665,11.364-17.834,20.761-16.011
						C215.174,152.171,221.116,162.295,219.047,172.961z"/>
				</g>
			</g>
			<g>
				<g>
					<polygon style="fill:#E6E6E6;" points="196.282,193.139 193.924,195.59 199.753,196.754 198.499,193.563 					"/>
				</g>
			</g>
		</g>
	</g>
	<g>
		<g>
			<g>
				<path style="fill:#F5F5F5;" d="M299.753,220.969c0.068-0.003,0.137-0.019,0.202-0.051c0.247-0.122,0.35-0.422,0.228-0.67
					c-8.938-18.132,2.433-29.305,14.472-41.133c1.122-1.103,2.248-2.209,3.36-3.324c13.084-13.116,9.845-30.704,9.811-30.88
					c-0.052-0.271-0.324-0.446-0.586-0.396c-0.272,0.053-0.448,0.315-0.396,0.586c0.033,0.171,3.162,17.252-9.537,29.983
					c-1.11,1.113-2.233,2.216-3.352,3.316c-12.305,12.089-23.926,23.507-14.669,42.289
					C299.376,220.873,299.562,220.976,299.753,220.969z"/>
			</g>
		</g>
		<g>
			<g>
				<g>
					<path style="fill:#E0E0E0;" d="M346.46,119.712c-0.759,10.838-9.432,23.599-18.981,22.93
						c-9.549-0.669-16.359-14.514-15.6-25.352c0.759-10.838,9.115-19.081,18.665-18.412
						C340.093,99.546,347.219,108.874,346.46,119.712z"/>
				</g>
			</g>
			<g>
				<g>
					<path style="fill:#E6E6E6;" d="M346.46,119.712c-0.759,10.838-9.432,23.599-18.981,22.93
						c-9.549-0.669-16.359-14.514-15.6-25.352c0.759-10.838,9.115-19.081,18.665-18.412
						C340.093,99.546,347.219,108.874,346.46,119.712z"/>
				</g>
			</g>
			<g>
				<g>
					<polygon style="fill:#E6E6E6;" points="326.312,142.504 324.269,145.223 330.196,145.671 328.564,142.656 					"/>
				</g>
			</g>
		</g>
	</g>
	<g>
		<g>
			<g>
				<g>
					<circle style="fill:#E0E0E0;" cx="197.515" cy="116.955" r="20.474"/>
				</g>
			</g>
		</g>
		<g>
			<g>
				<g>
					
						<ellipse transform="matrix(0.2279 -0.9737 0.9737 0.2279 38.6216 282.6167)" style="fill:#FAFAFA;" cx="197.515" cy="116.955" rx="18.86" ry="18.86"/>
				</g>
			</g>
		</g>
		<g>
			<g>
				<g>
					<g>
						<rect x="196.86" y="99.81" style="fill:#E0E0E0;" width="0.706" height="3.933"/>
					</g>
				</g>
			</g>
			<g>
				<g>
					<g>
						<rect x="196.86" y="130.067" style="fill:#E0E0E0;" width="0.706" height="3.933"/>
					</g>
				</g>
			</g>
		</g>
		<g>
			<g>
				<g>
					<g>
						<rect x="180.117" y="116.552" style="fill:#E0E0E0;" width="3.933" height="0.706"/>
					</g>
				</g>
			</g>
			<g>
				<g>
					<g>
						<rect x="210.374" y="116.552" style="fill:#E0E0E0;" width="3.933" height="0.706"/>
					</g>
				</g>
			</g>
		</g>
		<g>
			<g>
				<g>
					<g>
						
							<rect x="205.943" y="105.855" transform="matrix(0.707 -0.7072 0.7072 0.707 -14.1976 178.1443)" style="fill:#E0E0E0;" width="3.933" height="0.706"/>
					</g>
				</g>
			</g>
			<g>
				<g>
					<g>
						
							<rect x="184.548" y="127.249" transform="matrix(0.707 -0.7072 0.7072 0.707 -35.5912 169.3045)" style="fill:#E0E0E0;" width="3.933" height="0.706"/>
					</g>
				</g>
			</g>
		</g>
		<g>
			<g>
				<g>
					<g>
						
							<rect x="186.162" y="104.241" transform="matrix(0.707 -0.7072 0.7072 0.707 -20.4598 163.0351)" style="fill:#E0E0E0;" width="0.706" height="3.933"/>
					</g>
				</g>
			</g>
			<g>
				<g>
					<g>
						
							<rect x="207.557" y="125.636" transform="matrix(0.7071 -0.7071 0.7071 0.7071 -29.3329 184.3896)" style="fill:#E0E0E0;" width="0.706" height="3.933"/>
					</g>
				</g>
			</g>
		</g>
		<g>
			<g>
				<g>
					
						<rect x="200.002" y="114.449" transform="matrix(0.3664 -0.9305 0.9305 0.3664 17.0946 261.168)" style="fill:#E0E0E0;" width="0.605" height="7.167"/>
				</g>
			</g>
		</g>
		<g>
			<g>
				<g>
					<polygon style="fill:#E0E0E0;" points="197.515,117.208 186.515,117.208 186.515,116.603 196.91,116.603 196.91,108.064 
						197.515,108.064 					"/>
				</g>
			</g>
		</g>
	</g>
</g>
<g id="Background_simple" style="display:none;">
	<g style="display:inline;">
		<g>
			<path style="fill:#407BFF;" d="M162.971,288.122c0,0-96.874-28.478-78.901-72.078c17.973-43.6,105.836-5.142,95.493-63.885
				c-14.47-82.185,255.278-48.462,225.333,68.859S192.305,299.266,162.971,288.122z"/>
		</g>
		<g style="opacity:0.9;">
			<path style="fill:#FFFFFF;" d="M162.971,288.122c0,0-96.874-28.478-78.901-72.078c17.973-43.6,105.836-5.142,95.493-63.885
				c-14.47-82.185,255.278-48.462,225.333,68.859S192.305,299.266,162.971,288.122z"/>
		</g>
	</g>
</g>
<g id="Shadow">
	<g>
		<g>
			<path style="fill:#F5F5F5;" d="M456.764,452.847c0,2.986-92.646,5.407-206.93,5.407c-114.284,0-206.93-2.421-206.93-5.407
				c0-2.986,92.646-5.407,206.93-5.407C364.118,447.44,456.764,449.861,456.764,452.847z"/>
		</g>
	</g>
</g>
<g id="Balloon">
	<g>
		<g>
			<path style="fill:#E0E0E0;" d="M61.4,209.673c-0.12,0-0.239-0.042-0.335-0.129c-14.97-13.507-8.641-27.859-1.939-43.053
				c0.61-1.382,1.221-2.769,1.818-4.159c6.82-15.893-2.052-30.044-2.143-30.186c-0.149-0.232-0.082-0.541,0.151-0.691
				c0.232-0.151,0.541-0.082,0.691,0.151c0.093,0.145,9.254,14.727,2.22,31.12c-0.598,1.393-1.211,2.783-1.822,4.168
				c-6.551,14.854-12.739,28.885,1.694,41.908c0.205,0.185,0.221,0.501,0.036,0.706C61.672,209.617,61.536,209.673,61.4,209.673z"/>
		</g>
		<g>
			<g>
				<path style="fill:#407BFF;" d="M67.32,102.453c3.178,9.96-0.035,24.457-8.811,27.258s-19.792-7.156-22.971-17.116
					s1.359-20.305,10.136-23.106S64.141,92.493,67.32,102.453z"/>
			</g>
			<g>
				<path style="fill:#407BFF;" d="M67.32,102.453c3.178,9.96-0.035,24.457-8.811,27.258s-19.792-7.156-22.971-17.116
					s1.359-20.305,10.136-23.106S64.141,92.493,67.32,102.453z"/>
			</g>
			<g style="opacity:0.2;">
				<path style="fill:#FFFFFF;" d="M67.32,102.453c3.178,9.96-0.035,24.457-8.811,27.258s-19.792-7.156-22.971-17.116
					s1.359-20.305,10.136-23.106S64.141,92.493,67.32,102.453z"/>
			</g>
			<g>
				<polygon style="fill:#407BFF;" points="57.417,130.003 56.557,133.161 62.017,131.452 59.484,129.337 				"/>
			</g>
		</g>
	</g>
</g>
<g id="Garland">
	<g>
		<g>
			<path d="M255.155,74.724c-90.084,0-200.424-18.929-201.528-19.121l0.171-0.985c1.103,0.191,111.361,19.106,201.357,19.106
				c89.991,0,192.194-20.972,193.216-21.184l0.203,0.979C447.552,53.731,345.247,74.724,255.155,74.724z"/>
		</g>
		<g style="opacity:0.5;">
			<path style="fill:#FFFFFF;" d="M255.155,74.724c-90.084,0-200.424-18.929-201.528-19.121l0.171-0.985
				c1.103,0.191,111.361,19.106,201.357,19.106c89.991,0,192.194-20.972,193.216-21.184l0.203,0.979
				C447.552,53.731,345.247,74.724,255.155,74.724z"/>
		</g>
		<g>
			<polygon style="fill:#407BFF;" points="109.855,62.361 123.625,102.362 146.015,66.394 			"/>
		</g>
		<g>
			<polygon points="150.353,66.942 165.15,106.575 186.605,70.041 			"/>
		</g>
		<g>
			<polygon style="fill:#407BFF;" points="191.002,70.633 207.161,109.731 227.34,72.477 			"/>
		</g>
		<g>
			<polygon points="231.755,72.586 249.496,110.991 268.138,72.944 			"/>
		</g>
		<g>
			<polygon style="fill:#407BFF;" points="272.565,72.526 292.253,109.971 308.919,71.019 			"/>
		</g>
		<g>
			<polygon points="313.325,70.721 334.525,107.331 349.587,67.731 			"/>
		</g>
		<g>
			<polygon points="394.242,61.671 418.503,96.328 430.113,55.582 			"/>
		</g>
		<g>
			<polygon points="70.695,56.725 83.306,97.108 106.724,61.8 			"/>
		</g>
		<g>
			<polygon style="fill:#407BFF;" points="355.079,66.686 377.828,102.354 391.179,62.145 			"/>
		</g>
	</g>
</g>
<g id="Table">
	<g>
		<g>
			<g>
				<g>
					<g>
						<path style="fill:#407BFF;" d="M237.317,297.698h-62.602c-1.493,0-2.55-1.459-2.084-2.878l13.599-41.412
							c0.296-0.9,1.136-1.509,2.084-1.509h62.602c1.493,0,2.55,1.459,2.084,2.878l-13.599,41.412
							C239.105,297.089,238.264,297.698,237.317,297.698z"/>
					</g>
				</g>
				<g style="opacity:0.6;">
					<g>
						<path style="fill:#FFFFFF;" d="M237.317,297.698h-62.602c-1.493,0-2.55-1.459-2.084-2.878l13.599-41.412
							c0.296-0.9,1.136-1.509,2.084-1.509h62.602c1.493,0,2.55,1.459,2.084,2.878l-13.599,41.412
							C239.105,297.089,238.264,297.698,237.317,297.698z"/>
					</g>
				</g>
				<g style="opacity:0.4;">
					<g>
						<path style="fill:#FFFFFF;" d="M231.661,293.489h-51.096c-1.219,0-2.081-1.191-1.701-2.349l11.1-33.8
							c0.241-0.735,0.927-1.232,1.701-1.232h51.096c1.219,0,2.081,1.191,1.701,2.349l-11.1,33.8
							C233.12,292.992,232.434,293.489,231.661,293.489z"/>
					</g>
				</g>
			</g>
			<g>
				<g>
					<g>
						<path style="fill:#407BFF;" d="M152.421,296.776l-1.328,3.983c-0.404,1.212,0.498,2.462,1.775,2.462h82.92
							c0.805,0,1.52-0.515,1.775-1.279l1.722-5.167H152.421z"/>
					</g>
				</g>
				<g style="opacity:0.4;">
					<g>
						<path style="fill:#FFFFFF;" d="M152.421,296.776l-1.328,3.983c-0.404,1.212,0.498,2.462,1.775,2.462h82.92
							c0.805,0,1.52-0.515,1.775-1.279l1.722-5.167H152.421z"/>
					</g>
				</g>
			</g>
		</g>
		<g>
			<g>
				<g>
					<g>
						<rect x="139.632" y="303.222" width="226.957" height="7.593"/>
					</g>
				</g>
				<g style="opacity:0.8;">
					<g>
						<rect x="139.632" y="303.222" style="fill:#FFFFFF;" width="226.957" height="7.593"/>
					</g>
				</g>
			</g>
			<g>
				<g>
					<g>
						<g>
							<polygon points="156.234,310.814 133.662,452.745 138.194,452.847 166.16,310.814 							"/>
						</g>
					</g>
				</g>
				<g style="opacity:0.8;">
					<g>
						<g>
							<polygon style="fill:#FFFFFF;" points="156.234,310.814 133.662,452.739 138.194,452.842 166.16,310.814 							"/>
						</g>
					</g>
				</g>
				<g>
					<g>
						<g>
							<polygon points="352.38,310.814 374.952,452.745 370.42,452.847 342.454,310.814 							"/>
						</g>
					</g>
				</g>
				<g style="opacity:0.8;">
					<g>
						<g>
							<polygon style="fill:#FFFFFF;" points="352.38,310.814 374.952,452.739 370.42,452.842 342.454,310.814 							"/>
						</g>
					</g>
				</g>
				<g>
					<g>
						<g>
							<rect x="156.517" y="318.664" width="194.17" height="2.912"/>
						</g>
					</g>
					<g style="opacity:0.8;">
						<g>
							<rect x="156.517" y="318.664" style="fill:#FFFFFF;" width="194.17" height="2.912"/>
						</g>
					</g>
				</g>
			</g>
		</g>
	</g>
</g>
<g id="Character_3">
	<g>
		<g>
			<g>
				<g>
					<g>
						<path d="M392.641,99.815c0.101,0.038,0.218,0.023,0.306-0.051c0.396-0.329,0.797-0.476,1.191-0.434
							c0.649,0.068,1.1,0.619,1.104,0.626c0.102,0.131,0.298,0.157,0.433,0.051c0.134-0.106,0.157-0.3,0.051-0.433
							c-0.024-0.03-0.611-0.761-1.523-0.857c-0.566-0.06-1.121,0.134-1.65,0.574c-0.131,0.109-0.15,0.303-0.04,0.435
							C392.548,99.766,392.593,99.797,392.641,99.815z"/>
					</g>
				</g>
				<g>
					<g>
						<path style="fill:#FF5652;" d="M392.694,100.976c0,0-0.895,1.897-2.674,2.957c-1.778,1.06,1.114,2.731,1.114,2.731
							L392.694,100.976z"/>
					</g>
				</g>
				<g>
					<g>
						<g>
							<path style="fill:#FF8B7B;" d="M407.388,127.841l-0.108,0.637c-1.1,1.465-3.492,0.873-5.297,0.567l-10.452-1.776
								c0.63-0.89,1.997-3.063,2.288-3.512c0.405-0.655,0.665-1.441,0.967-2.182c0.035-0.092,0.07-0.184,0.107-0.285
								c0.037-0.101,0.074-0.203,0.112-0.313c0.101-0.306,0.205-0.63,0.29-0.958c0.107-0.402,0.18-0.83,0.253-1.257
								c0.01-0.174,0.05-0.353,0.06-0.527l0.038-0.394l0.011-0.008l3.198-1.099l5.254-1.806l5.817-2.013
								C407.42,117.005,407.112,122.789,407.388,127.841z"/>
						</g>
					</g>
					<g>
						<g>
							<path d="M415.803,92c0,0-0.752-7.845-11.178-5.406c-9.436,2.207-8.928-0.784-12.178,1.402
								c-3.205,2.155,1.621,12.223,3.963,12.546s24.298,0.272,24.298,0.272S422.063,94.479,415.803,92z"/>
						</g>
					</g>
					<g style="opacity:0.2;">
						<g>
							<path d="M399.024,119.929c-1.11,0.838-2.609,1.258-4.132,1.361c0.037-0.101,0.074-0.203,0.112-0.313
								c0.101-0.306,0.205-0.63,0.29-0.958c0.107-0.402,0.18-0.83,0.253-1.257c0.01-0.174,0.05-0.353,0.06-0.527l0.038-0.394
								l0.011-0.008l3.198-1.099l1.577-0.191C400.907,117.072,400.452,118.832,399.024,119.929z"/>
						</g>
					</g>
					<g>
						<g>
							<path style="fill:#FF8B7B;" d="M414.82,105.418c3.212-7.077-1.805-15.265-9.879-15.092
								c-8.195,0.175-13.292,10.555-14.222,17.66c-1.033,7.894,6.645,14.629,14.287,11.136
								C410.087,116.8,411.608,112.495,414.82,105.418L414.82,105.418z"/>
						</g>
					</g>
					<g>
						<path d="M412.71,113.33c-3.11,3.32-2,6.38-5.64,6.25c-9.9-0.34-9.55-14.57-5.34-16.54c0.81-0.38,0.68-0.87,0.09-1.44
							c-0.47,0.57-1.09,1.2-1.88,1.84c-2.57,2.08-4.63-0.88-3-2.46c0.72-0.71,0.96-1.52,1-2.2c-0.47-0.39-0.88-0.78-1.14-1.17
							c-1.48-2.21,1.45-5.68,1.78-5.93c9.44-7.32,21.16,3.88,22.13,9.13C421.96,107.58,415.82,110.01,412.71,113.33z"/>
					</g>
					<g>
						<g>
							<g>
								<path d="M415.64,93.083c0,0,3.251-0.209,4.656,3.435c1.406,3.644-0.275,7.587-1.949,9.457
									C416.673,107.845,410.479,99.497,415.64,93.083z"/>
							</g>
						</g>
					</g>
					<g>
						<g>
							<path style="fill:#FF8B7B;" d="M403.777,106.615c-1.254,1.679-3.166,2.623-4.874,2.843c-2.569,0.331-3.482-2.057-2.457-4.287
								c0.923-2.007,3.371-4.599,5.8-3.902C404.639,101.955,405.21,104.695,403.777,106.615L403.777,106.615z"/>
						</g>
					</g>
				</g>
			</g>
			<g>
				<g>
					<path style="fill:#407BFF;" d="M454.729,176.443c-0.096,0.819-0.289,1.812-0.761,2.949c-0.463,1.118-1.272,2.371-2.323,3.345
						l-0.395,0.357l-0.116,0.096l-0.058,0.039l-0.241,0.183l-0.482,0.347c-0.308,0.202-0.626,0.424-0.944,0.607
						c-0.626,0.376-1.253,0.713-1.851,1.002c-2.438,1.137-4.665,1.716-6.795,2.14c-0.887,0.154-1.754,0.289-2.612,0.386
						c-3.248,0.395-6.303,0.443-9.301,0.328c-0.453-0.019-0.896-0.039-1.349-0.068c-3.306-0.183-6.535-0.569-9.706-1.06
						c-3.634-0.607-7.103-1.301-10.728-2.313l1.292-8.983c6.66-0.145,13.561-0.434,19.903-1.301c0.096-0.01,0.183-0.029,0.28-0.039
						c2.535-0.376,5.022-0.829,7.181-1.484c0.212-0.058,0.424-0.125,0.636-0.193c-0.28-0.443-0.578-0.887-0.887-1.349
						c-0.357-0.53-0.732-1.07-1.118-1.61c-1.533-2.188-3.239-4.385-4.964-6.602c-0.318-0.405-0.636-0.81-0.954-1.214
						c-4.145-5.214-8.578-10.506-12.8-15.662l13.532-12.382c2.426,2.133,4.277,4.763,6.552,7.539
						c2.246,2.795,5.159,6.548,7.27,9.498c2.14,2.94,4.173,5.976,6.149,9.234c1.002,1.629,1.947,3.335,2.872,5.224
						c0.463,0.945,0.916,1.947,1.349,3.075c0.443,1.147,0.887,2.381,1.224,4.202C454.729,173.677,454.893,174.776,454.729,176.443z"
						/>
				</g>
				<g style="opacity:0.2;">
					<path d="M434.353,169.822c-1.533-2.188-3.239-4.385-4.964-6.602l1.542-20.337v0.598l4.54,27.951
						C435.115,170.901,434.739,170.361,434.353,169.822z"/>
				</g>
				<g style="opacity:0.2;">
					<path d="M438.151,187.894c-3.248,0.395-6.303,0.443-9.301,0.328c-0.453-0.019-0.896-0.039-1.349-0.068l1.041-13.696
						c2.535-0.376,5.022-0.829,7.181-1.484L438.151,187.894z"/>
				</g>
				<g>
					<g>
						<g>
							<g>
								<g>
									<g>
										<path style="fill:#FF8B7B;" d="M426.061,371.688l0.022,19.914l-10.014,0.719l-3.52-18.708
											C417.129,370.558,421.636,369.829,426.061,371.688z"/>
									</g>
								</g>
							</g>
						</g>
						<g>
							<g>
								<g>
									<g>
										<g>
											<path d="M425.734,389.524c0.985,2.628,1.05,13.382,1.05,13.382l-21.227,0.023c-1.261-3.889,0.691-6.543,3.166-6.896
												c1.064-0.15,2.316-1.243,3.228-2.197c0.006-0.124,1.304-6.097,2.106-6.383c0,0,0.553-0.621,1.024-0.001
												c0.471,0.62,0.879,2.639,0.879,2.639C419.274,385.978,422.521,386.527,425.734,389.524z"/>
										</g>
									</g>
								</g>
							</g>
						</g>
						<g>
							<g>
								<g>
									<g>
										<path style="fill:#FFFFFF;" d="M425.991,392.646c-2.398-0.884-4.972-0.548-7.064,0.921
											c-0.366,0.257-0.713-0.344-0.35-0.599c2.228-1.565,5.043-1.932,7.598-0.991
											C426.591,392.13,426.412,392.801,425.991,392.646L425.991,392.646z"/>
									</g>
								</g>
							</g>
						</g>
						<g>
							<g>
								<g>
									<path style="fill:#FFFFFF;" d="M405.62,401.356C405.62,401.356,405.621,401.356,405.62,401.356l20.915-0.023
										c0.192,0,0.347-0.156,0.347-0.347c0-0.191-0.156-0.346-0.347-0.346c0,0,0,0,0,0l-20.915,0.023
										c-0.192,0-0.347,0.156-0.346,0.347C405.274,401.2,405.429,401.356,405.62,401.356z"/>
								</g>
							</g>
						</g>
					</g>
					<g>
						<g>
							<g>
								<g>
									<path d="M429.775,381.497l-21.34,1.053c-4.788-14.38-9.52-65.943-10.009-81.423c-0.584-18.496-7.73-64.918-1.412-74.578
										c6.318-9.66,35.879-2.245,35.879-2.245s-4.542,56.803-3.118,74.83C431.009,314.758,432.918,360.684,429.775,381.497z"/>
								</g>
							</g>
						</g>
					</g>
					<g>
						<polygon style="fill:#407BFF;" points="406.132,377.36 407.519,383.943 430.645,383.249 431.493,376.928 						"/>
					</g>
				</g>
				<g>
					<g>
						<g>
							<g>
								<g>
									<g>
										<path style="fill:#FF8B7B;" d="M382.858,369.091l0.024,22.476l-9.636,0.734l-4.74-21.038
											C372.375,368.387,376.868,366.979,382.858,369.091z"/>
									</g>
								</g>
							</g>
						</g>
						<g>
							<g>
								<g>
									<g>
										<g>
											<path d="M382.88,389.57c0.985,2.628,1.05,13.382,1.05,13.382l-24.387,0.026c-1.261-3.889,1.374-6.194,3.85-6.547
												c1.064-0.15,4.791-1.595,5.704-2.549c0.006-0.124,1.304-6.097,2.106-6.383c0,0,0.553-0.621,1.024-0.001
												c0.471,0.62,0.879,2.639,0.879,2.639C376.42,386.024,379.667,386.573,382.88,389.57z"/>
										</g>
									</g>
								</g>
							</g>
						</g>
						<g>
							<g>
								<g>
									<g>
										<path style="fill:#FFFFFF;" d="M383.138,392.692c-2.398-0.884-4.972-0.548-7.064,0.921
											c-0.366,0.257-0.713-0.344-0.35-0.599c2.228-1.565,5.044-1.932,7.598-0.991
											C383.737,392.177,383.558,392.847,383.138,392.692L383.138,392.692z"/>
									</g>
								</g>
							</g>
						</g>
						<g>
							<g>
								<g>
									<path style="fill:#FFFFFF;" d="M359.542,401.405C359.542,401.405,359.542,401.405,359.542,401.405l24.141-0.026
										c0.191,0,0.347-0.156,0.346-0.347c0-0.191-0.156-0.346-0.347-0.346c0,0,0,0,0,0l-24.14,0.026
										c-0.192,0-0.347,0.156-0.346,0.347C359.195,401.25,359.35,401.405,359.542,401.405z"/>
								</g>
							</g>
						</g>
					</g>
					<g>
						<g>
							<g>
								<g>
									<path d="M387.155,381.497l-21.156,1.053c-2.576-15.919-12.923-73.894-12.073-84.999
										c1.038-13.565,13.291-72.281,17.848-76.808c4.557-4.527,37.916,7.208,37.916,7.208s-13.71,50.491-24.52,72.329
										C382.924,304.817,388.892,362.136,387.155,381.497z"/>
								</g>
							</g>
						</g>
					</g>
					<g>
						<polygon style="fill:#407BFF;" points="363.58,377.853 364.659,383.943 388.171,382.551 388.644,376.176 						"/>
					</g>
				</g>
				<g>
					<g>
						<path style="fill:#407BFF;" d="M370.902,165.154c0,0,2.03,28.158-0.329,39.018c-1.831,8.428-4.366,16.765-0.26,19.174
							c4.106,2.409,62.851,10.432,64.802,0.317c2.715-14.077-4.692-44.266-3.018-58.493c1.674-14.227,0.197-25.221-2.044-28.1
							C427.813,134.189,370.902,165.154,370.902,165.154z"/>
					</g>
				</g>
				<g>
					<g>
						<path style="fill:#407BFF;" d="M421.73,170.78c-9.9,2.27-50.22-0.9-50.22-0.9c-0.49-3.9-1.69-12.44-2.28-20.84
							c-0.11-1.47-0.2-2.95-0.25-4.4c-0.01-0.26-0.02-0.51-0.03-0.76c-0.05-1.45-0.08-2.87-0.06-4.22
							c0.02-4.41,0.41-8.15,1.43-10.26c2.08-4.33,18.93-5.25,18.93-5.25c14.88-2.65,15.88,0.23,15.88,0.23s11.73,4.15,17.22,6.27
							c7.04,2.71,8.68,2.96,9.56,11.63C432.71,150.08,431.62,168.49,421.73,170.78z"/>
					</g>
				</g>
				<g style="opacity:0.2;">
					<path d="M390.626,123.869c0,0,9.693,5.999,16.685,5.838c6.992-0.161,2.974-3.098,2.974-3.098L390.626,123.869z"/>
				</g>
				<g>
					<path style="fill:#407BFF;" d="M391.167,123.875c0,0,1.367-2.683,4.415-2.304c3.048,0.379,10.442,0.04,12.074,1.03
						c1.632,0.99,2.63,4.009,2.63,4.009s-1.992,1.651-6.861,1.154C398.554,127.265,391.167,123.875,391.167,123.875z"/>
				</g>
				<g style="opacity:0.2;">
					<g>
						<path d="M371.509,221.7l-0.685-0.229c0.031-0.095,3.168-9.615,4.924-22.877c1.756-13.264-1.127-50.37-1.382-53.902
							l0.721-0.057c0.256,3.533,3.144,40.715,1.378,54.053C374.7,212.023,371.541,221.604,371.509,221.7z"/>
					</g>
				</g>
				<g style="opacity:0.2;">
					<path d="M381.17,144.01c-4.76,0.57-9.23,1.02-12.19,0.63c-0.01-0.26-0.02-0.51-0.03-0.76c-0.05-1.45-0.08-2.87-0.06-4.22
						C370.9,140.62,375.61,142.68,381.17,144.01z"/>
				</g>
				<g>
					<g>
						<g style="opacity:0.2;">
							<path d="M392.101,220.217c8.046,0.311,16.108-0.156,24.061-1.42c3.411-0.542,7.003-1.032,10.235-2.303
								c2.369-0.932,4.484-2.398,5.391-4.866c0.154-0.42-0.516-0.601-0.669-0.184c-1.033,2.811-3.884,4.157-6.58,4.95
								c-3.21,0.943-6.591,1.451-9.895,1.939c-7.458,1.1-15.011,1.482-22.544,1.191C391.654,219.506,391.655,220.2,392.101,220.217
								L392.101,220.217z"/>
						</g>
					</g>
				</g>
				<g style="opacity:0.3;">
					<g>
						<path style="fill:#FFFFFF;" d="M401.588,262.189c0.405-0.822,0.811-1.643,1.188-2.479c2.011-4.47,3.532-9.123,4.739-13.87
							c3.479-0.343,6.917-1.047,10.268-2.106c0.425-0.134,0.242-0.804-0.185-0.669c-5.298,1.675-10.804,2.452-16.359,2.309
							c-0.447-0.012-0.446,0.682,0,0.694c1.853,0.048,3.702-0.016,5.54-0.17c-1.211,4.716-2.726,9.342-4.746,13.778
							c-2.022,4.441-4.475,8.667-7.008,12.832c-0.233,0.383,0.367,0.731,0.599,0.35c1.866-3.069,3.682-6.174,5.321-9.37
							c0.151,3.812,0.61,15.591,1.126,31.197c0.89,26.932,7.728,70.72,9.638,82.53h0.703c-1.882-11.623-8.756-55.571-9.648-82.553
							C402.155,276.213,401.625,263.103,401.588,262.189z"/>
					</g>
					<g>
						<path style="fill:#FFFFFF;" d="M428.787,231.564c-0.043,1.326-0.08,2.778-0.722,3.976c-0.718,1.338-2.131,2.02-3.629,1.875
							c-3.337-0.322-4.722-3.941-4.97-6.814c-0.036-0.419-0.695-0.422-0.658,0.001c0.28,3.237,1.898,7.152,5.629,7.471
							c1.467,0.125,2.947-0.441,3.839-1.634c1.03-1.38,1.116-3.223,1.171-4.876C429.459,231.14,428.801,231.141,428.787,231.564z"/>
					</g>
					<g>
						<path style="fill:#FFFFFF;" d="M426.874,298.962c-6.152-0.333-12.313-0.167-18.439,0.496c-0.44,0.048-0.443,0.742,0,0.694
							c6.126-0.663,12.287-0.829,18.439-0.496C427.321,299.68,427.318,298.986,426.874,298.962z"/>
					</g>
					<g>
						<path style="fill:#FFFFFF;" d="M357.725,299.023c0.478-8.454,11.008-44.342,11.114-44.704c0.054-0.184-0.051-0.376-0.235-0.43
							c-0.183-0.054-0.377,0.051-0.431,0.235c-0.435,1.479-10.659,36.326-11.141,44.86c-0.415,7.34,10.565,75.2,11.032,78.085
							c0.027,0.17,0.175,0.291,0.342,0.291c0.018,0,0.037-0.001,0.056-0.004c0.189-0.031,0.318-0.209,0.287-0.398
							C368.635,376.252,357.315,306.287,357.725,299.023z"/>
					</g>
					<g>
						<path style="fill:#FFFFFF;" d="M400.272,230.953c-0.008-0.423-0.666-0.424-0.658,0.001c0.09,4.67-3.178,9.627-8.352,9.113
							c-5.36-0.533-6.938-6.617-6.615-11.087c0.031-0.423-0.628-0.42-0.658,0.001c-0.35,4.858,1.537,11.212,7.274,11.745
							C396.789,241.238,400.369,235.984,400.272,230.953z"/>
					</g>
					<g>
						<path style="fill:#FFFFFF;" d="M363.709,250.603c7.932-2.994,10.496-11.696,12.385-19.138c0.11-0.434-0.559-0.617-0.669-0.184
							c-1.818,7.162-4.232,15.759-11.901,18.654C363.11,250.09,363.291,250.761,363.709,250.603z"/>
					</g>
					<g>
						<path style="fill:#FFFFFF;" d="M381.466,299.629c-5.156-0.324-10.311-0.649-15.467-0.973c-0.447-0.028-0.443,0.666,0,0.694
							c5.156,0.324,10.311,0.649,15.467,0.973C381.913,300.351,381.91,299.658,381.466,299.629z"/>
					</g>
				</g>
			</g>
			<g>
				<path style="fill:#407BFF;" d="M383.664,144.384l-0.827-0.12l-0.711-0.118l-1.379-0.251c-0.907-0.182-1.8-0.382-2.689-0.594
					c-1.778-0.426-3.531-0.941-5.286-1.498c-3.494-1.162-6.972-2.574-10.402-4.435c-3.44-1.829-6.828-4.175-10.03-7.275
					c-1.589-1.563-3.093-3.377-4.412-5.47l-0.125-0.191l-0.161-0.265l-0.319-0.544c-0.2-0.356-0.366-0.692-0.542-1.041
					c-0.314-0.665-0.582-1.308-0.807-1.92c-0.445-1.223-0.769-2.352-1.011-3.433c-0.474-2.161-0.73-4.151-0.907-6.082
					c-0.169-1.931-0.278-3.793-0.29-5.636c-0.018-3.676,0.09-7.24,0.397-10.766c0.572-7.06,1.617-11.294,3.18-18.183
					c1.448,1.514,4.812,1.424,8.315,0.732c0.659,6.638,1.173,10.714,1.945,17.214c0.418,3.252,0.812,6.467,1.387,9.544
					c0.548,3.042,1.199,6.081,2.082,8.307c0.408,1.101,0.887,1.908,1.018,1.845c0.563,0.681,1.31,1.36,2.163,2.046
					c1.699,1.396,3.922,2.652,6.343,3.812c2.44,1.127,5.086,2.148,7.829,3.014c1.365,0.456,2.762,0.85,4.157,1.24
					c0.697,0.196,1.397,0.379,2.088,0.55l1.896,0.477L383.664,144.384z"/>
			</g>
			<path style="fill:#FF8B7B;" d="M355.66,77.29c0,0-4.17,2.27-8.38-0.44c0,0-1.74-5.58-2.55-8.72l-1.39,0.12
				c-0.31-2.44,2.52-3.45,2.86-3.56c0.02-0.01,0.03-0.01,0.03-0.01c1.97-0.76,3.41-0.957,6.3-0.997
				C357.28,63.624,355.66,77.29,355.66,77.29z"/>
			<g style="opacity:0.2;">
				<path d="M348.145,67.089c-0.138,0-0.25-0.112-0.25-0.25c0-1.617-1.109-1.9-1.12-1.903c-0.135-0.032-0.218-0.167-0.186-0.301
					c0.032-0.133,0.165-0.218,0.301-0.185c0.016,0.003,1.505,0.381,1.505,2.389C348.395,66.977,348.283,67.089,348.145,67.089z"/>
			</g>
			<g style="opacity:0.2;">
				<path d="M350.532,66.581c-0.138,0-0.25-0.112-0.25-0.25c0-1.617-1.109-1.899-1.12-1.902c-0.135-0.032-0.218-0.167-0.185-0.301
					c0.031-0.133,0.161-0.218,0.301-0.185c0.016,0.003,1.505,0.381,1.505,2.389C350.782,66.469,350.669,66.581,350.532,66.581z"/>
			</g>
			<g style="opacity:0.2;">
				<path d="M352.801,66.434c-0.138,0-0.25-0.112-0.25-0.25c0-1.617-1.109-1.9-1.12-1.903c-0.135-0.032-0.218-0.167-0.186-0.301
					c0.032-0.134,0.164-0.218,0.301-0.185c0.016,0.003,1.505,0.381,1.505,2.389C353.051,66.323,352.938,66.434,352.801,66.434z"/>
			</g>
			<g style="opacity:0.2;">
				<path d="M344.555,68.215c-0.09,0-0.177-0.049-0.221-0.134c-0.015-0.028-0.353-0.712,0.288-1.636
					c0.078-0.114,0.232-0.143,0.348-0.063c0.113,0.079,0.142,0.234,0.063,0.348c-0.46,0.666-0.26,1.108-0.251,1.127
					c0.058,0.123,0.007,0.273-0.115,0.333C344.63,68.206,344.592,68.215,344.555,68.215z"/>
			</g>
		</g>
		<g>
			<g>
				<g>
					<rect x="351.842" y="403.003" style="fill:#407BFF;" width="82.487" height="9.321"/>
				</g>
				<g>
					<polygon style="fill:#407BFF;" points="436.186,452.56 427.858,452.56 417.448,428.339 367.502,428.339 357.083,452.56 
						348.756,452.56 362.259,412.272 374.355,412.397 369.16,424.483 415.791,424.483 410.596,412.397 422.692,412.272 					"/>
				</g>
			</g>
			<g>
				<g style="opacity:0.2;">
					<polygon points="436.186,452.56 427.858,452.56 417.448,428.339 367.502,428.339 357.083,452.56 348.756,452.56 
						362.259,412.272 374.355,412.397 369.16,424.483 415.791,424.483 410.596,412.397 422.692,412.272 					"/>
				</g>
			</g>
		</g>
	</g>
</g>
<g id="Character_2">
	<g>
		<g>
			<path d="M259.49,232.34c-0.83,1.03-1.63,2.05-2.25,2.92c0.35,0.25,0.74,0.5,1.15,0.73c2.03,1.2,4.68,2.26,7.05,3.18l-1.23,8.64
				c-0.92-0.01-1.67-0.02-2.49-0.07c-0.81-0.05-1.62-0.11-2.43-0.2c-1.62-0.2-3.26-0.46-4.96-0.91c-1.71-0.47-3.47-1.03-5.42-2.15
				c-0.98-0.59-2.01-1.3-3.06-2.42c-1.02-1.1-2.1-2.71-2.6-4.76c-0.25-1.01-0.33-2.08-0.26-3.08c0.02-0.51,0.09-0.98,0.18-1.45
				l0.15-0.67l0.16-0.54c0.11-0.34,0.24-0.73,0.36-1.04l0.31-0.77c0.22-0.54,0.41-0.93,0.62-1.36c0.81-1.66,1.57-3.09,2.39-4.44
				c1.62-2.72,3.25-5.25,4.94-7.75c3.39-4.97,6.89-9.75,10.55-14.39c3.65-4.66,7.37-9.18,11.4-13.56l13.31,11.54
				c-3.59,4.45-7.4,8.86-11.18,13.2l-11.32,12.95C263.01,228.09,261.15,230.23,259.49,232.34z"/>
		</g>
		<g>
			<g>
				<g>
					<g>
						<g>
							<g>
								<g>
									<polygon style="fill:#CE7A63;" points="307.961,418.371 311.144,441.72 318.753,442.104 321.217,419.596 									"/>
								</g>
							</g>
						</g>
					</g>
					<g>
						<g>
							<g>
								<path d="M325.232,452.56h-17.021c0,0-0.371-0.715,0.053-2.618c0.065-0.297,0.149-0.622,0.259-0.978
									c0.006-0.018,0.01-0.035,0.016-0.053c0.159-0.526,0.342-1.174,0.536-1.874c0.78-2.849,1.697-6.573,1.697-6.573
									s2.832-6.063,6.145-4.548c2.907,1.328,2.217,5.128,2.217,5.128s0.285,2.231,2.488,4.199c1.363,1.216,2.718,2.156,3.37,3.668
									c0.122,0.283,0.218,0.583,0.287,0.909c0.008,0.039,0.016,0.081,0.022,0.122C325.436,450.671,325.428,451.525,325.232,452.56
									z"/>
							</g>
						</g>
					</g>
					<g style="opacity:0.3;">
						<path style="fill:#FFFFFF;" d="M308.264,449.942c-0.424,1.903-0.053,2.618-0.053,2.618h17.021
							c0.196-1.035,0.204-1.889,0.069-2.618H308.264z"/>
					</g>
					<g>
						<g>
							<g>
								<g>
									<path style="fill:#FFFFFF;" d="M318.449,441.999c-0.957-0.746-2.213-0.649-3.074,0.191
										c-0.232,0.226-0.587-0.129-0.355-0.355c1.075-1.048,2.609-1.107,3.785-0.191
										C319.059,441.842,318.701,442.195,318.449,441.999L318.449,441.999z"/>
								</g>
							</g>
						</g>
					</g>
					<g>
						<g>
							<g>
								<g>
									<path style="fill:#FFFFFF;" d="M318.93,443.588c-0.957-0.746-2.214-0.649-3.074,0.191
										c-0.232,0.226-0.587-0.129-0.355-0.355c1.075-1.048,2.609-1.107,3.785-0.191
										C319.539,443.431,319.182,443.784,318.93,443.588L318.93,443.588z"/>
								</g>
							</g>
						</g>
					</g>
					<g>
						<g>
							<g>
								<g>
									<path style="fill:#FFFFFF;" d="M319.412,445.049c-0.957-0.746-2.213-0.649-3.074,0.191
										c-0.232,0.226-0.587-0.129-0.355-0.355c1.075-1.048,2.609-1.107,3.785-0.191
										C320.022,444.893,319.664,445.246,319.412,445.049L319.412,445.049z"/>
								</g>
							</g>
						</g>
					</g>
				</g>
				<g>
					<g>
						<g>
							<g>
								<g>
									<g>
										<polygon style="fill:#CE7A63;" points="256.083,422.193 248.133,443.648 240.928,441.32 243.413,418.674 										"/>
									</g>
								</g>
							</g>
						</g>
						<g>
							<path style="fill:#407BFF;" d="M264.542,275.261c0,0-14.704,62.778-16.037,75.529c-1.332,12.751-10.602,79.458-10.602,79.458
								l17.391,3.818c0,0,19.772-71.787,21.198-78.686c1.426-6.899,19.304-56.629,19.304-56.629l-2.293-19.1L264.542,275.261z"/>
						</g>
						<g>
							<g style="opacity:0.2;">
								<path d="M274.786,280.025c-2.078,6.83-7.635,12.317-14.489,14.312c-0.37,0.108-0.212,0.686,0.159,0.578
									c7.057-2.054,12.769-7.7,14.908-14.731C275.477,279.815,274.898,279.656,274.786,280.025L274.786,280.025z"/>
							</g>
						</g>
						<g>
							<g style="opacity:0.2;">
								<path d="M291.747,298.924c-7.671,15.412-12.096,32.174-17.519,48.445c-5.628,16.882-10.129,34.118-14.168,51.442
									c-2.274,9.755-4.402,19.543-6.502,29.336c-0.081,0.376,0.497,0.537,0.578,0.159c3.718-17.339,7.524-34.666,12.074-51.809
									c4.484-16.892,10.036-33.461,15.421-50.08c3.003-9.268,6.287-18.457,10.634-27.191
									C292.437,298.882,291.919,298.578,291.747,298.924L291.747,298.924z"/>
							</g>
						</g>
						<g>
							<g style="opacity:0.2;">
								<path d="M239.315,425.36c5.543,1.403,11.087,2.806,16.631,4.209c0.374,0.095,0.534-0.483,0.159-0.578
									c-5.543-1.403-11.087-2.806-16.63-4.208C239.1,424.687,238.941,425.265,239.315,425.36L239.315,425.36z"/>
							</g>
						</g>
						<g>
							<g>
								<g>
									<g>
										<g>
											<g>
												<g>
													<g>
														<g>
															<g>
																<g>
																	<g>
																		<path d="M248.91,452.674l-6.533-0.049c0,0-1.315-0.712-2.092-0.624c-0.774,0.089-3.468,0.582-3.468,0.582
																			l-17.348-0.131c0.144-0.726,0.32-1.372,0.52-1.945c0.243-0.698,0.524-1.289,0.834-1.788
																			c1.088-1.746,2.559-2.359,4.155-2.448c2.43-0.134,10.113-5.179,10.113-5.179s2.781-0.949,2.953-3.9
																			c0.066-1.106,1.71-2.445,2.488-2.55c1.588-0.217,2.463,0.794,2.682,2.382l0.252,1.844l3.669-0.543
																			c0,0,3.742-1.848,3.547-0.027c-0.111,1.039-0.773,5.667-1.193,9.339c-0.099,0.856-0.191,1.666-0.271,2.376
																			l-0.002,0.001C249.036,451.59,248.91,452.674,248.91,452.674z"/>
																	</g>
																</g>
															</g>
														</g>
													</g>
												</g>
												<g style="opacity:0.3;">
													<path style="fill:#FFFFFF;" d="M219.469,452.452l17.348,0.131c0,0,2.694-0.493,3.468-0.582
														c0.776-0.088,2.092,0.624,2.092,0.624l6.533,0.049c0,0,0.125-1.084,0.305-2.661l-29.227,0.493
														C219.79,451.08,219.613,451.725,219.469,452.452z"/>
												</g>
												<g>
													<g>
														<g>
															<g>
																<path style="fill:#FFFFFF;" d="M231.271,442.957c0.081-0.078,0.205-0.086,0.298-0.023
																	c0.428,0.289,0.786,0.695,1.028,1.202c0.128,0.267-0.264,0.522-0.392,0.252c-0.215-0.451-0.528-0.81-0.902-1.063
																	c-0.125-0.085-0.144-0.26-0.036-0.365C231.268,442.959,231.27,442.958,231.271,442.957z"/>
															</g>
														</g>
													</g>
												</g>
												<g>
													<g>
														<g>
															<g>
																<path style="fill:#FFFFFF;" d="M232.657,442.154c0.081-0.078,0.205-0.086,0.298-0.023
																	c0.428,0.289,0.786,0.695,1.028,1.202c0.127,0.268-0.264,0.522-0.392,0.252c-0.215-0.451-0.528-0.81-0.902-1.063
																	c-0.125-0.085-0.144-0.26-0.036-0.365C232.655,442.156,232.656,442.155,232.657,442.154z"/>
															</g>
														</g>
													</g>
												</g>
												<g>
													<g>
														<g>
															<g>
																<path style="fill:#FFFFFF;" d="M234.086,441.406c0.081-0.078,0.205-0.086,0.299-0.023
																	c0.428,0.289,0.786,0.695,1.028,1.202c0.127,0.267-0.264,0.522-0.392,0.252c-0.215-0.451-0.528-0.81-0.902-1.063
																	c-0.125-0.085-0.144-0.26-0.036-0.365C234.084,441.408,234.085,441.407,234.086,441.406z"/>
															</g>
														</g>
													</g>
												</g>
											</g>
										</g>
									</g>
								</g>
							</g>
						</g>
						<g>
							<g>
								<g>
									<g>
										<g>
											<g>
												<path style="fill:#407BFF;" d="M326.205,327.241c2.071-17.592,0.632-56.973,0.632-56.973l-36.742,0.311
													c0,0,5.217,36.107,9.742,54.668L326.205,327.241z"/>
											</g>
										</g>
									</g>
								</g>
							</g>
						</g>
						<g style="opacity:0.2;">
							<path d="M295.569,280.024c-0.405,5.976-0.8,11.961-1.205,17.937c-0.019,0.386-0.617,0.386-0.598,0
								c0.212-3.065,0.414-6.14,0.617-9.214c-1.475,1.137-3.2-0.241-3.682-1.764c-0.79-2.467-0.492-5.398,0.125-7.865
								c0.096-0.376,0.675-0.212,0.578,0.154c-0.434,1.735-0.617,3.508-0.491,5.292c0.058,0.906,0.145,1.947,0.569,2.776
								c0.472,0.925,1.667,1.706,2.622,0.867c0.106-0.087,0.222-0.096,0.318-0.048c0.183-2.708,0.366-5.426,0.549-8.135
								C294.991,279.638,295.589,279.638,295.569,280.024z"/>
						</g>
						<g>
							<g>
								<g>
									<g style="opacity:0.2;">
										<path d="M313.142,281.042c-0.084,7.922,6.014,14.556,13.899,15.178c0.378,0.03,0.376-0.559,0-0.589
											c-7.567-0.597-13.391-7.008-13.31-14.589C313.735,280.663,313.146,280.663,313.142,281.042L313.142,281.042z"/>
									</g>
								</g>
							</g>
						</g>
						<g>
							<g>
								<g>
									<path style="fill:#407BFF;" d="M306.856,434.651l16.365,0.028c2.16-25.25,3.546-113.939,3.546-113.939l-30.971-16.455
										c0,0,3.766,38.544,5.243,51.333C301.039,355.616,303.731,416.865,306.856,434.651z"/>
								</g>
							</g>
						</g>
						<g>
							<g style="opacity:0.2;">
								<path d="M298.353,299.719c2.012,16.848,3.627,33.741,5.032,50.649c1.401,16.862,2.596,33.739,3.781,50.617
									c0.672,9.572,1.34,19.145,2.04,28.715c0.028,0.383,0.628,0.386,0.6,0c-1.24-16.956-2.38-33.919-3.618-50.876
									c-1.23-16.864-2.557-33.722-4.174-50.554c-0.916-9.528-1.926-19.047-3.061-28.552
									C298.907,299.341,298.307,299.336,298.353,299.719L298.353,299.719z"/>
							</g>
						</g>
						<g>
							<g style="opacity:0.2;">
								<path d="M306.443,429.982c5.622,0.013,11.245,0.025,16.867,0.038c0.386,0.001,0.386-0.599,0-0.6
									c-5.622-0.013-11.245-0.025-16.867-0.038C306.057,429.381,306.057,429.981,306.443,429.982L306.443,429.982z"/>
							</g>
						</g>
						<g>
							<g>
								<g>
									<g style="opacity:0.2;">
										<path d="M317.009,358.318c2.455,0.906,5.091,0.92,7.557,0.042c0.355-0.126,0.202-0.696-0.157-0.568
											c-2.377,0.847-4.877,0.832-7.244-0.042C316.809,357.619,316.656,358.188,317.009,358.318L317.009,358.318z"/>
									</g>
								</g>
							</g>
						</g>
					</g>
				</g>
				<g>
					<g>
						<g>
							<g>
								<g>
									<path d="M331.731,282.993c-0.755-7.108-2.918-30.453-2.98-55.037c-0.002-0.691,0.075-1.368,0.133-2.034
										c0.6-6.826,2.108-11.962,3.202-16.492c1.215-5.018,1.917-9.292,0.319-14.289c-1.309-4.089-3.443-6.247-6.091-7.582
										c-0.236-0.119-0.476-0.23-0.72-0.336c-3.406-1.491-7.569-1.859-11.886-3.237c-1.983-0.632-4-1.478-5.989-2.746
										c-10.114-6.439-15.601,0-15.601,0s-1.605,0.352-3.861,0.94c-0.909,0.236-1.925,0.51-2.985,0.813
										c-0.216,0.061-0.434,0.124-0.653,0.19c-3.608,1.059-7.564,2.438-9.504,3.837c-2.683,1.937-3.385,11.017-3.578,20.654
										c-0.004,0.238-0.008,0.478-0.012,0.719c-0.015,0.827-0.026,1.658-0.034,2.487c-0.012,1.251-0.02,2.498-0.024,3.73v0.001
										c-0.001,0.271-0.002,0.542-0.004,0.811c-0.008,3.107-0.003,6.084-0.041,8.695c-0.003,0.293-0.008,0.58-0.014,0.862
										c-0.027,1.513-0.071,2.885-0.142,4.068c-0.032,0.512-0.067,0.986-0.11,1.424c-0.45,4.65-5.678,40.916-7.113,47.342
										C282.531,282.035,304.43,282.914,331.731,282.993z"/>
								</g>
							</g>
						</g>
					</g>
				</g>
				<g>
					<g>
						<g>
							<g>
								<path style="fill:#CE7A63;" d="M309.053,166.416c-2.13,4.299-1.552,9.166-1.947,14.448
									c-0.858,1.388-7.817,14.275-12.887,6.959c-1.648-2.381-1.523-6.246-1.966-7.364c0.357-0.482,1.33-1.33,1.619-1.88
									c0.347-0.684,0.646-1.407,0.877-2.178c0.058-0.202,0.116-0.405,0.164-0.607c0.077-0.318,0.145-0.646,0.203-0.983
									c0.067-0.414,0.106-0.839,0.135-1.272c0-0.174,0.019-0.357,0.019-0.53v-0.405h0.01l8.154-3.663L309.053,166.416z"/>
							</g>
						</g>
						<g>
							<g>
								<path d="M313.329,144.959c0,0-2.65-8.672-13.12-6.427c-6.599,1.415-11.441,3.723-11.441,9.532
									c0,3.862,3.347,7.137,5.709,7.247s20.128-3.794,20.128-3.794S318.995,147.261,313.329,144.959z"/>
							</g>
						</g>
						<g style="opacity:0.2;">
							<g>
								<path d="M301.468,174.589c-1.648,1.494-4.395,2.034-6.718,1.812c0.058-0.202,0.116-0.405,0.164-0.607
									c0.077-0.318,0.145-0.646,0.203-0.983c0.067-0.414,0.106-0.839,0.135-1.272c0-0.174,0.019-0.357,0.019-0.53v-0.357
									l7.296-1.561C303.087,171.573,302.798,173.375,301.468,174.589z"/>
							</g>
						</g>
						<g>
							<g>
								<path style="fill:#CE7A63;" d="M313.251,158.512c2.562-7.337-3.171-15.04-11.197-14.142
									c-8.146,0.912-12.288,11.708-12.575,18.868c-0.319,7.955,7.934,13.971,15.231,9.805
									C309.562,170.274,310.689,165.849,313.251,158.512L313.251,158.512z"/>
							</g>
						</g>
						<g>
							<g>
								<path d="M314.757,159.973c0,0-1.513,4.253-1.037,6.399c0.476,2.146-0.393,3.032-1.768,2.559
									c-1.375-0.472-1.128-1.724-1.128-1.724s-0.085,3.777-2.282,2.972c-2.197-0.805-1.137-4.489-1.137-4.489
									S311.309,160.165,314.757,159.973z"/>
							</g>
						</g>
						<g>
							<g>
								<g>
									<path d="M309.214,146.05c0,0-7.447,5.464-13.632,1.466C289.397,143.519,304.628,138.76,309.214,146.05z"/>
								</g>
							</g>
						</g>
						<g>
							<g>
								<g>
									<g>
										<g>
											<path d="M306.176,160.394c1.059,1.564,2.288,0.243,5.377-0.958c0.424-0.165,0.882-0.28,1.493-0.228
												c-0.978,2.44-1.882,4.453-2.589,5.894c-0.212,0.432-0.43,0.822-0.663,1.179c2.571-2.444,5.537-5.359,6.523-6.721
												c0.2-0.275,0.364-0.545,0.497-0.811c-0.032-0.107-0.064-0.212-0.103-0.315c-0.158-0.452-0.373-0.876-0.631-1.274
												c-0.41-0.627-0.936-1.191-1.531-1.692c-1.929-1.633-4.213-2.521-6.174-3.083
												C307.893,154.756,305.31,159.113,306.176,160.394z"/>
										</g>
									</g>
								</g>
							</g>
						</g>
						<g>
							<g>
								<g>
									<g>
										<path d="M307.139,147.711c0,0,1.647,1.704,1.41,3.518c-0.237,1.814-0.997,3.619-0.997,3.619s5.324,2.368,6.728,2.149
											c1.404-0.219,2.54-4.124,2.54-4.124s-6.027-7.388-8.491-7.253C305.865,145.754,307.139,147.711,307.139,147.711z"/>
									</g>
								</g>
							</g>
						</g>
						<g>
							<g>
								<g>
									<path d="M312.957,146.153c0,0,3.219-0.501,4.947,3.002c1.728,3.503,0.409,7.581-1.09,9.594
										C315.314,160.762,308.394,153.005,312.957,146.153z"/>
								</g>
							</g>
						</g>
						<g>
							<g>
								<path style="fill:#CE7A63;" d="M315.052,164.394c-1.097,1.785-2.917,2.897-4.598,3.27c-2.529,0.561-3.653-1.735-2.833-4.049
									c0.738-2.082,2.944-4.883,5.426-4.408C315.491,159.676,316.306,162.353,315.052,164.394L315.052,164.394z"/>
							</g>
						</g>
						<g>
							<g>
								<path d="M300.79,158.953c-0.171,0.608-0.632,1.01-1.03,0.898c-0.397-0.112-0.581-0.696-0.409-1.303
									c0.171-0.608,0.632-1.01,1.03-0.898C300.778,157.762,300.962,158.345,300.79,158.953L300.79,158.953z"/>
							</g>
						</g>
						<g>
							<g>
								<path d="M294.15,156.994c-0.171,0.608-0.632,1.01-1.03,0.898c-0.397-0.112-0.581-0.696-0.409-1.304
									c0.171-0.608,0.632-1.01,1.03-0.898C294.138,155.803,294.321,156.387,294.15,156.994L294.15,156.994z"/>
							</g>
						</g>
					</g>
					<g>
						<g>
							<path style="fill:#FFFFFF;" d="M298.745,164.327c0,0-2.577,0.451-6.192-0.999c0,0-0.341,2.74,2.057,3.467
								C297.511,167.675,298.745,164.327,298.745,164.327z"/>
						</g>
					</g>
					<g>
						<path d="M294.871,161.649c0,0-2.801,0.12-3.765,1.295s4.187,2.154,6.446,2.192c2.259,0.037,2.115-0.911,1.193-1.807
							C297.823,162.432,294.871,161.649,294.871,161.649z"/>
					</g>
					<g>
						<g>
							<path d="M292.765,153.733c0.104,0.029,0.219,0.003,0.301-0.079c0.365-0.364,0.751-0.545,1.148-0.54
								c0.652,0.01,1.151,0.518,1.156,0.524c0.114,0.121,0.311,0.13,0.435,0.012c0.124-0.117,0.129-0.313,0.012-0.436
								c-0.026-0.028-0.677-0.703-1.594-0.716c-0.569-0.008-1.105,0.234-1.591,0.72c-0.121,0.12-0.122,0.316-0.001,0.436
								C292.668,153.693,292.715,153.719,292.765,153.733z"/>
						</g>
					</g>
					<g>
						<g>
							<path d="M303.067,156.861c0.044,0.012,0.091,0.015,0.139,0.006c0.167-0.031,0.278-0.191,0.247-0.357
								c-0.007-0.039-0.181-0.959-0.942-1.472c-0.472-0.318-1.052-0.409-1.726-0.268c-0.167,0.035-0.275,0.198-0.24,0.365
								c0.035,0.167,0.199,0.274,0.365,0.239c0.503-0.104,0.924-0.047,1.252,0.173c0.545,0.364,0.683,1.067,0.684,1.074
								C302.869,156.739,302.957,156.83,303.067,156.861z"/>
						</g>
					</g>
					<g>
						<g>
							<path style="fill:#BA4D3C;" d="M297.01,156.84c0,0-0.982,1.798-2.868,2.651c-1.886,0.853,0.799,2.839,0.799,2.839
								L297.01,156.84z"/>
						</g>
					</g>
				</g>
				<g style="opacity:0.3;">
					<path style="fill:#FFFFFF;" d="M317.358,268.263c0.398-0.006,0.399-0.625,0-0.619c-2.824,0.046-5.281-1.749-6.693-4.11
						c-1.61-2.693-1.912-5.924-2.019-8.992c-0.014-0.397-0.632-0.399-0.618,0c0.117,3.358,0.476,6.964,2.43,9.814
						C312.028,266.647,314.519,268.309,317.358,268.263z"/>
				</g>
				<g style="opacity:0.3;">
					<path style="fill:#FFFFFF;" d="M275.872,252.08c-0.416,5.195-2.595,11.961-8.814,12.318c-0.396,0.023-0.398,0.641,0,0.619
						c2.706-0.155,5.064-1.687,6.645-3.844c1.921-2.62,2.534-5.922,2.788-9.092C276.523,251.684,275.904,251.686,275.872,252.08z"/>
				</g>
				<g style="opacity:0.3;">
					<path style="fill:#FFFFFF;" d="M294.622,245.556c-0.618,0-1.119,0.501-1.119,1.119c0,0.618,0.501,1.119,1.119,1.119
						c0.618,0,1.119-0.501,1.119-1.119C295.741,246.056,295.24,245.556,294.622,245.556z"/>
				</g>
				<g style="opacity:0.3;">
					<path style="fill:#FFFFFF;" d="M293.933,254.567c-0.618,0-1.119,0.501-1.119,1.119c0,0.618,0.501,1.119,1.119,1.119
						c0.618,0,1.119-0.501,1.119-1.119C295.052,255.068,294.551,254.567,293.933,254.567z"/>
				</g>
				<g style="opacity:0.3;">
					<path style="fill:#FFFFFF;" d="M293.503,264.462c-0.618,0-1.119,0.501-1.119,1.119c0,0.618,0.501,1.119,1.119,1.119
						c0.618,0,1.119-0.501,1.119-1.119C294.622,264.963,294.121,264.462,293.503,264.462z"/>
				</g>
				<g style="opacity:0.3;">
					<path style="fill:#FFFFFF;" d="M291.871,241.193c-0.889,13.01-1.778,26.02-2.667,39.029c-0.027,0.397,0.591,0.396,0.618,0
						c0.889-13.01,1.778-26.02,2.667-39.029C292.517,240.795,291.898,240.797,291.871,241.193z"/>
				</g>
				<g style="opacity:0.3;">
					<path style="fill:#FFFFFF;" d="M324.835,233.7c0.202-3.933,0.506-7.86,0.874-11.782h-0.621
						c-1.424,15.235-1.623,30.578-0.543,45.842c0.32,4.52,0.753,9.031,1.29,13.53c0.047,0.39,0.666,0.395,0.618,0
						C324.571,265.508,324.019,249.574,324.835,233.7z"/>
				</g>
			</g>
			<g>
				<g>
					<path style="fill:#FFFFFF;" d="M293.605,239.926l11.97-41.904c-2.671-3.013-6.886-6.188-9.092-8.239l-7.642,5.93l2.408,44.213
						H293.605z"/>
				</g>
			</g>
			<g>
				<g>
					<path style="fill:#407BFF;" d="M293.403,239.926l5.277-20.849l-0.894-20.492l-3.613-0.361l-3.449,18.898
						c0.178,7.601,0.343,16.639,0.535,22.804H293.403z"/>
				</g>
			</g>
			<g>
				<g>
					<polygon style="fill:#407BFF;" points="291.318,193.791 295.629,200.486 301.971,194.895 296.483,189.783 					"/>
				</g>
			</g>
			<g>
				<g>
					<path style="fill:#FFFFFF;" d="M292.756,179.481c-0.784-0.999-5.113,0.341-5.978,3.093l2.063,13.138l7.642-5.93
						C296.483,189.783,291.683,185.382,292.756,179.481z"/>
				</g>
			</g>
			<g>
				<g>
					<path style="fill:#FFFFFF;" d="M307.103,180.862c0,0-3.203,6.4-10.62,8.921c0,0,5.95,4.966,9.092,8.239l7.006-14.709
						C312.643,182.271,309.772,179.408,307.103,180.862z"/>
				</g>
			</g>
			<g>
				<g>
					<path d="M312.474,183.085c0,0,4.526-0.001,7.083,2.38l-7.047,19.416l-4.277,0.558l0.978,5.406l-6.051,22.991l-10.391,7.142
						C291.838,241.051,304.875,194,312.474,183.085z"/>
				</g>
				<g style="opacity:0.3;">
					<path style="fill:#FFFFFF;" d="M312.474,183.085c0,0,4.526-0.001,7.083,2.38l-7.047,19.416l-4.277,0.558l0.978,5.406
						l-6.051,22.991l-10.391,7.142C291.838,241.051,304.875,194,312.474,183.085z"/>
				</g>
				<g>
					<path d="M286.778,182.574c0,0-4.807,0.081-7.061,2.221l2.067,19.225h4.994l-4.307,6.739l1.866,23.7l7.921,6.684
						C292.258,241.144,291.87,209.046,286.778,182.574z"/>
				</g>
				<g style="opacity:0.3;">
					<path style="fill:#FFFFFF;" d="M286.778,182.574c0,0-4.807,0.081-7.061,2.221l2.067,19.225h4.994l-4.307,6.739l1.866,23.7
						l7.921,6.684C292.258,241.144,291.87,209.046,286.778,182.574z"/>
				</g>
			</g>
		</g>
		<g>
			<path d="M350.94,237.85c-0.14,0.85-0.45,1.98-0.83,2.91c-0.38,0.95-0.85,1.82-1.37,2.59c-1.04,1.56-2.22,2.73-3.37,3.67
				s-2.29,1.65-3.39,2.26c-2.23,1.18-4.34,1.94-6.4,2.57c-2.06,0.62-4.07,1.07-6.06,1.42c-3.97,0.72-7.85,1.06-11.7,1.24
				c-3.88,0.13-8.305,0.582-12.245,0.282l0.325-9.162c6.9-1.35,14.03-2.94,20.35-5.13c1.57-0.57,3.1-1.16,4.49-1.81
				c1.38-0.64,2.66-1.36,3.58-2.08c0.43-0.3,0.76-0.61,0.99-0.87c-0.04-0.3-0.08-0.73-0.13-1c-0.16-0.91-0.56-2.24-1.09-3.59
				c-0.52-1.37-1.2-2.81-1.9-4.28c-1.42-2.93-3.14-5.91-4.91-8.88c-1.79-2.97-3.67-5.95-5.61-8.9l-2.94-4.42l-2.92-4.31
				l13.889-10.229c1.092,1.035,2.631,2.899,3.731,4.479c1.1,1.57,2.15,3.16,3.19,4.76c2.06,3.22,4.05,6.5,5.9,9.91
				c1.88,3.41,3.6,6.95,5.16,10.74c0.78,1.89,1.48,3.87,2.1,5.99c0.61,2.14,1.16,4.39,1.37,7.15
				C351.24,234.54,351.25,236.05,350.94,237.85z"/>
		</g>
		<g>
			<g>
				
					<rect x="261.386" y="225.775" transform="matrix(0.1585 -0.9874 0.9874 0.1585 -9.8473 485.9717)" style="fill:#407BFF;" width="37.58" height="45.975"/>
			</g>
			<g>
				<g style="opacity:0.2;">
					<g>
						<polygon points="277.358,229.28 257.744,243.469 258.824,236.74 270.62,228.198 						"/>
					</g>
				</g>
				<g style="opacity:0.2;">
					<g>
						<polygon points="291.072,231.481 255.543,257.182 256.624,250.444 284.343,230.401 						"/>
					</g>
				</g>
				<g style="opacity:0.2;">
					<g>
						<polygon points="304.785,233.682 261.724,264.832 254.996,263.752 298.057,232.602 						"/>
					</g>
				</g>
				<g style="opacity:0.2;">
					<g>
						<polygon points="304.901,239.773 303.819,246.511 275.447,267.034 268.709,265.953 						"/>
					</g>
				</g>
				<g style="opacity:0.2;">
					<g>
						<polygon points="302.698,253.496 301.618,260.224 289.16,269.236 282.422,268.154 						"/>
					</g>
				</g>
			</g>
			<g>
				<g>
					
						<rect x="257.777" y="223.529" transform="matrix(0.9874 0.1585 -0.1585 0.9874 39.6194 -42.0745)" style="fill:#407BFF;" width="51.666" height="7.682"/>
				</g>
				<g style="opacity:0.3;">
					
						<rect x="257.777" y="223.529" transform="matrix(0.9874 0.1585 -0.1585 0.9874 39.6194 -42.0745)" width="51.666" height="7.682"/>
				</g>
			</g>
			<g>
				<path style="fill:#407BFF;" d="M303.003,223.574c-0.284-0.108-5.884-2.203-13.725-1.283c4.347-1.968,10.426-5.335,11.209-9.065
					c0.313-1.498-0.225-2.917-1.606-4.21c-1.39-1.302-3.094-1.635-4.934-0.969c-3.25,1.194-6.588,5.463-8.429,10.309
					c-0.235-5.189-2.075-10.299-4.797-12.452c-1.527-1.214-3.25-1.429-4.983-0.626c-1.713,0.793-2.672,1.968-2.839,3.495
					c-0.421,3.798,4.307,8.908,7.822,12.139c-7.156-3.319-13.128-3.094-13.431-3.074c-0.264,0.02-0.47,0.245-0.46,0.509
					c0.02,0.264,0.235,0.47,0.509,0.46c0.078-0.01,8.311-0.313,16.809,5.081l-1.136,7.058c-0.039,0.255,0.137,0.509,0.401,0.548
					c0.264,0.039,0.509-0.137,0.558-0.401l1.136-7.058c9.76-2.467,17.474,0.411,17.553,0.441c0.255,0.098,0.519-0.029,0.617-0.284
					C303.374,223.946,303.247,223.663,303.003,223.574z M294.28,208.958c0.705-0.264,1.38-0.343,2.007-0.235
					c0.695,0.108,1.341,0.441,1.938,0.989c1.136,1.067,1.566,2.154,1.322,3.319c-0.959,4.513-11.336,8.762-14.263,9.878l0.088-0.519
					l0.01-0.078C286.526,216.457,290.54,210.319,294.28,208.958z M273.849,208.88c0.137-1.184,0.881-2.075,2.301-2.731
					c0.724-0.343,1.449-0.45,2.144-0.343c0.627,0.098,1.243,0.382,1.831,0.852c3.172,2.496,5.061,9.721,4.259,15.683
					c-0.02,0.127-0.049,0.264-0.059,0.401C281.906,220.775,273.34,213.471,273.849,208.88z"/>
			</g>
			<g style="opacity:0.5;">
				<path style="fill:#FFFFFF;" d="M303.003,223.574c-0.284-0.108-5.884-2.203-13.725-1.283c4.347-1.968,10.426-5.335,11.209-9.065
					c0.313-1.498-0.225-2.917-1.606-4.21c-1.39-1.302-3.094-1.635-4.934-0.969c-3.25,1.194-6.588,5.463-8.429,10.309
					c-0.235-5.189-2.075-10.299-4.797-12.452c-1.527-1.214-3.25-1.429-4.983-0.626c-1.713,0.793-2.672,1.968-2.839,3.495
					c-0.421,3.798,4.307,8.908,7.822,12.139c-7.156-3.319-13.128-3.094-13.431-3.074c-0.264,0.02-0.47,0.245-0.46,0.509
					c0.02,0.264,0.235,0.47,0.509,0.46c0.078-0.01,8.311-0.313,16.809,5.081l-1.136,7.058c-0.039,0.255,0.137,0.509,0.401,0.548
					c0.264,0.039,0.509-0.137,0.558-0.401l1.136-7.058c9.76-2.467,17.474,0.411,17.553,0.441c0.255,0.098,0.519-0.029,0.617-0.284
					C303.374,223.946,303.247,223.663,303.003,223.574z M294.28,208.958c0.705-0.264,1.38-0.343,2.007-0.235
					c0.695,0.108,1.341,0.441,1.938,0.989c1.136,1.067,1.566,2.154,1.322,3.319c-0.959,4.513-11.336,8.762-14.263,9.878l0.088-0.519
					l0.01-0.078C286.526,216.457,290.54,210.319,294.28,208.958z M273.849,208.88c0.137-1.184,0.881-2.075,2.301-2.731
					c0.724-0.343,1.449-0.45,2.144-0.343c0.627,0.098,1.243,0.382,1.831,0.852c3.172,2.496,5.061,9.721,4.259,15.683
					c-0.02,0.127-0.049,0.264-0.059,0.401C281.906,220.775,273.34,213.471,273.849,208.88z"/>
			</g>
		</g>
		<g>
			<g>
				<path style="fill:#CE7A63;" d="M303.988,245.459c0,0-7.3,1.758-7.987,3.18c-0.687,1.422,1.565,1.345,1.565,1.345
					s-2.473,0.237-2.514,1.301c-0.049,1.277,2.31,1.185,2.31,1.185s-2.011,0.276-1.984,1.225c0.028,0.984,2.698,1.07,2.698,1.07
					s-1.379,0.462-0.988,1.111c0.392,0.649,6.056,0.941,7.74-0.096c1.684-1.037,1.795-8.319,1.493-9.913
					c-0.303-1.594,0.349-2.453-1.613-4.895L303.988,245.459L303.988,245.459z"/>
			</g>
			<g>
				<path style="opacity:0.2;" d="M297.571,250.102c0.004,0,0.007,0,0.01-0.001l4.292-0.62c0.057-0.009,0.098-0.068,0.09-0.134
					c-0.008-0.066-0.063-0.113-0.119-0.104l-4.291,0.62c-0.058,0.009-0.098,0.068-0.09,0.134
					C297.47,250.06,297.517,250.104,297.571,250.102z"/>
			</g>
			<g>
				<path style="opacity:0.2;" d="M297.489,252.584c0.001,0,0.002,0,0.003,0l4.169-0.268c0.058-0.004,0.102-0.06,0.098-0.126
					c-0.004-0.066-0.045-0.106-0.112-0.113l-4.169,0.268c-0.058,0.004-0.102,0.06-0.098,0.126
					C297.384,252.537,297.432,252.586,297.489,252.584z"/>
			</g>
			<g>
				<path style="opacity:0.2;" d="M298.223,254.878l3.104-0.11c0.058-0.002,0.103-0.057,0.101-0.123
					c-0.002-0.066-0.051-0.118-0.109-0.116l-3.104,0.11c-0.058,0.002-0.103,0.057-0.101,0.123S298.164,254.881,298.223,254.878z"/>
			</g>
		</g>
		<g>
			<g>
				<path style="fill:#CE7A63;" d="M258.962,236.732c0,0,6.488,3.78,6.738,5.339c0.25,1.559-1.885,0.839-1.885,0.839
					s2.301,0.937,2.035,1.968c-0.319,1.237-2.553,0.472-2.553,0.472s1.847,0.842,1.549,1.743c-0.309,0.935-2.892,0.25-2.892,0.25
					s1.189,0.839,0.627,1.348c-0.562,0.509-6.071-0.837-7.387-2.314c-1.316-1.476,0.668-8.484,1.416-9.924
					c0.747-1.44,0.358-2.45,2.938-4.226L258.962,236.732L258.962,236.732z"/>
			</g>
			<g>
				<path style="opacity:0.2;" d="M263.776,243.022c-0.003-0.001-0.007-0.002-0.01-0.004l-3.933-1.826
					c-0.053-0.025-0.074-0.094-0.048-0.154c0.027-0.061,0.093-0.09,0.143-0.065l3.933,1.826c0.053,0.025,0.074,0.094,0.048,0.154
					C263.885,243.01,263.827,243.04,263.776,243.022z"/>
			</g>
			<g>
				<path style="opacity:0.2;" d="M263.141,245.423c-0.001,0-0.002,0-0.003-0.001l-3.917-1.454c-0.055-0.02-0.08-0.087-0.058-0.149
					c0.023-0.062,0.074-0.089,0.14-0.076l3.917,1.453c0.055,0.02,0.08,0.087,0.058,0.149
					C263.256,245.408,263.195,245.441,263.141,245.423z"/>
			</g>
			<g>
				<path style="opacity:0.2;" d="M261.78,247.41l-2.942-0.997c-0.055-0.019-0.082-0.085-0.061-0.147
					c0.021-0.062,0.083-0.098,0.138-0.079l2.942,0.997c0.055,0.019,0.082,0.085,0.061,0.147
					C261.897,247.393,261.835,247.429,261.78,247.41z"/>
			</g>
		</g>
	</g>
</g>
<g id="Character_1_1_">
	<g>
		<g>
			<path d="M93.394,174.84c2.546,3.969,19.162,4.913,29.826,1.813c-0.695-4.058-0.385-11.165,0.018-16.432
				c0.539-7.042-1.374-12.376-6.304-15.205c-4.612-2.646-15.706-2.506-19.156,0.162c0,0-8.163,4.277-5.011,13.212
				C95.803,166.996,95.561,171.285,93.394,174.84z"/>
		</g>
		<g>
			<g>
				<path style="fill:#FFFFFF;" d="M118.773,165.253c0.006,0.081,0.005,0.162,0,0.242c1.864,0.261,3.308,1.851,3.308,3.786
					c0,2.117-1.722,3.839-3.839,3.839c-2.117,0-3.839-1.722-3.839-3.839c0-1.366,0.723-2.56,1.801-3.241
					c-0.041-0.069-0.079-0.141-0.109-0.215c-1.157,0.721-1.934,1.995-1.934,3.456c0,2.251,1.831,4.082,4.082,4.082
					c2.251,0,4.081-1.831,4.081-4.082C122.323,167.212,120.771,165.517,118.773,165.253z"/>
			</g>
		</g>
		<g>
			<g>
				<g>
					<path style="fill:#FF8B7B;" d="M139.387,273.434c0,0,8.205,61.26,7.438,68.931c-4.27,42.697-19.439,87.126-19.439,87.126
						l-8.275,0.671c-0.807,0.021,0.288-76.307,4.056-86.996c1.694-4.804-11.601-61.581-11.601-61.581L139.387,273.434z"/>
				</g>
			</g>
			<g>
				<g>
					<g>
						<path d="M131.854,246.317c0,0,10.315,33.349,13.583,56.202l-30.184,6.892l-15.256-51.878L131.854,246.317z"/>
					</g>
				</g>
				<g>
					<g>
						<g>
							<path style="fill:#407BFF;" d="M112.105,272.993c2.337,10.29,5.23,20.44,8.668,30.416c0.107,0.312-0.386,0.445-0.493,0.136
								c-3.438-9.976-6.331-20.126-8.668-30.416C111.54,272.808,112.033,272.672,112.105,272.993L112.105,272.993z"/>
						</g>
					</g>
				</g>
				<g>
					<g>
						<polygon style="fill:#407BFF;" points="145.437,297.072 146.825,303.547 114.226,310.703 112.882,304.384 						"/>
					</g>
				</g>
			</g>
			<g>
				<g>
					<g style="opacity:0.2;">
						<path d="M146.371,342.504c-2.389,1.076-5.033,1.037-7.385-0.12c-0.59-0.29-0.066-1.168,0.522-0.879
							c1.996,0.982,4.324,1.027,6.354,0.113C146.457,341.35,146.971,342.234,146.371,342.504L146.371,342.504z"/>
					</g>
				</g>
			</g>
		</g>
		<g>
			<g>
				<g>
					<path style="fill:#FF8B7B;" d="M111.058,267.995c3.426,23.339-4.594,56.945-8.201,77.142
						c-0.9,5.037-20.396,84.713-20.396,84.713l-7.517-1.285c0,0-4.775-62.225,3.37-83.429c3.762-9.794,3.592-84.713,3.592-84.713
						L111.058,267.995z"/>
				</g>
			</g>
			<g>
				<g>
					<g>
						<path d="M116.193,254.568l-5.481,55.183c0,0-26.387-2.129-32.942-3.662c0,0-1.553-36.086,4.635-51.521
							C88.593,239.133,116.193,254.568,116.193,254.568z"/>
					</g>
				</g>
				<g>
					<g>
						<g>
							<path style="fill:#407BFF;" d="M87.033,256.277c-1.407,11.795-2.193,23.662-2.338,35.54
								c-0.041,3.362-0.029,6.723,0.03,10.085c0.006,0.329-0.505,0.329-0.511,0c-0.209-11.877,0.206-23.762,1.261-35.595
								c0.299-3.348,0.649-6.692,1.048-10.03C86.56,255.954,87.072,255.951,87.033,256.277L87.033,256.277z"/>
						</g>
					</g>
				</g>
				<g>
					<g>
						<polygon style="fill:#407BFF;" points="112.003,303.695 111.324,310.281 76.753,307.016 76.677,300.521 						"/>
					</g>
				</g>
			</g>
			<g>
				<g>
					<g style="opacity:0.2;">
						<path d="M103.188,341.974c-2.381,1.094-5.025,1.074-7.386-0.066c-0.592-0.286-0.075-1.168,0.516-0.883
							c2.003,0.967,4.331,0.995,6.354,0.066C103.265,340.819,103.785,341.699,103.188,341.974L103.188,341.974z"/>
					</g>
				</g>
			</g>
		</g>
		<g>
			<g>
				<g>
					<path style="fill:#407BFF;" d="M91.927,229.28c0,0-0.524,8.038-1.179,14.44c0,0,19.301,11.572,38.601-3.459l-3.812-10.725
						L91.927,229.28z"/>
				</g>
			</g>
		</g>
		<g>
			<g>
				<g>
					<g>
						<path style="fill:#407BFF;" d="M101.508,235.655c-5.893,0.117-10.563-0.656-10.759-2.898
							c-0.284-3.309-1.625-7.421-3.368-11.757c-0.431-1.067-0.881-2.144-1.351-3.231c-0.725-1.694-1.498-3.407-2.261-5.091
							c-4.356-9.613-8.135-15.507-4.601-20.793c3.24-4.836,18.669-12.276,18.669-12.276l10.563,0.577c0,0,2.888,0.93,6.236,2.398
							c3.975,1.743,8.595,4.249,9.701,6.823c2.369,5.521-1.439,14.694-0.186,29.163c0.303,3.465,0.891,7.244,1.938,11.346
							C126.707,232.365,112.13,235.449,101.508,235.655z"/>
					</g>
				</g>
			</g>
			<g style="opacity:0.2;">
				<path d="M93.441,211.367l-6.05,9.643l-0.01-0.01c-0.431-1.067-0.881-2.144-1.351-3.231L93.441,211.367z"/>
			</g>
			<g>
				<path style="fill:#407BFF;" d="M124.337,189.41c0,0,8.174,25.279,14.285,26.127c0,0,8.707-2.964,13.147-5.215
					c6.075-3.079,7.066-3.13,11.203,1.211c4.137,4.341,5.144,7.023,2.869,11.161c-2.276,4.137-25.814,15.997-32.02,15.823
					c-6.206-0.174-14.891-16.203-14.891-16.203L124.337,189.41z"/>
			</g>
			<g>
				<g>
					<g>
						<g>
							<g>
								<g>
									<path style="fill:#FF8B7B;" d="M158.917,211.715c0,0-0.131-3.03,1.585-4.859c1.716-1.829,2.6-3.745,3.97-5.017
										c1.37-1.271,1.092,1.236,0.675,2.54c-0.418,1.304-0.878,2.786,0.152,2.941c1.03,0.155,9.38-3.093,10.783-2.715
										c1.404,0.378,0.217,1.326,0.217,1.326s1.878-0.714,2.561-0.002c0.684,0.712-0.361,1.516-0.361,1.516s1.277-0.436,1.481,0.5
										c0.204,0.936-6.098,4.611-6.294,4.93c0,0,3.091-2.807,4.092-2.083c1.001,0.723-1.176,2.369-2.885,3.719
										c-1.709,1.349-3.946,2.231-6.169,2.155c-2.222-0.076-5.991,0.963-7.527-1.097
										C159.664,213.508,158.917,211.715,158.917,211.715z"/>
								</g>
							</g>
						</g>
					</g>
					<g style="opacity:0.2;">
						<g>
							<g>
								<g>
									<g>
										<path d="M178.303,207.74c-2.14,0.83-4.25,1.73-6.31,2.7c0.24,0.55,0.43,1.11,0.59,1.69c0.07,0.29-0.39,0.29-0.47,0.01
											c-0.47-1.75-1.35-3.4-2.59-4.88c-0.2-0.24,0.16-0.46,0.36-0.22c0.31,0.37,0.59,0.74,0.85,1.13
											c0.01-0.04,0.04-0.07,0.08-0.09c1.55-0.88,3.21-1.57,4.98-2.07c0.27-0.07,0.47,0.35,0.19,0.43
											c-1.73,0.49-3.36,1.16-4.87,2.02c-0.06,0.03-0.12,0.03-0.18,0.01c0.33,0.5,0.62,1.02,0.87,1.55
											c2.06-0.97,4.16-1.87,6.31-2.7C178.373,207.22,178.563,207.64,178.303,207.74z"/>
									</g>
								</g>
							</g>
						</g>
					</g>
					<g style="opacity:0.2;">
						<g>
							<g>
								<g>
									<g>
										<path d="M169.24,210.07c-2.7-0.38-5,0.79-5.99,2.99c-0.11,0.25-0.55,0.04-0.44-0.21c1.07-2.39,3.56-3.61,6.47-3.21
											C169.58,209.69,169.53,210.11,169.24,210.07z"/>
									</g>
								</g>
							</g>
						</g>
					</g>
				</g>
			</g>
			<g>
				<g>
					<g>
						<g>
							<path style="fill:#407BFF;" d="M81.886,189.411c0,0-22.05,16.316-25.463,24.288c-3.413,7.972,12.56,31.811,21.174,34.009
								c8.614,2.198,15.698-10.002,11.225-15.227c-4.473-5.225-8.812-10.786-8.812-10.786s9.547-5.894,10.748-7.996
								C94.991,206.292,86.017,186.127,81.886,189.411z"/>
						</g>
						<g style="opacity:0.2;">
							<g>
								<path d="M164.615,222.827c-6.771-0.15-11.891-6.082-11.132-12.796c0.046-0.403-0.586-0.4-0.632,0
									c-0.799,7.06,4.679,13.271,11.763,13.428C165.022,223.467,165.022,222.836,164.615,222.827z"/>
							</g>
							<g>
								<path d="M128.436,235.117c-0.297,0.279,0.15,0.724,0.447,0.446c3.118-2.924,8.041-2.329,10.358,1.264
									c0.219,0.34,0.766,0.024,0.545-0.319C137.244,232.568,131.858,231.908,128.436,235.117z"/>
							</g>
							<g>
								<path d="M129.018,205.8c-2.105-4.003-3.242-8.421-3.335-12.942c-0.007-0.329-0.518-0.329-0.511,0
									c0.094,4.61,1.258,9.119,3.405,13.2C128.73,206.35,129.171,206.091,129.018,205.8z"/>
							</g>
							<g>
								<path d="M115.27,195.634c0.315-0.095,0.18-0.588-0.136-0.493c-5.556,1.679-11.659,0.827-16.545-2.307
									c-0.278-0.178-0.534,0.264-0.258,0.441C103.325,196.479,109.592,197.35,115.27,195.634z"/>
							</g>
							<g>
								<path d="M123.815,220.352c-6.545,2.439-13.705,2.84-20.479,1.131c-0.332-0.084-0.472,0.428-0.141,0.511
									c6.859,1.731,14.131,1.34,20.761-1.131C124.273,220.744,124.135,220.232,123.815,220.352z"/>
							</g>
							<g>
								<path d="M87.269,230.438c-3.949-1.182-8.417-0.19-11.408,2.681c-2.99,2.87-4.133,7.318-3.106,11.3
									c0.101,0.393,0.711,0.227,0.609-0.168c-0.973-3.772,0.117-7.965,2.944-10.685c2.828-2.721,7.064-3.635,10.793-2.519
									C87.491,231.163,87.658,230.554,87.269,230.438z"/>
							</g>
							<g>
								<path d="M59.095,209.845c2.189,3.729,1.273,8.434-2.212,11.012c-0.323,0.239-0.008,0.787,0.319,0.545
									c3.761-2.782,4.814-7.829,2.438-11.876C59.435,209.176,58.889,209.493,59.095,209.845z"/>
							</g>
						</g>
					</g>
				</g>
			</g>
			<g>
				<g>
					<g>
						<path style="fill:#407BFF;" d="M124.336,195.49c0,0-0.544,3.788,3.882,8.902c5.346,6.178-2.608,12.927-4.334,14.876
							C122.159,221.217,124.336,195.49,124.336,195.49z"/>
					</g>
				</g>
			</g>
			<g>
				<g>
					<g>
						<path d="M115.107,182.635c0,0,3.193,14.26,2.647,16.561c-0.434,1.827-15.866,3.15-17.757,1.159
							c-1.942-2.044-6.774-18.584-6.774-18.584s-4.169,0-7.227,4.272c1.481-1.521,9.489,20.162,7.227,35.652
							c-1.102,7.544-5.575,21.524-5.575,21.524c14.017,0.157,27.62-1.804,40.813-5.87c0,0-3.348-7.269-3.528-11.863
							c-0.18-4.594-1.575-1.911,1.173-6.549c2.748-4.638,7.062-7.425,2.774-13.681c-4.288-6.256-8.431-11.104-8.149-19.781
							C119.173,183.883,117.437,183.055,115.107,182.635z"/>
					</g>
				</g>
				<g>
					<g>
						<g>
							<path style="fill:#407BFF;" d="M95.398,189.507c-2.199-0.244-4.332,0.528-5.855,2.135c-0.227,0.239-0.588-0.123-0.361-0.362
								c1.606-1.695,3.894-2.542,6.217-2.285C95.721,189.032,95.725,189.543,95.398,189.507L95.398,189.507z"/>
						</g>
					</g>
				</g>
				<g>
					<g>
						<g>
							<path style="fill:#407BFF;" d="M120.781,189.328c-1.351-0.486-2.726-0.463-4.061,0.064c-0.306,0.121-0.439-0.373-0.136-0.493
								c1.41-0.557,2.907-0.577,4.333-0.064C121.224,188.945,121.091,189.439,120.781,189.328L120.781,189.328z"/>
						</g>
					</g>
				</g>
				<g>
					<g>
						<g>
							<g>
								<path style="fill:#407BFF;" d="M124.17,207.467c-7.992,2.16-16.32,2.876-24.563,2.104c-0.325-0.03-0.328-0.542,0-0.511
									c8.2,0.767,16.476,0.063,24.427-2.086C124.352,206.888,124.487,207.381,124.17,207.467L124.17,207.467z"/>
							</g>
						</g>
					</g>
					<g>
						<g>
							<g>
								<path style="fill:#407BFF;" d="M99.724,209.388c-0.36,3.688-0.4,7.401-0.092,11.094c0.076,0.91,0.168,1.821,0.291,2.726
									c0.121,0.893,0.272,1.902,1.065,2.457c0.717,0.501,1.668,0.498,2.509,0.549c0.945,0.057,1.891,0.095,2.837,0.114
									c3.818,0.078,7.644-0.143,11.426-0.668c1.496-0.208,3.113-0.371,4.489-1.042c1.724-0.84,2.318-2.443,2.405-4.273
									c0.202-4.247-0.228-8.594-0.903-12.781c-0.052-0.322,0.441-0.46,0.493-0.136c0.67,4.158,1.065,8.42,0.932,12.635
									c-0.048,1.504-0.299,3.086-1.444,4.167c-1.041,0.983-2.496,1.371-3.867,1.619c-4.116,0.746-8.349,1.032-12.528,1.004
									c-1.828-0.012-3.885,0.116-5.671-0.336c-1.451-0.367-1.991-1.542-2.202-2.921c-0.716-4.675-0.709-9.509-0.25-14.208
									C99.245,209.064,99.756,209.06,99.724,209.388L99.724,209.388z"/>
							</g>
						</g>
					</g>
				</g>
				<g>
					<g>
						<path style="fill:#407BFF;" d="M95.144,203.575c0,1.152,0.933,2.085,2.085,2.085c1.152,0,2.085-0.934,2.085-2.085
							c0-1.152-0.934-2.085-2.085-2.085C96.077,201.49,95.144,202.423,95.144,203.575z"/>
					</g>
				</g>
				<g>
					<g>
						<path style="fill:#407BFF;" d="M119.482,201.019c0,1.152,0.934,2.085,2.085,2.085c1.152,0,2.085-0.933,2.085-2.085
							c0-1.152-0.933-2.085-2.085-2.085C120.415,198.934,119.482,199.868,119.482,201.019z"/>
					</g>
				</g>
			</g>
		</g>
		<g>
			<g>
				<g>
					<path d="M82.713,262.985c5.534,14.488,45.317,4.788,50.146-0.511c4.828-5.301-5.142-26.806-5.142-26.806
						s-15.112,7.677-34.801,3.56c-0.194-0.041-0.389-0.083-0.585-0.126c-0.524-0.115-1.051-0.238-1.581-0.371
						c0,0-0.281,0.318-0.744,0.897c-0.12,0.15-0.251,0.317-0.395,0.501C86.701,243.875,79.449,254.437,82.713,262.985z"/>
				</g>
			</g>
			<g>
				<g>
					<g>
						<path style="fill:#407BFF;" d="M116.526,248.527c-1.154,13.269-2.308,26.538-3.462,39.807
							c-0.329,3.783-0.658,7.566-0.987,11.349c-0.028,0.325-0.54,0.328-0.511,0c1.154-13.269,2.308-26.538,3.462-39.807
							c0.329-3.783,0.658-7.566,0.987-11.349C116.043,248.202,116.554,248.199,116.526,248.527L116.526,248.527z"/>
					</g>
				</g>
			</g>
			<g>
				<g>
					<g>
						<path style="fill:#407BFF;" d="M115.26,257.516c-1.467,0.68-2.681-0.554-3.086-1.891c-0.658-2.172-0.627-4.655-0.354-6.883
							c0.04-0.322,0.551-0.326,0.511,0c-0.2,1.637-0.219,3.28-0.011,4.917c0.158,1.244,0.681,4.342,2.682,3.415
							C115.299,256.937,115.559,257.378,115.26,257.516L115.26,257.516z"/>
					</g>
				</g>
			</g>
			<g>
				<g>
					<g>
						<g>
							<g>
								<path style="fill:#407BFF;" d="M89.609,240.129c9.369,3.062,19.628,3.177,29.089,0.347c3.046-0.911,5.986-2.137,8.79-3.637
									c0.341-0.183,0.007-0.686-0.333-0.504c-10.469,5.601-22.943,7.01-34.395,4.085c-0.182-0.045-0.364-0.093-0.545-0.142
									c-0.742-0.198-1.479-0.415-2.211-0.651C89.885,239.777,89.753,239.945,89.609,240.129z"/>
							</g>
						</g>
					</g>
				</g>
				<g>
					<g>
						<g>
							<g>
								<path style="fill:#407BFF;" d="M122.461,233.919c0.701,1.253,1.128,2.589,1.287,4.016c0.043,0.384,0.646,0.354,0.602-0.033
									c-0.171-1.532-0.634-2.971-1.386-4.316C122.775,233.248,122.272,233.581,122.461,233.919L122.461,233.919z"/>
							</g>
						</g>
					</g>
				</g>
				<g>
					<g>
						<g>
							<g>
								<path style="fill:#407BFF;" d="M93.433,234.863c-0.694,1.748-1.097,3.55-1.219,5.427c-0.025,0.387,0.578,0.35,0.603-0.034
									c0.114-1.766,0.5-3.473,1.154-5.118C94.113,234.78,93.576,234.502,93.433,234.863L93.433,234.863z"/>
							</g>
						</g>
					</g>
				</g>
				<g>
					<g>
						<g>
							<g>
								<path style="fill:#407BFF;" d="M104.407,236.627c-0.48,1.666-0.634,3.35-0.468,5.075c0.037,0.386,0.64,0.354,0.602-0.033
									c-0.161-1.671-0.009-3.301,0.455-4.914C105.105,236.381,104.514,236.256,104.407,236.627L104.407,236.627z"/>
							</g>
						</g>
					</g>
				</g>
				<g>
					<g>
						<g>
							<path style="fill:#407BFF;" d="M114.133,237.965c0.046,0.823,0.75,1.453,1.573,1.407c0.823-0.046,1.453-0.75,1.407-1.573
								c-0.046-0.823-0.75-1.453-1.573-1.407C114.717,236.438,114.087,237.142,114.133,237.965z"/>
						</g>
					</g>
				</g>
			</g>
			<g>
				<g>
					<g>
						<g>
							<path style="fill:#407BFF;" d="M93.88,245.223c-1.663,4.878-4.415,11.053-10.449,11.165c-0.389,0.007-0.355,0.61,0.033,0.603
								c6.332-0.118,9.255-6.505,11.005-11.639C94.595,244.984,94.004,244.86,93.88,245.223L93.88,245.223z"/>
						</g>
					</g>
				</g>
			</g>
			<g>
				<g>
					<g>
						<g>
							<path style="fill:#407BFF;" d="M123.832,243.564c1.794,3.503,4.956,6.098,8.725,7.214c0.373,0.11,0.498-0.48,0.128-0.59
								c-3.625-1.074-6.629-3.596-8.35-6.957C124.159,242.886,123.657,243.221,123.832,243.564L123.832,243.564z"/>
						</g>
					</g>
				</g>
			</g>
		</g>
		<g>
			<g>
				<g>
					<path style="fill:#407BFF;" d="M71.137,452.505h5.603l1.201-3.091c0,0,4.645,2.792,7.847,3.091s11.099,0.109,11.099,0.109
						s0.499-1.095,0.723-2.364c0.232-1.298,0.178-2.779-0.992-3.451c-2.312-1.329-8.827-3.877-10.872-5.834
						c-2.045-1.957-2.401-7.723-2.401-7.723s2.202-7.971,1.445-8.665c-1.93-1.766-5.603,4.625-6.314,4.625
						c-0.711,0-0.155-3.283-2.568-3.287c-2.412-0.004-1.701,5.004-2.145,7.882c-0.259,1.672-1.103,7.719-1.765,12.491
						C71.519,449.728,71.137,452.505,71.137,452.505z"/>
				</g>
			</g>
			<g>
				<g>
					<g>
						<path style="fill:#FFFFFF;" d="M83.537,435.351c-0.807-0.243-1.581-0.156-2.324,0.241c-0.454,0.243-0.859-0.448-0.404-0.691
							c0.926-0.495,1.929-0.626,2.94-0.322C84.242,434.727,84.032,435.5,83.537,435.351L83.537,435.351z"/>
					</g>
				</g>
			</g>
			<g>
				<g>
					<g>
						<path style="fill:#FFFFFF;" d="M83.773,437.329c-0.83-0.239-1.626-0.129-2.378,0.289c-0.451,0.251-0.855-0.44-0.404-0.691
							c0.934-0.52,1.962-0.667,2.995-0.37C84.48,436.699,84.27,437.471,83.773,437.329L83.773,437.329z"/>
					</g>
				</g>
			</g>
			<g>
				<g>
					<g>
						<path style="fill:#FFFFFF;" d="M84.267,439.294c-0.917-0.314-1.813-0.236-2.667,0.223c-0.454,0.244-0.858-0.446-0.404-0.691
							c1.033-0.556,2.167-0.687,3.283-0.304C84.964,438.688,84.756,439.462,84.267,439.294L84.267,439.294z"/>
					</g>
				</g>
			</g>
			<g>
				<g>
					<path d="M71.137,452.505h5.603l1.201-3.091c0,0,4.645,2.792,7.847,3.091s11.099,0.109,11.099,0.109s0.499-1.095,0.723-2.364
						c-3.683,0.311-10.463,0.714-13.182-0.236c-3.819-1.334-7.021-3.726-7.021-3.726h-5.411
						C71.519,449.728,71.137,452.505,71.137,452.505z"/>
				</g>
			</g>
		</g>
		<g>
			<g>
				<g>
					<path d="M73.371,438.341c2.781,2.014,4.41,5.34,4.265,8.776c-0.011,0.253-0.405,0.254-0.395,0
						c0.139-3.289-1.4-6.502-4.069-8.435C72.968,438.534,73.165,438.191,73.371,438.341L73.371,438.341z"/>
				</g>
			</g>
		</g>
		<g>
			<g>
				<g>
					<path style="fill:#407BFF;" d="M115.566,452.505h5.603l1.201-3.091c0,0,4.645,2.792,7.847,3.091
						c3.202,0.299,11.099,0.109,11.099,0.109s0.499-1.095,0.723-2.364c0.232-1.298,0.177-2.779-0.993-3.451
						c-2.312-1.329-8.827-3.877-10.872-5.834c-2.045-1.957-2.401-7.723-2.401-7.723s2.203-7.971,1.445-8.665
						c-1.931-1.766-5.603,4.625-6.314,4.625c-0.711,0-0.155-3.283-2.568-3.287c-2.412-0.004-1.701,5.004-2.145,7.882
						c-0.259,1.672-1.103,7.719-1.765,12.491C115.948,449.728,115.566,452.505,115.566,452.505z"/>
				</g>
			</g>
			<g>
				<g>
					<g>
						<path style="fill:#FFFFFF;" d="M127.966,435.351c-0.807-0.243-1.581-0.156-2.324,0.241c-0.454,0.243-0.859-0.448-0.404-0.691
							c0.926-0.495,1.929-0.626,2.94-0.322C128.671,434.727,128.461,435.5,127.966,435.351L127.966,435.351z"/>
					</g>
				</g>
			</g>
			<g>
				<g>
					<g>
						<path style="fill:#FFFFFF;" d="M128.203,437.329c-0.83-0.239-1.626-0.129-2.378,0.289c-0.45,0.251-0.855-0.44-0.404-0.691
							c0.934-0.52,1.963-0.667,2.995-0.37C128.91,436.699,128.699,437.471,128.203,437.329L128.203,437.329z"/>
					</g>
				</g>
			</g>
			<g>
				<g>
					<g>
						<path style="fill:#FFFFFF;" d="M128.696,439.294c-0.917-0.314-1.813-0.236-2.667,0.223c-0.453,0.244-0.858-0.446-0.404-0.691
							c1.033-0.556,2.167-0.687,3.283-0.304C129.394,438.688,129.186,439.462,128.696,439.294L128.696,439.294z"/>
					</g>
				</g>
			</g>
			<g>
				<g>
					<path d="M115.566,452.505h5.603l1.201-3.091c0,0,4.645,2.792,7.847,3.091c3.202,0.299,11.099,0.109,11.099,0.109
						s0.499-1.095,0.723-2.364c-3.683,0.311-10.463,0.714-13.182-0.236c-3.819-1.334-7.021-3.726-7.021-3.726h-5.411
						C115.948,449.728,115.566,452.505,115.566,452.505z"/>
				</g>
			</g>
		</g>
		<g>
			<g>
				<g>
					<path d="M117.8,438.341c2.781,2.014,4.41,5.34,4.265,8.776c-0.011,0.253-0.405,0.254-0.395,0
						c0.139-3.289-1.4-6.502-4.069-8.435C117.397,438.534,117.594,438.191,117.8,438.341L117.8,438.341z"/>
				</g>
			</g>
		</g>
		<g>
			<g>
				<path style="fill:#FF8B7B;" d="M97.831,180.288c0,0,3.696,2.204,7.248,5.265c0.74,0.638,1.555,1.189,2.418,1.648
					c2.328,1.237,4.451,1.944,5.025,0.822c0.128-0.247,0.226-0.514,0.299-0.794c0.488-1.88-0.208-3.93-1.728-5.139
					c-1.713-1.363-2.043-3.122-1.734-4.968c0.162-1.046,0.541-2.127,0.983-3.176l-1.348-1.576l-7.05-7.115
					C102.121,170.005,101.544,177.709,97.831,180.288z"/>
			</g>
			<g style="opacity:0.2;">
				<path d="M109.36,177.121c0.162-1.046,0.541-2.127,0.983-3.176l-1.348-1.576l-3.86,0.536
					C105.135,172.905,106.511,175.912,109.36,177.121z"/>
			</g>
			<g>
				<path style="fill:#FF8B7B;" d="M99.849,156.994c0.278,7.808,0.232,11.118,3.995,15.214c5.66,6.161,15.005,4.096,17.02-3.641
					c1.814-6.965,1.054-18.562-6.353-21.848C107.213,143.482,99.571,149.186,99.849,156.994"/>
			</g>
			<g>
				<path d="M121.199,156.526c0,0,4.788-5.937-4.757-10.416c0,0-7.322-5.909-15.058-0.702c-7.737,5.207-7.247,15.374,0.1,23.416
					c0,0-1.411-7.7,1.305-10.093c2.716-2.393,5.713-4.521,4.258-6.841c0,0,2.258,0.871,2.42,3.019l3.971-1.085
					c0,0-0.173-1.536-1.223-3.071c0,0,2.058,1.212,2.727,2.991l3.436,0.647c0,0-0.504-3.152-1.474-4.284
					C116.902,150.107,120.76,153.081,121.199,156.526z"/>
			</g>
			<g>
				<path style="fill:#FFFFFF;" d="M117.421,167.047c0,0-3.966-1.269-4.983-2.814c0,0-0.214,2.999,1.885,3.853
					C116.422,168.939,117.421,167.047,117.421,167.047z"/>
			</g>
			<g>
				<path d="M113.438,158.897c-0.016,0.635,0.308,1.158,0.723,1.168c0.415,0.01,0.764-0.496,0.779-1.131
					c0.016-0.635-0.308-1.158-0.723-1.168C113.802,157.756,113.453,158.263,113.438,158.897"/>
			</g>
			<g>
				<path d="M119.834,159.227c-0.016,0.635,0.308,1.158,0.723,1.168c0.415,0.01,0.764-0.496,0.779-1.131
					c0.016-0.635-0.308-1.158-0.723-1.168C120.198,158.086,119.849,158.592,119.834,159.227"/>
			</g>
			<g>
				<path d="M120.429,158.127l1.535-0.402C121.965,157.725,121.153,158.896,120.429,158.127"/>
			</g>
			<g>
				<path style="fill:#FF5652;" d="M117.1,159.412c0,0,1.053,1.709,2.204,3.198c0.374,0.484,0.219,1.196-0.339,1.451
					c-0.958,0.439-1.989,0.623-1.989,0.623L117.1,159.412z"/>
			</g>
			<g>
				<path style="fill:#FF8B7B;" d="M96.944,162.325c0.661,1.509,1.859,2.476,3.003,2.827c1.721,0.526,2.628-1.352,2.189-3.294
					c-0.396-1.747-1.767-4.126-3.513-3.791C96.903,158.396,96.189,160.599,96.944,162.325"/>
			</g>
			<g>
				<g>
					<path style="fill:#FFFFFF;" d="M102.526,163.564c-0.005,0.081-0.017,0.161-0.033,0.24c1.811,0.515,3.022,2.288,2.757,4.204
						c-0.291,2.097-2.233,3.566-4.33,3.275c-2.097-0.291-3.566-2.234-3.275-4.331c0.188-1.353,1.068-2.437,2.229-2.962
						c-0.032-0.074-0.059-0.15-0.079-0.228c-1.245,0.556-2.19,1.711-2.391,3.158c-0.309,2.23,1.252,4.295,3.482,4.604
						c2.229,0.309,4.294-1.253,4.604-3.482C105.774,165.993,104.469,164.1,102.526,163.564z"/>
				</g>
			</g>
			<g>
				<path d="M111.443,157.477c0.094-0.027,0.178-0.093,0.227-0.187c0.762-1.479,2.125-1.634,2.141-1.636
					c0.202-0.022,0.354-0.204,0.333-0.409c-0.021-0.205-0.204-0.353-0.409-0.333c-0.072,0.008-1.783,0.202-2.728,2.037
					c-0.094,0.183-0.022,0.407,0.161,0.502C111.257,157.496,111.354,157.503,111.443,157.477"/>
			</g>
			<g>
				<path d="M122.079,156.527c0.093-0.003,0.184-0.039,0.255-0.111c0.144-0.146,0.142-0.383-0.004-0.528
					c-1.469-1.448-3.155-1.1-3.227-1.085c-0.201,0.044-0.329,0.243-0.285,0.444c0.044,0.201,0.242,0.328,0.443,0.285
					c0.066-0.014,1.378-0.265,2.545,0.887C121.882,156.494,121.981,156.53,122.079,156.527"/>
			</g>
			<g>
				<path d="M114.033,157.797l1.535-0.402C115.568,157.395,114.757,158.567,114.033,157.797"/>
			</g>
		</g>
		<g>
			<g>
				<path style="fill:#407BFF;" d="M108.341,143.266c-1.756,0.058-3.385,0.33-4.888,0.727h-0.01
					c-0.475,0.126-0.941,0.272-1.387,0.427c-1.688,0.563-3.181,1.28-4.423,1.998c-0.475,0.272-0.912,0.543-1.319,0.805
					c-1.872,1.232-2.919,2.26-2.919,2.26l-0.136-2.279c-0.01-0.01,0-0.019,0-0.019l-0.184-2.861v-0.01l-0.446-7.313l-0.126-1.94
					l-0.456-7.459l3.278,3.152l0.728,0.698l2.502,2.405l0.718,0.698l2.502,2.396l0.718,0.698l2.502,2.405l0.727,0.689
					L108.341,143.266z"/>
			</g>
			<g>
				<path style="fill:#407BFF;" d="M101.649,160.208c-3.898-5.593-1.792-15.426-1.7-15.842l0.488,0.107
					c-0.022,0.1-2.151,10.036,1.622,15.448L101.649,160.208z"/>
			</g>
			<g style="opacity:0.5;">
				<g>
					<g>
						<path d="M96.052,131.453c-1.086,1.377-2.299,3.201-3.424,5.548l-0.126-1.94c0.951-1.756,1.93-3.181,2.822-4.306
							L96.052,131.453z"/>
					</g>
				</g>
				<g>
					<g>
						<path d="M99.272,134.557c-2.018,2.522-4.481,6.595-6.014,12.628l-0.184-2.861v-0.01c1.581-4.85,3.695-8.234,5.48-10.456
							L99.272,134.557z"/>
					</g>
				</g>
				<g>
					<g>
						<path d="M102.492,137.65c-1.552,1.93-3.385,4.791-4.859,8.768c-0.475,0.272-0.912,0.543-1.319,0.805
							c1.581-4.772,3.695-8.099,5.461-10.271L102.492,137.65z"/>
					</g>
				</g>
				<g>
					<g>
						<path d="M105.722,140.745c-0.718,0.873-1.494,1.949-2.27,3.249h-0.01c-0.475,0.126-0.941,0.272-1.387,0.427
							c0.999-1.804,2.017-3.24,2.939-4.365L105.722,140.745z"/>
					</g>
				</g>
			</g>
			<g>
				<circle style="fill:#407BFF;" cx="92.043" cy="127.745" r="3.118"/>
			</g>
			<g style="opacity:0.2;">
				<circle cx="92.043" cy="127.745" r="3.118"/>
			</g>
		</g>
		<path style="fill:#FF8B7B;" d="M87.49,235.666c0,0,6.185,3.459,6.997,4.896c0.813,1.437-6.764,7.687-9.425,8.312
			s-0.902-2.186-0.902-2.186s-3.348,0.249-4.473-2.439S81.389,235.133,87.49,235.666z"/>
	</g>
</g>
<g id="Confetti">
	<g>
		<g>
			<g>
				<path style="fill:#407BFF;" d="M445.448,221.335c0,0-0.419,4.534,4.43,6.737l1.629-2.785c0,0-3.776-1.951-3.733-6.531
					L445.448,221.335z"/>
			</g>
			<g style="opacity:0.3;">
				<path style="fill:#FFFFFF;" d="M445.448,221.335c0,0-0.419,4.534,4.43,6.737l1.629-2.785c0,0-3.776-1.951-3.733-6.531
					L445.448,221.335z"/>
			</g>
		</g>
		<g>
			<g>
				<path style="fill:#407BFF;" d="M157.387,125.168c0,0-0.146,4.551-5.232,6.135l-1.271-2.966c0,0,3.988-1.467,4.515-6.017
					L157.387,125.168z"/>
			</g>
			<g style="opacity:0.3;">
				<path style="fill:#FFFFFF;" d="M157.387,125.168c0,0-0.146,4.551-5.232,6.135l-1.271-2.966c0,0,3.988-1.467,4.515-6.017
					L157.387,125.168z"/>
			</g>
		</g>
		<g>
			<g>
				<path style="fill:#407BFF;" d="M222.624,221.63c0,0,0.033,4.553-4.986,6.337l-1.387-2.913c0,0,3.927-1.623,4.274-6.191
					L222.624,221.63z"/>
			</g>
			<g style="opacity:0.5;">
				<path style="fill:#FFFFFF;" d="M222.624,221.63c0,0,0.033,4.553-4.986,6.337l-1.387-2.913c0,0,3.927-1.623,4.274-6.191
					L222.624,221.63z"/>
			</g>
		</g>
		<g>
			<g>
				<path style="fill:#407BFF;" d="M348.874,153.311c0,0,1.35,4.349-2.939,7.508l-2.171-2.387c0,0,3.29-2.691,2.299-7.163
					L348.874,153.311z"/>
			</g>
			<g style="opacity:0.5;">
				<path style="fill:#FFFFFF;" d="M348.874,153.311c0,0,1.35,4.349-2.939,7.508l-2.171-2.387c0,0,3.29-2.691,2.299-7.163
					L348.874,153.311z"/>
			</g>
		</g>
		<g>
			<g>
				<path style="fill:#407BFF;" d="M36.668,263.343c0,0,0.339,4.54,5.487,5.907l1.144-3.017c0,0-4.047-1.296-4.766-5.82
					L36.668,263.343z"/>
			</g>
			<g style="opacity:0.8;">
				<path style="fill:#FFFFFF;" d="M36.668,263.343c0,0,0.339,4.54,5.487,5.907l1.144-3.017c0,0-4.047-1.296-4.766-5.82
					L36.668,263.343z"/>
			</g>
		</g>
		<g>
			<g>
				<path style="fill:#407BFF;" d="M223.79,115.843c0,0,0.339,4.54,5.487,5.907l1.144-3.017c0,0-4.047-1.296-4.766-5.82
					L223.79,115.843z"/>
			</g>
			<g style="opacity:0.8;">
				<path style="fill:#FFFFFF;" d="M223.79,115.843c0,0,0.339,4.54,5.487,5.907l1.144-3.017c0,0-4.047-1.296-4.766-5.82
					L223.79,115.843z"/>
			</g>
		</g>
		<g>
			<g>
				<path style="fill:#407BFF;" d="M441.717,101.27c0,0-1.355,4.347-6.679,4.516l-0.434-3.197c0,0,4.235-0.349,5.957-4.594
					L441.717,101.27z"/>
			</g>
			<g style="opacity:0.8;">
				<path style="fill:#FFFFFF;" d="M441.717,101.27c0,0-1.355,4.347-6.679,4.516l-0.434-3.197c0,0,4.235-0.349,5.957-4.594
					L441.717,101.27z"/>
			</g>
		</g>
		<g>
			<g>
				<path style="fill:#407BFF;" d="M148.888,256.245c0,0,0.594,4.514-4.168,6.902l-1.735-2.72c0,0,3.698-2.094,3.479-6.67
					L148.888,256.245z"/>
			</g>
			<g style="opacity:0.8;">
				<path style="fill:#FFFFFF;" d="M148.888,256.245c0,0,0.594,4.514-4.168,6.902l-1.735-2.72c0,0,3.698-2.094,3.479-6.67
					L148.888,256.245z"/>
			</g>
		</g>
	</g>
</g>
</svg>
