<svg width="2345" height="1624" viewBox="0 0 2345 1624" fill="none" xmlns="http://www.w3.org/2000/svg">
<path d="M964.419 460.969C1069.51 355.882 1094.1 210.096 1019.35 135.346C944.601 60.5966 798.814 85.1899 693.727 190.277C588.64 295.364 564.047 441.151 638.796 515.9C713.546 590.65 859.332 566.056 964.419 460.969Z" fill="url(#paint0_linear_18_1212)"/>
<path d="M486.13 422.061C522.726 458.657 533.288 507.429 509.72 530.997C486.153 554.564 437.381 544.003 400.784 507.407C364.188 470.811 353.627 422.039 377.194 398.471C400.762 374.903 449.534 385.465 486.13 422.061Z" fill="url(#paint1_linear_18_1212)"/>
<path d="M143.766 1622.26C143.766 1622.26 -144.266 1261.66 95.0559 871.258C307.398 524.867 554.968 548.546 736.605 689.113C813.967 748.982 1035.5 695.382 1226.85 344.026C1499.47 -156.574 2383.57 154.247 2219.51 894.402C2140.19 1252.24 2460.49 1265.29 2297.35 1623.02L143.766 1622.26Z" fill="url(#paint2_linear_18_1212)"/>
<path d="M2067.75 1623.3C2065.48 1623.3 2063.55 1621.45 2063.16 1618.94L2040.67 1471.07L2008.32 1258.42L1999.28 1198.96L2022.32 1198.19L2026.32 1232.71L2054.38 1475.3L2071.02 1619.09C2071.28 1621.32 2069.74 1623.3 2067.75 1623.3Z" fill="#6F36BB"/>
<path d="M1831.99 1198.96L1821.74 1266.35V1266.36L1793.42 1452.52L1768.1 1618.94C1767.72 1621.45 1765.79 1623.3 1763.52 1623.3C1761.53 1623.3 1759.98 1621.32 1760.25 1619.09L1782.08 1430.43L1805.43 1228.64L1808.95 1198.19L1831.99 1198.96Z" fill="#6F36BB"/>
<path d="M1821.74 1266.35C1823.08 1237.39 1805.42 1228.64 1805.42 1228.64L1808.95 1198.19L1831.99 1198.96L1821.74 1266.35Z" fill="#522B73"/>
<path d="M2026.32 1232.71C2011.39 1240.35 2008.32 1258.42 2008.32 1258.42L1999.28 1198.96L2022.32 1198.19L2026.32 1232.71Z" fill="#522B73"/>
<path d="M2092.3 1198.95H1738.97C1734.29 1198.95 1730.47 1195.13 1730.47 1190.46V1184.1C1730.47 1179.43 1734.29 1175.61 1738.97 1175.61H2092.3C2096.98 1175.61 2100.8 1179.43 2100.8 1184.1V1190.45C2100.8 1195.13 2096.97 1198.95 2092.3 1198.95Z" fill="#6F36BB"/>
<path d="M521.071 1026.75C521.071 1026.75 633.91 1054.09 601.405 1170.12C601.405 1170.12 490.838 1138.03 521.071 1026.75Z" fill="#6F36BB"/>
<path d="M530.403 1125.78C534.038 1123.21 542.279 1117.57 542.708 1118.82C543.016 1119.73 542.577 1121.27 541.587 1122.87C546.572 1121 551.635 1119.78 563.604 1122.08C566.001 1122.54 568.175 1123.9 569.494 1125.96C570.713 1127.86 571.169 1130.23 568.116 1132.13C562.008 1135.93 563.777 1133.66 555.29 1139.19C546.801 1144.72 536.407 1146.13 530.197 1142.25L521.864 1140.86L520.83 1127.15C520.83 1127.15 525.579 1126.58 530.403 1125.78Z" fill="#FFB27D"/>
<path d="M309.293 1007.19C309.293 1007.19 331.677 1034.12 356.696 1024.37C356.696 1024.37 362.079 1011.35 362.156 1001.76C362.164 1000.57 362.178 999.432 362.197 998.344C362.33 987.539 362.695 981.475 362.695 981.475C362.695 981.475 362.688 981.473 362.671 981.47C361.532 980.996 324.425 965.761 324.456 967.027C325.092 996.25 309.293 1007.19 309.293 1007.19Z" fill="#FFB27D"/>
<path d="M328.181 973.995C331.76 980.627 344.038 993.603 362.198 998.344C362.331 987.539 362.696 981.475 362.696 981.475C362.696 981.475 362.689 981.473 362.672 981.47C361.642 981.194 327.116 972.039 328.181 973.995Z" fill="#ED975D"/>
<path d="M370.466 980.352C370.466 980.352 328.736 990.164 323.026 964.081C317.316 938 308.084 921.701 334.486 914.334C360.889 906.967 368.262 915.782 372.286 924.025C376.309 932.267 381.175 977.129 370.466 980.352Z" fill="#FFB27D"/>
<path d="M324.452 971.188C323.883 971.552 314.904 974.311 297.9 940.436C295.23 935.117 293.411 923.613 299.633 913.45C305.856 903.285 327.919 895.293 346.251 891.815C364.583 888.336 368.982 898.651 373.3 909.018C377.831 919.899 390.92 928.86 390.92 928.86C375.111 937.689 356.071 925.06 349.475 927.136C342.879 929.214 340.55 939.608 340.055 942.941C339.56 946.274 338.801 949.043 330.506 946.067C322.211 943.09 326.756 957.82 328.083 960.637C328.083 960.637 329.211 968.141 324.452 971.188Z" fill="#522878"/>
<path d="M216.953 1621.61H191.685C186.387 1621.61 180.501 1616.31 179.028 1606.6C177.554 1596.88 166.666 1591.58 164.308 1583.63C161.951 1575.68 174.026 1564.49 174.026 1564.49L176.044 1561.9L178.143 1559.2L198.16 1563.9C198.16 1563.9 198.653 1568.67 198.963 1574.74C199.176 1579.12 199.294 1584.19 199.044 1588.63C198.454 1599.24 202.012 1610.65 211.427 1612.71C220.851 1614.77 216.953 1621.61 216.953 1621.61Z" fill="#462160"/>
<path d="M392.862 1621.61H325.883C325.241 1621.48 324.755 1621.34 324.461 1621.2C319.989 1618.96 321.388 1601.84 321.927 1596.55C322.031 1595.57 322.103 1594.99 322.103 1594.99C322.103 1594.99 345.656 1576.16 348.898 1590.58C349.001 1591.03 349.118 1591.47 349.244 1591.91V1591.91C353.332 1605.41 371.611 1611.54 382.168 1613.25C390.232 1614.56 392.324 1619.26 392.862 1621.61Z" fill="#462160"/>
<path d="M379.362 1235.36C379.362 1235.36 375.784 1279.98 371.581 1333.63C365.866 1406.5 358.995 1496.01 358.315 1512.97C357.14 1542.42 352.424 1589.52 352.424 1589.52C352.424 1589.52 341.242 1600.71 318.862 1595.99C318.862 1595.99 298.919 1528.75 293.222 1457.61C293.134 1456.45 293.045 1455.27 292.957 1454.1C287.658 1381.67 279.417 1229.17 279.417 1229.17L379.362 1235.36Z" fill="#522B73"/>
<path d="M379.362 1235.36C379.362 1235.36 375.784 1279.98 371.581 1333.63L293.223 1457.61C293.135 1456.45 293.046 1455.27 292.958 1454.1C287.659 1381.67 279.418 1229.17 279.418 1229.17L379.362 1235.36Z" fill="#462160"/>
<path d="M363.026 1240.66C363.026 1240.66 298.554 1402.28 256.16 1478.24C213.767 1554.19 200.518 1575.39 200.518 1575.39C200.518 1575.39 176.23 1565.67 174.021 1559.05C174.021 1559.05 190.233 1412.41 218.623 1376.67C234.665 1356.47 253.51 1295.85 254.394 1274.66C255.277 1253.46 260.134 1211.51 260.134 1211.51L363.026 1240.66Z" fill="#522B73"/>
<path d="M215.993 1211.29L215.311 1221.69C215.311 1221.69 222.167 1240.15 202.959 1249.62C202.959 1249.62 194.737 1252.94 194.403 1246.54C194.07 1240.14 195.122 1242.55 194.454 1233.53C193.786 1224.52 197.329 1216 203.291 1213.13L208.183 1207.49L215.993 1211.29Z" fill="#FFB27D"/>
<path d="M208.491 1218.86C215.628 1221.15 216.771 1220.63 216.771 1220.63C216.771 1220.63 251.505 1157.39 255.023 1151.61C258.541 1145.82 328.77 1080.69 328.77 1080.69L310.722 1013.39C310.722 1013.39 230.846 1116.83 222.221 1131.67C207.967 1156.2 199.616 1213.16 199.616 1213.16C199.616 1213.16 202.887 1217.06 208.491 1218.86Z" fill="white"/>
<path d="M392.972 1107.12C392.722 1120.94 391.919 1136.47 390.836 1152.25C390.771 1153.19 390.703 1154.12 390.637 1155.06C389.944 1164.84 389.193 1174.63 388.331 1184.19C387.985 1188.02 387.616 1191.81 387.232 1195.53L387.173 1196.03C387.144 1197.42 386.974 1198.93 386.819 1200.31C383.298 1236.1 379.607 1264.37 378.922 1264.81C378.104 1265.35 377.183 1265.62 376.174 1265.51C366.788 1264.33 338.786 1266.46 315.861 1261.47C296.515 1257.39 279.859 1249.65 262.208 1239.22C259.865 1237.84 254.524 1234.17 254.958 1231.43C255.386 1228.41 256.174 1224.06 257.176 1218.59C260.654 1199.55 266.658 1166.8 268.706 1128.48C269.103 1121.34 269.685 1114.29 270.437 1107.36C272.404 1089.3 275.557 1072.15 279.786 1056.92C287.646 1028.62 300.666 1007.39 315.156 998.915C317.049 997.854 325.769 1003.88 335.126 1009.89C343.768 1015.43 351.475 1014.17 360.323 1013.4L369.501 1024.8C378.93 1035.76 388.972 1050.36 391.712 1071.1C391.918 1072.63 392.095 1074.26 392.242 1075.99C393.002 1084.44 393.186 1095.14 392.972 1107.12Z" fill="white"/>
<path d="M392.972 1107.12C392.722 1120.94 391.919 1136.47 390.836 1152.25C390.771 1153.19 390.703 1154.12 390.637 1155.06C337.027 1121.5 328.769 1060.1 328.769 1060.1C355.143 1061.26 376.094 1067.32 392.243 1075.99C393.002 1084.44 393.186 1095.14 392.972 1107.12Z" fill="#C6D2CF"/>
<path d="M528.426 1133.55C528.978 1125.6 524.861 1124.27 524.861 1124.27C524.861 1124.27 444.03 1109.63 437.159 1107.46C430.288 1105.3 371.533 1044.18 371.533 1044.18C371.533 1044.18 349.012 1018.78 330.572 1024.39C314.548 1029.27 308.283 1041.77 306.151 1053.67C303.609 1067.86 310.151 1082.14 322.44 1089.68C350.023 1106.6 405.248 1139.93 418.253 1143.75C447.2 1152.23 524.973 1144.43 524.973 1144.43C524.973 1144.43 527.992 1139.79 528.426 1133.55Z" fill="white"/>
<path d="M1057.55 194.96C1057.49 193.243 1056.16 174.74 1027.98 173.773C1027.98 173.773 1041.84 175.425 1044.23 181.518C1044.23 181.518 1034.8 173.99 1027.11 176.411C1019.43 178.832 1014.91 192.296 1014.87 196.725C1014.82 201.153 1019.09 215.429 1023.97 216.643C1025.82 217.102 1027.94 216.979 1029.88 216.65C1028.58 218.676 1027.31 220.912 1026.09 223.408C1014.84 246.493 1026.44 269.055 1035.96 266.562C1042.07 264.964 1043.8 275.383 1043.8 275.383L1103.12 227.358C1103.12 227.358 1081.33 182.271 1057.55 194.96Z" fill="#522878"/>
<path d="M1078.21 875.061L1065.61 879.753C1065.61 879.753 1010.88 803.845 1004.14 737.06C1002.93 725.136 1003.33 713.583 1005.94 702.916C1005.94 702.916 1005.4 699.86 1004.47 694.459C1004.03 691.938 1003.5 688.903 1002.89 685.427C1001.11 675.232 998.664 661.281 995.867 645.398C989.428 608.848 981.085 562.122 974.603 527.773L977.997 526.681L1014.73 514.83L1022.33 490.718L1049.68 483.516C1049.68 483.516 1055.79 495.47 1061.25 551.937C1062.26 559.344 1063.18 567.512 1063.86 576.37C1065.99 603.404 1066.15 636.941 1061.26 675.282C1060.01 685.097 1058.42 695.23 1056.46 705.64C1055.02 713.273 1054.8 723.673 1055.41 735.617C1058.17 790.215 1078.21 875.061 1078.21 875.061Z" fill="#522B73"/>
<path d="M1063.87 576.372L1004.47 694.46C1004.04 691.939 1003.5 688.904 1002.89 685.428C1001.11 675.233 998.665 661.282 995.868 645.399C989.429 608.849 981.086 562.123 974.604 527.774L977.998 526.682L1014.73 514.831L1022.33 490.719L1049.68 483.517C1049.68 483.517 1055.79 495.471 1061.25 551.938C1062.26 559.346 1063.18 567.514 1063.87 576.372Z" fill="#462160"/>
<path d="M1037.73 498.672L1036.36 486.88C1013.32 492.998 951.77 469.781 951.77 469.781C951.77 469.781 929.454 489.399 932.382 536.424C933.813 559.376 936.425 656.909 939.153 685.771C940.139 696.232 941.004 703.675 941.357 706.648C941.364 706.662 941.364 706.669 941.364 706.677C941.471 707.584 941.154 708.441 940.693 709.233C936.676 716.051 933.35 723.148 930.622 730.413C903.842 801.778 934.748 889.666 934.748 889.666L942.769 886.435C942.769 886.435 960.356 788.626 974.646 745.417C977.073 738.089 979.397 732.328 981.528 728.887C987.741 718.859 993.507 702.474 998.741 682.986C1008.63 646.14 1016.59 598.21 1021.89 561.214C1022.63 561.247 1037.73 498.672 1037.73 498.672Z" fill="#522B73"/>
<path d="M1219.23 483.608C1214.27 487.994 1201.11 472.929 1199.3 470.926C1199.2 470.736 1199.11 470.639 1199.11 470.639L1203.11 459.482C1203.11 459.482 1220.37 458.815 1223.23 461.675C1226.09 464.537 1224.67 478.936 1219.23 483.608Z" fill="#FFB27D"/>
<path d="M1203.11 459.482L1201.4 471.021C1201.4 471.021 1200.63 471.021 1199.3 470.926C1195.1 470.639 1184.9 470.068 1173.36 468.828C1156.01 467.111 1135.41 464.061 1127.21 459.007C1114.71 451.378 1094.21 428.016 1080.86 404.652C1080.48 404.081 1080.2 403.508 1079.91 402.936C1072.95 390.539 1068.09 378.238 1067.7 368.417C1067.42 362.409 1068.09 357.259 1069.32 352.777C1070.95 346.865 1073.62 342.192 1076.38 338.665C1076.76 338.092 1077.14 337.521 1077.72 337.043C1082.29 331.608 1086.78 329.319 1086.78 329.319C1089.06 328.365 1091.55 329.51 1094.12 332.275V332.371C1096.22 334.564 1098.51 337.901 1100.7 342.097C1100.79 342.192 1100.89 342.287 1100.89 342.383C1101.37 343.241 1101.84 344.194 1102.41 345.243C1102.6 345.434 1102.7 345.721 1102.79 345.911C1103.84 348.103 1104.89 350.393 1105.94 352.776C1117.67 378.332 1130.16 417.047 1140.56 428.585C1145.04 433.544 1165.54 443.271 1181.85 450.519C1193.58 455.669 1203.11 459.482 1203.11 459.482Z" fill="#FFB27D"/>
<path d="M1081.75 355.645C1074.51 358.999 1065.78 361.282 1055.21 361.858C1015.61 364.028 1006.62 329.309 1004.98 306.265C1010.69 304.197 1015.69 304.393 1018.57 304.547C1021.38 304.701 1024.31 304.989 1026.73 305.288C1031.58 302.757 1040.28 290.463 1045.31 269.898L1047.02 270.691L1075.59 284.126C1075.59 284.126 1072.56 293.426 1070.32 302.324C1068.57 309.289 1067.31 316.016 1068.36 317.899C1070.62 318.815 1071.96 319.391 1071.96 319.391C1071.96 319.391 1071.96 319.401 1071.97 319.422C1072.26 320.154 1078.47 335.986 1081.75 355.645Z" fill="#FFB27D"/>
<path d="M1075.6 284.133C1075.6 284.133 1072.56 293.424 1070.32 302.331C1053.61 297.67 1048.54 280.111 1047.01 270.698L1075.6 284.133Z" fill="#ED985F"/>
<path d="M1079.11 293.971C1079.11 293.971 1039.15 284.722 1045.29 259.922C1051.43 235.123 1050.41 217.226 1076.19 222.083C1101.97 226.94 1104.56 237.627 1104.52 246.402C1104.48 255.18 1089.67 295.737 1079.11 293.971Z" fill="#FFB27D"/>
<path d="M1106.77 232.324C1102.47 223.335 1097.42 223.814 1094.25 225.407C1075.47 208.032 1057.06 222.227 1057.06 222.227C1049.97 239.354 1034.6 246.352 1034.6 246.352C1034.6 246.352 1040.74 252.639 1058.54 252.501C1063.97 252.459 1069.44 249.962 1074.41 246.523C1064.82 256.184 1053.57 262.065 1053.57 262.065C1075.85 257.803 1090.78 232.014 1092.31 229.275C1094.2 232.062 1097.81 237.993 1098.11 243.003C1098.53 249.811 1096.18 263.03 1100.08 263.531C1100.08 263.531 1113.22 245.805 1106.77 232.324Z" fill="#522878"/>
<path d="M1106.04 352.735C1104.6 348.416 1094.98 331.63 1094.98 331.63C1094.98 331.631 1094.97 331.632 1094.97 331.632C1094.93 331.594 1088.86 326.026 1071.96 319.393C1071.96 319.393 1071.96 319.403 1071.97 319.424C1072.24 320.411 1079.45 346.531 1076.82 352.107C1074.14 357.775 1023.52 339.474 1020.75 335.297C1018.54 331.943 1018.48 314.218 1018.54 307.315C1018.55 305.598 1018.57 304.548 1018.57 304.548C1018.57 304.548 999.674 301.986 989.047 306.286C989.047 306.286 993.243 315.401 994.788 325.452C994.931 326.409 995.054 327.366 995.146 328.322C995.352 330.349 995.415 332.375 995.301 334.351C995.146 336.964 993.799 339.278 991.649 341.541C989.695 343.619 987.041 345.667 984.037 347.858C982.071 349.278 979.962 350.769 977.781 352.384C977.596 364.218 978.431 383.682 976.239 404.448C975.683 409.715 973.934 414.756 971.176 419.22C970.086 421 968.831 422.687 967.433 424.261C956.271 436.781 936.477 461.739 940.829 477.273C941.147 491.92 1064.71 511.169 1062.07 495.079C1062.07 495.079 1080.63 405.589 1090.67 383.986C1091.02 383.193 1091.35 382.422 1091.65 381.63C1094.87 373.104 1094.32 364.335 1093.24 356.488C1098.9 352.465 1106.04 352.735 1106.04 352.735Z" fill="#FFA100"/>
<path d="M1028.8 465.011C1004.43 464.753 983.79 439.447 971.177 419.221C973.935 414.757 975.684 409.716 976.24 404.449C978.432 383.682 977.597 364.22 977.782 352.386V352.385C979.963 350.77 982.072 349.279 984.038 347.859C987.042 345.668 989.696 343.62 991.65 341.542C1011.61 375.273 1061.84 465.36 1028.8 465.011Z" fill="#FF753C"/>
<path d="M981.375 896.216H917.912C917.912 896.216 916.391 886.544 919.706 879.206C922.881 872.165 927.856 868.965 926.665 860.444C930.698 864.597 937.27 869.247 946.446 868.013C947.569 869.834 953.702 879.588 957.457 882.286C961.605 885.266 980.098 884.205 981.375 896.216Z" fill="#462160"/>
<path d="M1117.64 896.216H1054.18C1054.18 896.216 1051.8 886.095 1055.97 879.206C1059.66 873.11 1058.25 869.64 1055.51 864.599C1058.39 865.776 1062.11 866.846 1066.2 866.611C1069.36 866.429 1072.71 864.994 1075.64 863.292C1078.37 866.406 1090.07 879.661 1093.72 882.287C1097.87 885.266 1116.36 884.205 1117.64 896.216Z" fill="#462160"/>
<path d="M1176.52 444.89L1173.82 444.223C1182.64 426.382 1198.46 412.886 1211.47 405.907C1222.86 399.797 1232.3 397.055 1235.69 396.171C1236.51 395.956 1237.39 396.163 1238.04 396.719L1240.55 398.872C1241.79 399.936 1241.34 401.952 1239.76 402.384C1227.68 405.699 1189.84 417.946 1176.52 444.89Z" fill="#FFB93E"/>
<path d="M1129.2 455.773C1137.39 422.563 1156.69 427.322 1180.49 433.192C1204.29 439.062 1223.59 443.821 1215.39 477.033C1209.52 500.834 1185.47 515.369 1161.67 509.499C1137.87 503.628 1123.33 479.574 1129.2 455.773Z" fill="#522B73"/>
<path d="M1149.06 454.633C1141.96 468.894 1142.03 484.848 1147.9 498.396C1138.27 487.816 1133.92 472.777 1137.6 457.841C1143.56 433.659 1155.41 429.6 1170.61 431.469C1162.93 434.173 1155.78 441.105 1149.06 454.633Z" fill="#462160"/>
<path d="M1120.92 478.269L1117.58 490.473C1117.58 490.473 1113.38 489.71 1106.71 488.471C1104.7 488.089 1103.56 487.803 1103.56 487.803C1098.22 486.755 1091.83 485.324 1084.87 483.798H1084.77C1072.85 480.937 1059.51 477.506 1048.25 473.69C1040.34 470.925 1033.47 467.97 1028.8 465.013C1028.32 464.726 1027.94 464.44 1027.46 464.06C1016.31 455.955 1003.05 432.115 992.754 406.559C991.325 403.031 989.989 399.503 988.653 396.07C983.885 383.291 980.072 370.704 977.783 359.834C976.352 353.35 975.399 347.437 975.209 342.573C975.113 340.857 975.018 339.237 975.113 337.71C975.303 310.056 989.035 306.242 989.035 306.242C989.321 306.147 989.607 306.051 989.989 305.957C992.372 305.575 994.852 307.196 997.427 310.343C1000.67 314.252 1004.1 320.641 1007.63 328.364C1013.07 340.666 1018.79 356.59 1024.13 372.42C1027.08 381.097 1029.94 389.776 1032.8 397.785C1034.42 402.648 1036.05 407.225 1037.57 411.421C1040.53 419.43 1043.2 425.915 1045.58 430.016C1047.11 432.685 1051.5 436.405 1057.31 440.599C1067.42 447.943 1082.2 456.811 1095.07 464.059C1100.41 467.109 1105.47 469.876 1109.66 472.164C1116.43 475.884 1120.92 478.269 1120.92 478.269Z" fill="#FFB27D"/>
<path d="M1007.6 328.406C989.24 323.345 975.078 337.679 975.078 337.679C975.308 310.07 989.052 306.29 989.052 306.29C994.581 304.001 1000.99 313.576 1007.6 328.406Z" fill="#FFA100"/>
<path d="M1120.92 478.269C1120.92 478.269 1126.9 478.4 1130.29 476.329C1133.68 474.26 1143.27 471.44 1147.6 471.909C1147.6 471.909 1149.2 472.568 1148.64 474.073C1148.07 475.577 1141.01 476.8 1141.01 479.622C1141.01 479.622 1149.86 479.339 1152.49 478.211C1155.13 477.083 1165.28 479.675 1167.26 480.844C1169.24 482.014 1154.38 490.966 1147.79 494.579C1141.2 498.194 1117.58 490.472 1117.58 490.472L1120.92 478.269Z" fill="#FFB27D"/>
<path d="M1886.76 1414.55V1532.01C1886.76 1537.96 1881.88 1542.83 1875.92 1542.83H588.756C582.793 1542.83 577.918 1537.96 577.918 1532.01V1400.51C577.918 1377.84 582.106 1356.1 589.773 1336.03C590.388 1334.41 591.025 1332.81 591.703 1331.21C594.854 1323.57 598.517 1316.2 602.655 1309.12L602.664 1309.1C634.329 1254.83 693.235 1218.16 760.27 1218.16H1690.35C1747.68 1218.16 1799.47 1243.05 1835.46 1282.57C1845.17 1293.21 1853.71 1304.91 1860.91 1317.47C1860.92 1317.48 1860.92 1317.48 1860.92 1317.48C1863.47 1321.95 1865.86 1326.53 1868.07 1331.21C1880.05 1356.54 1886.76 1384.81 1886.76 1414.55Z" fill="#FF753C"/>
<path d="M1886.76 1414.55V1435.38H577.918V1400.51C577.918 1377.84 582.106 1356.1 589.773 1336.03C590.388 1334.41 591.025 1332.81 591.703 1331.21C594.854 1323.57 598.517 1316.2 602.655 1309.12L602.664 1309.1C634.329 1254.83 693.235 1218.16 760.27 1218.16H1690.35C1747.68 1218.16 1799.47 1243.05 1835.46 1282.57C1845.17 1293.21 1853.71 1304.91 1860.91 1317.47C1860.92 1317.48 1860.92 1317.48 1860.92 1317.48C1863.47 1321.95 1865.86 1326.53 1868.07 1331.21C1880.05 1356.54 1886.76 1384.81 1886.76 1414.55Z" fill="#FFA100"/>
<path d="M1868.07 1331.21H591.703C594.854 1323.57 598.517 1316.2 602.655 1309.12L602.664 1309.1C634.329 1254.83 693.235 1218.16 760.27 1218.16H1690.35C1747.68 1218.16 1799.47 1243.05 1835.46 1282.56C1845.17 1293.21 1853.71 1304.91 1860.91 1317.47C1860.92 1317.48 1860.92 1317.48 1860.92 1317.48C1863.47 1321.95 1865.86 1326.53 1868.07 1331.21Z" fill="#FFDE69"/>
<path d="M1668.28 1053.78V1209.31C1668.28 1214.17 1664.31 1218.16 1659.44 1218.16H805.238C800.373 1218.16 796.389 1214.18 796.389 1209.31V1042.31C796.389 1013.4 804.755 986.343 819.176 963.432C845.565 921.503 892.287 893.482 945.22 893.482H1507.98C1547.6 893.482 1583.99 908.047 1612.04 932.105C1646.42 961.553 1668.28 1005.24 1668.28 1053.78Z" fill="#FF753C"/>
<path d="M1464.14 750.276V891.039C1464.14 894.14 1461.6 896.685 1458.49 896.685H1006.19C1003.08 896.685 1000.54 894.14 1000.54 891.039V742.959C1000.54 690.713 1043.28 647.974 1095.53 647.974H1361.83C1418.1 647.974 1464.14 694.009 1464.14 750.276Z" fill="#FF753C"/>
<path d="M1668.28 1053.78V1127.65H796.389V1042.31C796.389 1025.81 799.119 1009.91 804.151 995.034C807.917 983.856 812.987 973.263 819.176 963.43C845.565 921.501 892.287 893.481 945.22 893.481H1507.98C1547.6 893.481 1583.99 908.046 1612.04 932.104C1631.75 948.989 1647.35 970.554 1657.06 995.034C1664.31 1013.24 1668.28 1033.06 1668.28 1053.78Z" fill="#FFA100"/>
<path d="M1657.06 995.034H804.151C807.917 983.856 812.987 973.263 819.176 963.43C845.565 921.501 892.287 893.481 945.22 893.481H1507.98C1547.6 893.481 1583.99 908.046 1612.04 932.104C1631.75 948.989 1647.35 970.555 1657.06 995.034Z" fill="#FFDE69"/>
<path d="M1612.04 932.101C1596.39 932.535 1576.91 955.587 1557.18 955.072C1535.07 954.495 1522.86 927.732 1503.66 928.896C1484.46 930.061 1482.14 947.893 1487.96 964.183C1493.77 980.47 1498.13 1015.28 1470.5 1012.08C1443.93 1009 1460.33 969.03 1459.45 942.855C1458.51 914.565 1411.17 905.626 1377.44 931.802C1343.7 957.978 1280 963.397 1262.26 935.296C1255.28 924.245 1230.26 919.007 1215.72 926.565C1201.18 934.131 1214.51 1003.06 1216.26 1021.09C1218 1039.12 1183.44 1039.71 1180.82 1026.33C1178.06 1012.24 1196.14 926.564 1179.07 924.632C1162.02 922.691 1154.06 931.367 1155.42 937.427C1156.66 943.007 1162.5 958.122 1151.93 959.143C1142.89 960.009 1137.05 955.36 1139.81 948.598C1141.51 944.408 1149.6 927.731 1129.05 923.28C1108.5 918.828 1094.92 929.284 1092.59 934.71C1090.27 940.137 1099.19 963.025 1094.54 968.841C1089.88 974.655 1074.86 974.656 1071.27 965.348C1069.18 959.921 1087.94 932.778 1068.94 925.402C1049.94 918.034 1027.06 931.227 1011.16 944.021C995.255 956.825 968.501 963.027 946.397 951C924.293 938.973 906.451 950.999 899.86 958.756C893.268 966.511 901.792 988.614 899.86 996.101C897.919 1003.58 863.021 1007.61 874.261 980.47C885.512 953.329 869.024 945.762 869.024 945.762C849.747 938.583 828.086 955.36 819.173 963.432C845.567 921.5 892.284 893.482 945.223 893.482H1507.98C1547.61 893.481 1583.99 908.047 1612.04 932.101Z" fill="#8F3B99"/>
<path d="M1464.14 750.276V830.091H1000.55V742.96C1000.55 742.231 1000.56 741.502 1000.57 740.773C1001.74 689.524 1044.01 647.974 1095.53 647.974H1361.83C1414.9 647.974 1458.86 688.918 1463.68 740.773C1463.98 743.903 1464.14 747.074 1464.14 750.276Z" fill="#FFA100"/>
<path d="M1463.68 740.771H1000.57C1001.74 689.522 1044.01 647.972 1095.53 647.972H1361.83C1414.9 647.973 1458.86 688.917 1463.68 740.771Z" fill="#FFDE69"/>
<path d="M988.582 847.965L986.519 847.456C993.249 833.84 1005.33 823.539 1015.25 818.213C1023.95 813.549 1031.15 811.457 1033.74 810.782C1034.37 810.618 1035.04 810.777 1035.53 811.201L1037.44 812.844C1038.39 813.657 1038.05 815.195 1036.85 815.525C1027.63 818.054 998.747 827.401 988.582 847.965Z" fill="#FF753C"/>
<path d="M952.464 856.274C958.716 830.926 973.441 834.558 991.607 839.038C1009.77 843.52 1024.5 847.153 1018.25 872.498C1013.77 890.664 995.41 901.759 977.244 897.277C959.077 892.797 947.982 874.439 952.464 856.274Z" fill="#522B73"/>
<path d="M967.616 855.401C962.202 866.285 962.254 878.461 966.736 888.802C959.386 880.728 956.06 869.25 958.872 857.85C963.424 839.394 972.468 836.295 984.068 837.722C978.207 839.787 972.751 845.076 967.616 855.401Z" fill="#462160"/>
<path d="M1608.41 751.934C1608.41 751.934 1471.7 801.79 1537.82 902.056C1537.82 902.056 1638.65 863.21 1608.41 751.934Z" fill="#FF753C"/>
<path d="M1438.93 823.974L1441.51 825.611C1448.96 805.098 1447.66 782.333 1443.32 766.735C1439.53 753.08 1434.54 743.525 1432.67 740.172C1432.22 739.356 1431.39 738.815 1430.46 738.724L1426.85 738.371C1425.07 738.196 1423.81 740.078 1424.66 741.654C1431.19 753.735 1450.18 792.996 1438.93 823.974Z" fill="#FF753C"/>
<path d="M1383.41 833.144C1392.39 796.729 1413.55 801.947 1439.64 808.384C1465.74 814.821 1486.9 820.04 1477.92 856.455C1471.48 882.554 1445.1 898.492 1419.01 892.055C1392.91 885.618 1376.97 859.242 1383.41 833.144Z" fill="#522B73"/>
<path d="M1405.18 831.892C1397.4 847.531 1397.47 865.023 1403.91 879.878C1393.35 868.278 1388.58 851.786 1392.61 835.411C1399.15 808.896 1412.15 804.443 1428.81 806.494C1420.39 809.459 1412.55 817.058 1405.18 831.892Z" fill="#462160"/>
<path d="M1442.87 847.061C1442.87 847.061 1463.36 934.566 1529.72 901.419C1529.72 901.419 1513.33 836.729 1442.87 847.061Z" fill="#6F36BB"/>
<path d="M664.763 1090.38C664.763 1090.38 801.47 1140.24 735.354 1240.5C735.354 1240.5 634.526 1201.65 664.763 1090.38Z" fill="#FF753C"/>
<path d="M656.726 1187.54C656.726 1187.54 742.582 1166.05 743.454 1239.09C743.454 1239.09 679.427 1253.89 656.726 1187.54Z" fill="#6F36BB"/>
<path d="M837.876 1159.66L840.84 1158.93C831.169 1139.36 813.821 1124.56 799.556 1116.91C787.066 1110.21 776.718 1107.2 773.003 1106.24C772.097 1106 771.134 1106.23 770.424 1106.84L767.676 1109.2C766.317 1110.36 766.807 1112.58 768.532 1113.05C781.778 1116.68 823.272 1130.11 837.876 1159.66Z" fill="#FF753C"/>
<path d="M889.766 1171.59C880.784 1135.18 859.627 1140.39 833.529 1146.83C807.431 1153.27 786.273 1158.49 795.255 1194.9C801.692 1221 828.068 1236.94 854.166 1230.5C880.264 1224.06 896.203 1197.69 889.766 1171.59Z" fill="#522B73"/>
<path d="M867.996 1170.34C875.774 1185.98 875.699 1203.47 869.261 1218.33C879.82 1206.72 884.599 1190.23 880.559 1173.86C874.018 1147.34 861.027 1142.89 844.359 1144.94C852.782 1147.91 860.62 1155.51 867.996 1170.34Z" fill="#462160"/>
<path d="M830.3 1185.51C830.3 1185.51 809.814 1273.01 743.454 1239.87C743.454 1239.87 759.839 1175.18 830.3 1185.51Z" fill="#FFDE69"/>
<path d="M1173.77 647.97C1173.77 647.97 1136.17 564.725 1042.26 572.851C1042.26 572.851 1076.63 608.03 1089.89 622.085C1120.55 654.59 1173.77 647.97 1173.77 647.97Z" fill="#FF753C"/>
<path d="M1279.25 647.971C1279.25 647.971 1309.86 559.783 1403.76 567.911C1403.76 567.911 1378.48 610.349 1363.13 622.086C1347.78 633.825 1279.25 647.971 1279.25 647.971Z" fill="#6F36BB"/>
<path d="M1194.53 600.313C1195.64 592.944 1185.13 559.198 1201.53 541.596C1217.92 523.993 1234.47 511.969 1234.47 511.969C1234.47 511.969 1241.52 547.323 1239.74 555.769C1235.47 576.057 1194.53 600.313 1194.53 600.313Z" fill="#6F36BB"/>
<path d="M1180 587.443L1182.48 586.83C1174.38 570.447 1159.85 558.053 1147.91 551.643C1137.45 546.033 1128.78 543.515 1125.67 542.704C1124.91 542.507 1124.11 542.696 1123.51 543.207L1121.21 545.183C1120.07 546.16 1120.48 548.012 1121.93 548.409C1133.02 551.454 1167.77 562.699 1180 587.443Z" fill="#6D36C1"/>
<path d="M1223.46 597.438C1215.94 566.94 1198.22 571.311 1176.36 576.701C1154.5 582.092 1136.78 586.462 1144.31 616.96C1149.7 638.816 1171.78 652.165 1193.64 646.774C1215.5 641.383 1228.85 619.294 1223.46 597.438Z" fill="#522B73"/>
<path d="M1205.22 596.388C1211.74 609.485 1211.68 624.135 1206.28 636.578C1215.13 626.862 1219.13 613.051 1215.74 599.336C1210.27 577.13 1199.39 573.401 1185.43 575.119C1192.48 577.601 1199.05 583.966 1205.22 596.388Z" fill="#462160"/>
<path d="M1279.51 646.543C1279.51 646.543 1267.47 592.59 1207.88 590.183C1207.88 590.183 1219.92 650.532 1279.51 646.543Z" fill="#6F36BB"/>
<path d="M1284.68 587.443L1282.2 586.83C1290.3 570.447 1304.83 558.053 1316.77 551.643C1327.23 546.033 1335.9 543.515 1339.01 542.704C1339.77 542.507 1340.58 542.696 1341.17 543.207L1343.47 545.183C1344.61 546.16 1344.2 548.012 1342.75 548.409C1331.66 551.454 1296.91 562.699 1284.68 587.443Z" fill="#6D36C1"/>
<path d="M1241.22 597.438C1248.74 566.94 1266.46 571.311 1288.32 576.701C1310.18 582.092 1327.9 586.462 1320.38 616.96C1314.98 638.816 1292.89 652.165 1271.04 646.774C1249.18 641.383 1235.83 619.294 1241.22 597.438Z" fill="#522B73"/>
<path d="M1259.45 596.388C1252.94 609.485 1253 624.135 1258.4 636.578C1249.55 626.862 1245.55 613.051 1248.93 599.336C1254.41 577.13 1265.29 573.401 1279.25 575.119C1272.2 577.601 1265.63 583.966 1259.45 596.388Z" fill="#462160"/>
<path d="M1071.12 654.671C1071.12 654.671 1093.95 635.178 1124.65 639.24C1155.35 643.305 1170.34 647.322 1188.31 641.95C1206.29 636.578 1230.67 638.932 1250.86 642.853C1271.04 646.773 1363.2 624.665 1405.22 657.686C1405.22 657.686 1361.98 650.076 1355.35 659.105C1348.73 668.134 1371.16 696.803 1357.76 700.641C1349.86 702.904 1339.4 703.65 1341.5 686.796C1343.61 669.94 1334.28 656.547 1325.86 657.751C1317.43 658.954 1330.05 674.842 1324.93 681.764C1319.81 688.687 1302.08 683.183 1305.99 672.95C1309.9 662.717 1312.91 655.493 1297.87 653.989C1282.82 652.484 1257.84 661.814 1258.74 673.251C1259.64 684.689 1268.97 705.756 1259.04 707.562C1249.11 709.368 1240.68 706.358 1245.19 688.902C1249.71 671.446 1241.88 653.085 1227.74 653.688C1213.59 654.289 1178.68 677.766 1156.41 668.737C1134.14 659.708 1126.57 649.433 1119.08 655.192C1113.7 659.331 1122.4 682.13 1114.04 682.468C1107 682.754 1102.53 681.075 1104.94 668.736C1107.35 656.396 1089.25 645.923 1071.12 654.671Z" fill="#8F3B99"/>
<path d="M938.801 896.683C938.801 896.683 952.044 855.804 930.975 842.968C909.908 830.133 873.188 820.502 873.188 820.502C873.188 820.502 886.431 857.824 900.276 868.658C914.121 879.492 938.801 896.683 938.801 896.683Z" fill="#FF753C"/>
<path d="M935.038 895.446C935.038 895.446 902.382 872.27 883.12 871.968C863.857 871.668 849.711 887.619 849.711 887.619C849.711 887.619 871.08 901.765 880.411 899.356C889.741 896.95 926.31 889.762 935.038 895.446Z" fill="#6F36BB"/>
<path d="M938.801 896.683C938.801 896.683 945.572 869.41 974.917 870.162C974.917 870.162 974.015 890.998 938.801 896.683Z" fill="#6F36BB"/>
<path d="M1917.63 1352.03C1917.63 1352.03 1951.31 1494.64 1830.37 1494.47C1830.37 1494.47 1807.28 1388.15 1917.63 1352.03Z" fill="#FF753C"/>
<path d="M1950.36 1486.67C1950.36 1486.67 1912.59 1597.17 1831.06 1545.76C1831.06 1545.76 1860.59 1464.23 1950.36 1486.67Z" fill="#6F36BB"/>
<path d="M1775.35 1509.05C1775.35 1509.05 1791.72 1459.34 1765.67 1443.73C1739.63 1428.13 1694.24 1416.42 1694.24 1416.42C1694.24 1416.42 1710.61 1461.81 1727.73 1474.98C1744.85 1488.15 1775.35 1509.05 1775.35 1509.05Z" fill="#FFDE69"/>
<path d="M1828.36 1557.4C1828.36 1557.4 1783.23 1504.85 1751.02 1496.3C1718.81 1487.75 1688.41 1508.61 1688.41 1508.61C1688.41 1508.61 1718.36 1541.28 1735.03 1541.14C1751.7 1541 1816.08 1544.21 1828.36 1557.4Z" fill="#6F36BB"/>
<path d="M1827.21 1458.02L1831.06 1457.07C1818.5 1431.65 1795.96 1412.42 1777.42 1402.47C1761.19 1393.77 1747.75 1389.86 1742.92 1388.6C1741.74 1388.3 1740.49 1388.59 1739.57 1389.39L1736 1392.45C1734.23 1393.97 1734.87 1396.84 1737.11 1397.46C1754.32 1402.18 1808.23 1419.63 1827.21 1458.02Z" fill="#6F36BB"/>
<path d="M1894.64 1473.52C1882.97 1426.21 1855.48 1432.99 1821.56 1441.35C1787.65 1449.71 1760.16 1456.5 1771.83 1503.81C1780.2 1537.72 1814.47 1558.43 1848.38 1550.07C1882.29 1541.71 1903 1507.44 1894.64 1473.52Z" fill="#8F3B99"/>
<path d="M1866.35 1471.9C1876.46 1492.22 1876.36 1514.95 1867.99 1534.25C1881.71 1519.18 1887.92 1497.75 1882.67 1476.47C1874.17 1442.02 1857.29 1436.23 1835.64 1438.9C1846.58 1442.75 1856.76 1452.62 1866.35 1471.9Z" fill="#462160"/>
<path d="M1835.46 1282.56C1809.94 1272.7 1776.12 1317.72 1741.81 1316.81C1707.5 1315.91 1688.54 1274.37 1658.74 1276.18C1628.94 1277.99 1625.33 1305.68 1634.36 1330.96C1643.39 1356.24 1650.16 1410.27 1607.27 1405.3C1566.01 1400.52 1591.47 1338.48 1590.12 1297.85C1588.65 1253.94 1515.17 1240.07 1462.8 1280.7C1410.43 1321.33 1311.57 1329.74 1284.02 1286.11C1273.19 1268.96 1234.36 1260.83 1211.79 1272.57C1189.21 1284.31 1209.91 1391.31 1212.62 1419.3C1215.33 1447.29 1161.68 1448.19 1157.61 1427.42C1153.34 1405.57 1181.38 1272.57 1154.9 1269.56C1128.42 1266.55 1116.08 1280.02 1118.18 1289.43C1120.12 1298.09 1129.17 1321.55 1112.76 1323.14C1098.74 1324.49 1089.66 1317.27 1093.95 1306.77C1096.6 1300.27 1109.15 1274.38 1077.25 1267.47C1045.35 1260.56 1024.28 1276.79 1020.66 1285.21C1017.05 1293.64 1030.9 1329.16 1023.68 1338.19C1016.46 1347.22 993.128 1347.21 987.563 1332.77C984.318 1324.34 1013.44 1282.21 983.952 1270.76C954.454 1259.33 918.941 1279.79 894.255 1299.66C869.578 1319.53 828.044 1329.16 793.732 1310.49C759.42 1291.83 731.728 1310.49 721.497 1322.53C711.267 1334.58 724.504 1368.89 721.497 1380.5C718.491 1392.1 664.314 1398.38 681.768 1356.25C699.222 1314.11 673.641 1302.37 673.641 1302.37C635.194 1288.06 590.635 1335.12 589.777 1336.03C593.335 1326.67 597.66 1317.68 602.653 1309.12L602.672 1309.09C634.338 1254.83 693.235 1218.16 760.27 1218.16H1690.35C1747.69 1218.16 1799.48 1243.05 1835.46 1282.56Z" fill="#8F3B99"/>
<path d="M2050.18 1623.59H414.498C412.176 1623.59 410.275 1621.69 410.275 1619.36V1613.89C410.275 1574.81 442.252 1542.83 481.335 1542.83H1977.87C2019.96 1542.83 2054.41 1577.27 2054.41 1619.36C2054.41 1621.69 2052.5 1623.59 2050.18 1623.59Z" fill="#FFDE69"/>
<path d="M1670.89 846.758L1662.3 848.393C1662.3 848.393 1646.23 844.586 1640.32 861.543C1640.32 861.543 1638.41 868.727 1643.77 868.346C1649.13 867.966 1647.02 867.338 1654.59 866.967C1662.16 866.597 1668.88 862.774 1670.66 857.518L1674.85 852.866L1670.89 846.758Z" fill="#FFB27D"/>
<path d="M1665.36 853.779C1662.72 848.075 1663.03 847.071 1663.03 847.071C1663.03 847.071 1712.09 811.668 1716.55 808.144C1721 804.622 1767.98 739.486 1767.98 739.486L1825.85 747.591C1825.85 747.591 1747.97 824.693 1736.51 833.396C1717.56 847.778 1671.01 860.582 1671.01 860.582C1671.01 860.582 1667.43 858.259 1665.36 853.779Z" fill="#C6D2CF"/>
<path d="M1677.22 834.904L1674.36 835.985C1671.23 814.389 1677.12 792.36 1684.52 777.964C1691.01 765.362 1697.82 757.015 1700.33 754.11C1700.95 753.402 1701.87 753.043 1702.8 753.142L1706.4 753.526C1708.18 753.716 1709.03 755.814 1707.88 757.185C1699.03 767.69 1672.48 802.29 1677.22 834.904Z" fill="#FFB93E"/>
<path d="M1641.26 874.172C1628 839.09 1648.38 831.382 1673.52 821.878C1698.67 812.372 1719.05 804.665 1732.31 839.749C1741.82 864.892 1729.14 892.98 1704 902.487C1678.85 911.993 1650.77 899.315 1641.26 874.172Z" fill="#8F3B99"/>
<path d="M1658.47 860.79C1660.94 878.081 1670.93 892.443 1684.66 901.024C1669.38 897.461 1656.09 886.592 1650.13 870.814C1640.47 845.27 1648.64 834.231 1663.53 826.465C1658.28 833.685 1656.13 844.391 1658.47 860.79Z" fill="#462160"/>
<path d="M1955.85 1135.62C1955.85 1135.62 1964.91 1144.02 1963.14 1149.99C1961.37 1155.96 1953.19 1159.93 1952.09 1167.23C1950.98 1174.52 1946.56 1178.5 1942.59 1178.5C1938.61 1178.5 1923.62 1178.5 1923.62 1178.5C1923.62 1178.5 1920.69 1173.37 1927.76 1171.82C1934.83 1170.27 1937.5 1161.7 1937.06 1153.74C1936.62 1145.79 1937.72 1135.18 1937.72 1135.18L1952.75 1131.64L1955.85 1135.62Z" fill="#2C3A64"/>
<path d="M1842.91 1178.19C1842.69 1178.3 1842.33 1178.4 1841.84 1178.5H1791.56C1791.96 1176.74 1793.53 1173.21 1799.59 1172.22C1807.51 1170.94 1821.24 1166.34 1824.31 1156.2C1824.41 1155.88 1824.49 1155.54 1824.57 1155.2C1827 1144.38 1844.68 1158.52 1844.68 1158.52C1844.68 1158.52 1844.73 1158.95 1844.8 1159.69C1845.22 1163.65 1846.27 1176.51 1842.91 1178.19Z" fill="#2C3A64"/>
<path d="M1801.69 888.531C1801.69 888.531 1804.38 922.034 1807.53 962.306C1811.83 1017.01 1816.98 1084.21 1817.49 1096.94C1818.38 1119.05 1821.92 1154.41 1821.92 1154.41C1821.92 1154.41 1830.31 1162.81 1847.11 1159.27C1847.11 1159.27 1862.08 1108.79 1866.36 1055.38C1866.42 1054.51 1866.49 1053.63 1866.56 1052.74C1870.54 998.375 1876.72 883.889 1876.72 883.889L1801.69 888.531Z" fill="#FFA100"/>
<path d="M1801.69 888.531C1801.69 888.531 1804.38 922.034 1807.53 962.306L1866.36 1055.38C1866.42 1054.51 1866.49 1053.63 1866.56 1052.74C1870.54 998.375 1876.72 883.889 1876.72 883.889L1801.69 888.531Z" fill="#FF753C"/>
<path d="M1813.96 892.509C1813.96 892.509 1862.36 1013.85 1894.18 1070.87C1926.01 1127.89 1935.96 1143.8 1935.96 1143.8C1935.96 1143.8 1954.19 1136.51 1955.85 1131.53C1955.85 1131.53 1943.68 1021.45 1922.36 994.617C1910.32 979.453 1896.17 933.95 1895.51 918.037C1894.85 902.123 1891.2 870.63 1891.2 870.63L1813.96 892.509Z" fill="#FFA100"/>
<path d="M1792.64 701.494C1792.64 701.494 1772.89 736.24 1753.58 740.775C1753.58 740.775 1754.39 729.106 1759.09 721.119C1757.16 718.849 1755.47 716.764 1754.01 714.897C1749.15 708.67 1746.84 704.859 1746.84 704.859L1753.39 687.247L1757.84 675.298C1759.97 679.176 1762.33 682.481 1764.78 685.307C1777.43 699.851 1792.64 701.494 1792.64 701.494Z" fill="#FFB27D"/>
<path d="M1764.78 685.307C1764.78 685.307 1767.14 702.718 1754.01 714.897C1749.15 708.67 1746.84 704.859 1746.84 704.859L1753.39 687.247C1760.42 685.107 1764.78 685.307 1764.78 685.307Z" fill="#ED975D"/>
<path d="M1741.64 707.427C1741.64 707.427 1771.14 695.923 1763.7 677.659C1756.25 659.393 1755.04 645.608 1735.89 652.18C1716.74 658.753 1715.94 667.204 1716.94 673.906C1717.94 680.607 1733.77 709.948 1741.64 707.427Z" fill="#FFB27D"/>
<path d="M1894.06 879.8C1882.16 896.914 1793.16 919.779 1794.22 907.934C1794.62 903.401 1795.16 895.408 1794.21 884.57C1793.98 882.032 1793.67 879.343 1793.26 876.499C1791 860.933 1785.63 840.92 1773.65 817.754C1772.75 816.019 1771.82 814.271 1770.85 812.498C1765.92 803.528 1761.71 794.046 1758.51 784.774C1752.34 766.956 1749.86 749.908 1752.97 738.763C1752.98 738.709 1753 738.66 1753.02 738.606C1771.62 730.004 1778.83 696.644 1778.83 696.644C1778.83 696.644 1842.3 708.038 1877.85 792.635C1877.85 792.635 1904.42 864.906 1894.06 879.8Z" fill="white"/>
<path d="M1794.21 884.569C1793.98 882.031 1793.67 879.342 1793.26 876.498C1791 860.932 1785.63 840.919 1773.65 817.753C1775.71 805.288 1778.55 794.921 1781.66 790.254C1794.32 771.283 1801.69 768.317 1801.69 768.317C1801.69 768.317 1820.68 848.371 1794.21 884.569Z" fill="#C6D2CF"/>
<path d="M1767.93 643.73C1768.14 643.321 1768.74 642.886 1770.2 642.438C1770.2 642.438 1768.83 641.978 1767.23 642.329C1766.4 640.307 1764.39 636.865 1760.61 636.838C1760.61 636.838 1762.78 637.401 1763.58 639.571C1758.4 636.29 1748.81 635.337 1724.86 643.314C1693.29 653.828 1709.06 672.151 1713.85 673.62C1718.63 675.089 1727.44 665.662 1735.36 664.375C1743.28 663.088 1747.57 674.121 1750.59 675.036C1753.61 675.952 1751.89 673.442 1755.05 670.927C1758.21 668.411 1760.03 674.328 1759.96 678.482C1759.89 682.637 1766.06 686.575 1766.06 686.575C1766.06 686.575 1766.06 686.575 1769.67 679.941C1773.29 673.308 1772.31 649.227 1768.85 644.894C1768.55 644.509 1768.24 644.12 1767.93 643.73Z" fill="#522878"/>
<path d="M1690.76 866.484C1690.76 866.484 1679.68 865.907 1677.23 866.484C1674.78 867.06 1666.71 872.103 1666.71 872.823C1666.71 873.544 1667.22 874.048 1668.73 873.904C1670.25 873.759 1675.07 872.319 1674.85 872.967C1674.64 873.615 1660.9 878.731 1661.22 881.613C1661.53 884.495 1670.17 888.529 1676.8 887.808C1683.43 887.088 1695.26 877.695 1696.19 877.061C1697.12 876.427 1690.76 866.484 1690.76 866.484Z" fill="#FFB27D"/>
<path d="M1690.85 872.181C1687.33 866.499 1689.87 863.907 1689.87 863.907C1689.87 863.907 1744.11 821.441 1748.36 817.152C1752.61 812.861 1772.3 744.55 1772.3 744.55C1772.3 744.55 1779.08 716.905 1794.95 713.856C1808.74 711.208 1818.28 718.032 1824.51 726.032C1831.95 735.566 1832.67 748.714 1826.5 759.11C1812.66 782.445 1784.72 828.763 1776.57 836.674C1758.41 854.288 1697.66 878.901 1697.66 878.901C1697.66 878.901 1693.61 876.644 1690.85 872.181Z" fill="white"/>
<path d="M1732.64 698.68C1732.64 698.68 1734.13 701.364 1739.35 699.351C1739.35 699.351 1743.74 697.663 1742.52 694.589C1742.52 694.589 1737.38 693.657 1732.64 698.68Z" fill="white"/>
<path d="M1283.32 826.801C1273.37 821.798 1265.21 803.499 1266.07 800.229C1266.17 799.848 1266.64 798.819 1267.38 797.312L1314.72 777.288C1314.72 777.288 1309.64 747.694 1294.5 743.66C1294.06 737.894 1291.03 725.389 1272.86 725.389C1272.86 725.389 1280.02 727.328 1283.72 731.209C1283.72 731.209 1268.66 722.371 1252.28 735.952C1235.89 749.532 1246.07 783.594 1241.09 790.059C1236.11 796.527 1216.71 797.821 1219.08 818.73C1221.45 839.641 1280.65 865.832 1276.85 883.132C1276.85 883.132 1298.55 851.23 1284.97 835.053C1287.34 837.741 1291.77 843.549 1292.37 850.132C1292.37 850.132 1294.57 832.456 1283.32 826.801ZM1283.46 833.46C1283.46 833.46 1283.61 833.595 1283.84 833.838C1283.72 833.712 1283.59 833.584 1283.46 833.46Z" fill="#2C3A64"/>
<path d="M1273.1 845.904C1269.46 828.375 1246.73 822.94 1235.98 837.254C1234.04 839.827 1232.68 842.87 1232.24 846.462C1229.79 866.358 1261.6 947.394 1266.15 954.732C1274.45 968.091 1323.28 1013.88 1323.28 1013.88L1332.28 1008.43C1332.28 1008.43 1297.64 949.783 1292.28 944.296C1286.08 937.949 1280.01 879.182 1273.1 845.904Z" fill="#ED985F"/>
<path d="M1228.23 1203.31L1216.49 1201.59C1216.49 1201.59 1177.03 1170.23 1171.16 1111.72C1170.56 1105.76 1170.43 1099.72 1170.88 1093.63C1170.93 1092.93 1170.85 1092.22 1170.47 1091.63C1170.47 1091.63 1170.46 1091.62 1170.45 1091.62C1169.19 1089.68 1166.05 1084.83 1161.79 1077.93C1157.6 1071.13 1150.42 1058.29 1142.52 1043.87C1128.29 1017.91 1111.73 986.854 1106.05 976.965C1087.94 945.443 1096.67 924.249 1096.67 924.249C1096.67 924.249 1147.17 919.254 1161.01 907.148L1166 914.831C1166 914.831 1176.94 963.275 1176.42 963.5C1176.96 965.146 1177.51 966.823 1178.06 968.531C1186.7 995.183 1196.63 1028.5 1202.05 1055.63C1205.09 1070.9 1206.71 1084.2 1205.84 1093.26C1205.54 1096.37 1205.9 1101.15 1206.73 1107.04C1211.62 1141.81 1228.23 1203.31 1228.23 1203.31Z" fill="#522879"/>
<path d="M1252.85 1218.16H1203.88C1203.88 1218.16 1202.71 1210.7 1205.27 1205.04C1207.72 1199.6 1211.21 1199.43 1205.71 1190.92C1208.82 1194.12 1218.83 1195.44 1225.9 1194.49C1226.77 1195.9 1231.49 1205.33 1234.39 1207.41C1237.59 1209.71 1251.86 1208.89 1252.85 1218.16Z" fill="#522B73"/>
<path d="M1178.06 968.532C1173.79 992.12 1163.69 1031.38 1142.52 1043.87C1128.29 1017.91 1111.73 986.855 1106.04 976.966C1087.94 945.444 1096.67 924.249 1096.67 924.249C1096.67 924.249 1147.17 919.255 1161.01 907.149L1166 914.832C1166 914.832 1176.94 963.276 1176.42 963.501C1176.96 965.147 1177.51 966.824 1178.06 968.532Z" fill="#52286C"/>
<path d="M1143.73 927.892L1143.89 918.734C1125.65 921.036 1080.98 896.932 1080.98 896.932C1080.98 896.932 1061.9 909.628 1059.29 945.882C1058.01 963.577 1049.94 1038.42 1049.05 1060.76C1048.72 1068.86 1048.62 1074.64 1048.58 1076.95C1048.58 1076.96 1048.58 1076.97 1048.58 1076.97C1048.57 1077.68 1048.24 1078.3 1047.81 1078.86C1044.03 1083.66 1040.76 1088.74 1037.92 1094.01C1010.08 1145.81 1024.64 1216.19 1024.64 1216.19L1031.1 1214.55C1031.1 1214.55 1054.64 1141.58 1070.03 1110.02C1072.64 1104.67 1075.01 1100.51 1077 1098.1C1082.78 1091.07 1088.88 1079.14 1094.89 1064.78C1106.26 1037.63 1117.29 1001.81 1125.16 974.07C1125.72 974.172 1143.73 927.892 1143.73 927.892Z" fill="#522879"/>
<path d="M1358.98 979.241L1355.78 978.452C1366.22 957.333 1384.95 941.357 1400.35 933.095C1413.83 925.863 1425 922.618 1429.01 921.572C1429.99 921.318 1431.03 921.562 1431.8 922.221L1434.77 924.769C1436.23 926.029 1435.71 928.415 1433.84 928.927C1419.54 932.851 1374.75 947.347 1358.98 979.241Z" fill="#FF753C"/>
<path d="M1302.96 992.127C1312.66 952.814 1335.5 958.448 1363.67 965.398C1391.85 972.348 1414.69 977.98 1404.99 1017.29C1398.04 1045.47 1369.57 1062.68 1341.39 1055.73C1313.22 1048.78 1296.01 1020.3 1302.96 992.127Z" fill="#522B73"/>
<path d="M1326.46 990.774C1318.07 1007.66 1318.15 1026.54 1325.1 1042.58C1313.7 1030.06 1308.54 1012.25 1312.9 994.573C1319.96 965.947 1333.99 961.141 1351.98 963.355C1342.89 966.557 1334.43 974.761 1326.46 990.774Z" fill="#462160"/>
<path d="M1250.49 866.774C1220.67 859.929 1239.72 818.019 1241.45 818.755C1245.58 817.914 1254.66 810.658 1262.78 796.485L1263.87 797.439L1282.19 813.498C1282.19 813.498 1277.96 819.745 1274.4 825.863C1271.61 830.653 1269.25 835.373 1269.62 836.992C1271.1 838.153 1258.45 868.602 1250.49 866.774Z" fill="#FFB27D"/>
<path d="M1282.19 813.502C1282.19 813.502 1277.96 819.741 1274.4 825.867C1263.01 818.846 1262.99 804.745 1263.87 797.442L1282.19 813.502Z" fill="#ED985F"/>
<path d="M1282.7 821.547C1282.7 821.547 1255.05 806.16 1264.89 789.086C1274.74 772.012 1277.8 758.526 1295.88 767.63C1313.95 776.733 1313.59 785.209 1311.69 791.707C1309.79 798.205 1290.15 825.109 1282.7 821.547Z" fill="#FFB27D"/>
<path d="M1316.36 781.748C1315.1 774.167 1311.25 773.444 1308.56 773.95C1298.35 757.06 1281.67 763.651 1281.67 763.651C1272.75 774.836 1259.87 776.743 1259.87 776.743C1259.87 776.743 1263.08 782.715 1276.3 786.411C1280.34 787.54 1284.92 786.857 1289.34 785.368C1280.17 790.482 1270.58 792.442 1270.58 792.442C1288 794.036 1304.58 778.107 1306.3 776.403C1307.1 778.872 1308.51 784.04 1307.67 787.819C1306.52 792.953 1301.96 802.252 1304.75 803.457C1304.75 803.457 1318.26 793.117 1316.36 781.748Z" fill="#2C3A64"/>
<path d="M1063.57 1218.16H1014.61C1014.61 1218.16 1013.44 1210.7 1016 1205.04C1018.45 1199.6 1022.29 1197.14 1021.37 1190.56C1024.48 1193.76 1029.55 1197.35 1036.63 1196.4C1037.49 1197.8 1042.22 1205.33 1045.12 1207.41C1048.32 1209.71 1062.59 1208.89 1063.57 1218.16Z" fill="#522B73"/>
<path d="M1277.94 850.851C1275.92 845.344 1272.38 840.428 1270.07 837.587C1270.04 835.755 1269.99 834.696 1269.99 834.696C1269.99 834.696 1271.53 831.139 1259.87 821.869C1242.4 807.986 1235.46 810.926 1235.46 810.926C1235.46 810.926 1138.34 830.232 1080.98 896.93C1080.98 896.93 1090.34 932.591 1175.6 936.471C1175.6 936.471 1188.9 922.468 1191.92 913.392C1192.45 911.792 1194.15 910.542 1196.69 909.529C1203.65 906.753 1216.94 905.792 1229.82 904.384C1238.86 903.403 1247.7 902.199 1254 900C1262.65 896.982 1266.71 882.566 1268.58 868.043C1274.99 859.315 1277.94 850.851 1277.94 850.851Z" fill="white"/>
<path d="M1229.81 904.385C1216.94 905.792 1203.65 906.753 1196.68 909.53C1193.84 867.012 1213.91 835.028 1213.91 835.028C1213.91 835.028 1227 888.295 1229.81 904.385Z" fill="#C6D2CF"/>
<path d="M1243.06 826.801C1243.06 826.801 1210.8 829.99 1208.21 850.955C1205.62 871.92 1239.15 957.314 1243.95 965.047C1252.68 979.125 1304.15 1027.38 1304.15 1027.38L1313.63 1021.63C1313.63 1021.63 1277.13 959.833 1271.48 954.05C1262.61 944.97 1253.99 834.065 1243.06 826.801Z" fill="#FFB27D"/>
<path d="M1209.14 863.568C1209.23 864.045 1238.92 873.268 1258.03 863.568C1258.03 863.568 1262.12 819.478 1239.31 821.87C1216.49 824.264 1202.98 831.449 1202.41 842.371C1201.83 853.294 1209.14 863.568 1209.14 863.568Z" fill="white"/>
<path d="M1313.64 1021.63C1313.64 1021.63 1322.51 1026.18 1325.65 1026.55C1328.78 1026.92 1333.03 1032.64 1333.03 1033.57C1333.03 1034.49 1326.2 1030.24 1325.83 1031.53C1325.46 1032.83 1329.89 1038 1333.03 1038.55C1336.17 1039.11 1343.37 1041.14 1343.19 1042.06C1343.01 1042.99 1327.19 1051.48 1319.86 1047.23C1312.53 1042.99 1304.15 1027.38 1304.15 1027.38L1313.64 1021.63Z" fill="#FFB27D"/>
<path d="M715.552 1239.49C715.552 1233.68 720.257 1228.98 726.062 1228.98C731.865 1228.98 736.57 1233.68 736.57 1239.49C736.57 1245.29 731.865 1250 726.062 1250C720.257 1250 715.552 1245.29 715.552 1239.49Z" fill="#8F3B99"/>
<path d="M725.085 1234.82C725.085 1233 726.561 1231.52 728.382 1231.52C730.205 1231.52 731.682 1233 731.682 1234.82C731.682 1236.64 730.205 1238.12 728.382 1238.12C726.56 1238.12 725.085 1236.64 725.085 1234.82Z" fill="#FFB37B"/>
<path d="M788.311 1233.16C788.311 1229.42 791.348 1226.38 795.094 1226.38C798.839 1226.38 801.876 1229.42 801.876 1233.16C801.876 1236.91 798.839 1239.95 795.094 1239.95C791.348 1239.95 788.311 1236.91 788.311 1233.16Z" fill="#8F3B99"/>
<path d="M794.464 1230.15C794.464 1228.98 795.417 1228.02 796.593 1228.02C797.768 1228.02 798.722 1228.98 798.722 1230.15C798.722 1231.33 797.768 1232.28 796.593 1232.28C795.417 1232.28 794.464 1231.33 794.464 1230.15Z" fill="#FFB37B"/>
<path d="M759.217 1212.08C759.217 1206.82 754.951 1202.56 749.691 1202.56C744.428 1202.56 740.164 1206.82 740.164 1212.08C740.164 1217.34 744.429 1221.61 749.691 1221.61C754.951 1221.61 759.217 1217.34 759.217 1212.08Z" fill="#8F3B99"/>
<path d="M750.576 1207.85C750.576 1206.2 749.235 1204.86 747.586 1204.86C745.935 1204.86 744.595 1206.2 744.595 1207.85C744.595 1209.5 745.935 1210.84 747.586 1210.84C749.235 1210.84 750.576 1209.5 750.576 1207.85Z" fill="#FFB37B"/>
<path d="M489.119 1406.32C489.119 1406.32 625.828 1456.18 559.712 1556.44C559.712 1556.44 458.887 1517.6 489.119 1406.32Z" fill="#6F36BB"/>
<path d="M660.245 1475.6L663.209 1474.87C653.539 1455.31 636.191 1440.51 621.926 1432.86C609.436 1426.16 599.088 1423.15 595.372 1422.18C594.467 1421.95 593.503 1422.17 592.794 1422.78L590.046 1425.14C588.687 1426.31 589.175 1428.52 590.903 1428.99C604.148 1432.63 645.641 1446.06 660.245 1475.6Z" fill="#6F36BB"/>
<path d="M714.125 1487.53C705.144 1451.12 683.986 1456.34 657.887 1462.77C631.789 1469.21 610.633 1474.43 619.615 1510.84C626.053 1536.94 652.427 1552.88 678.525 1546.44C704.623 1540.01 720.561 1513.63 714.125 1487.53Z" fill="#8F3B99"/>
<path d="M692.356 1486.28C700.132 1501.92 700.058 1519.41 693.621 1534.27C704.18 1522.67 708.957 1506.18 704.917 1489.8C698.378 1463.28 685.385 1458.83 668.718 1460.88C677.139 1463.85 684.978 1471.45 692.356 1486.28Z" fill="#462160"/>
<path d="M654.659 1501.45C654.659 1501.45 634.172 1588.96 567.814 1555.81C567.814 1555.81 584.197 1491.12 654.659 1501.45Z" fill="#6F36BB"/>
<path d="M941.014 1406.32C941.014 1406.32 1077.72 1456.18 1011.61 1556.44C1011.61 1556.44 910.781 1517.6 941.014 1406.32Z" fill="#6F36BB"/>
<path d="M1106.56 1501.45C1106.56 1501.45 1086.07 1588.96 1019.71 1555.81C1019.71 1555.81 1036.09 1491.12 1106.56 1501.45Z" fill="#6F36BB"/>
<path d="M539.91 1555.43C539.91 1549.63 544.615 1544.92 550.419 1544.92C556.224 1544.92 560.928 1549.63 560.928 1555.43C560.928 1561.24 556.224 1565.94 550.419 1565.94C544.616 1565.94 539.91 1561.23 539.91 1555.43Z" fill="#8F3B99"/>
<path d="M549.443 1550.76C549.443 1548.94 550.92 1547.47 552.741 1547.47C554.562 1547.47 556.039 1548.94 556.039 1550.76C556.039 1552.59 554.561 1554.06 552.741 1554.06C550.92 1554.06 549.443 1552.59 549.443 1550.76Z" fill="#FFB37B"/>
<path d="M612.67 1549.11C612.67 1545.36 615.706 1542.33 619.453 1542.33C623.2 1542.33 626.235 1545.36 626.235 1549.11C626.235 1552.85 623.199 1555.89 619.453 1555.89C615.707 1555.89 612.67 1552.85 612.67 1549.11Z" fill="#8F3B99"/>
<path d="M618.823 1546.1C618.823 1544.92 619.776 1543.97 620.951 1543.97C622.126 1543.97 623.08 1544.92 623.08 1546.1C623.08 1547.27 622.126 1548.23 620.951 1548.23C619.776 1548.23 618.823 1547.27 618.823 1546.1Z" fill="#FFB37B"/>
<path d="M583.574 1528.03C583.574 1522.77 579.309 1518.5 574.049 1518.5C568.789 1518.5 564.522 1522.77 564.522 1528.03C564.522 1533.29 568.788 1537.55 574.049 1537.55C579.31 1537.55 583.574 1533.29 583.574 1528.03Z" fill="#8F3B99"/>
<path d="M574.933 1523.8C574.933 1522.15 573.594 1520.81 571.944 1520.81C570.293 1520.81 568.954 1522.15 568.954 1523.8C568.954 1525.45 570.292 1526.79 571.944 1526.79C573.595 1526.79 574.933 1525.45 574.933 1523.8Z" fill="#FFB37B"/>
<path d="M976.809 1542.83C976.809 1537.03 981.514 1532.32 987.318 1532.32C993.122 1532.32 997.827 1537.03 997.827 1542.83C997.827 1548.63 993.122 1553.34 987.318 1553.34C981.514 1553.34 976.809 1548.63 976.809 1542.83Z" fill="#8F3B99"/>
<path d="M986.342 1538.16C986.342 1536.34 987.818 1534.87 989.64 1534.87C991.461 1534.87 992.938 1536.34 992.938 1538.16C992.938 1539.98 991.461 1541.46 989.64 1541.46C987.817 1541.46 986.342 1539.98 986.342 1538.16Z" fill="#FFB37B"/>
<path d="M1052.67 1561.06C1052.67 1555.8 1048.41 1551.53 1043.15 1551.53C1037.88 1551.53 1033.62 1555.8 1033.62 1561.06C1033.62 1566.32 1037.88 1570.58 1043.15 1570.58C1048.41 1570.58 1052.67 1566.32 1052.67 1561.06Z" fill="#8F3B99"/>
<path d="M1044.03 1556.83C1044.03 1555.18 1042.69 1553.84 1041.04 1553.84C1039.39 1553.84 1038.05 1555.18 1038.05 1556.83C1038.05 1558.48 1039.39 1559.82 1041.04 1559.82C1042.69 1559.82 1044.03 1558.48 1044.03 1556.83Z" fill="#FFB37B"/>
<path d="M1424.22 1542.16C1424.22 1537.09 1428.32 1532.99 1433.39 1532.99C1438.45 1532.99 1442.56 1537.09 1442.56 1542.16C1442.56 1547.22 1438.45 1551.33 1433.39 1551.33C1428.32 1551.33 1424.22 1547.23 1424.22 1542.16Z" fill="#8F3B99"/>
<path d="M1432.54 1538.09C1432.54 1536.5 1433.82 1535.21 1435.41 1535.21C1437 1535.21 1438.29 1536.5 1438.29 1538.09C1438.29 1539.68 1437 1540.97 1435.41 1540.97C1433.82 1540.97 1432.54 1539.68 1432.54 1538.09Z" fill="#FFB37B"/>
<path d="M1542.21 1542.84C1542.21 1539.3 1539.35 1536.43 1535.81 1536.43C1532.28 1536.43 1529.41 1539.3 1529.41 1542.84C1529.41 1546.37 1532.28 1549.24 1535.81 1549.24C1539.35 1549.24 1542.21 1546.37 1542.21 1542.84Z" fill="#8F3B99"/>
<path d="M1536.41 1539.99C1536.41 1538.88 1535.51 1537.98 1534.4 1537.98C1533.29 1537.98 1532.39 1538.88 1532.39 1539.99C1532.39 1541.1 1533.28 1542 1534.4 1542C1535.51 1542 1536.41 1541.1 1536.41 1539.99Z" fill="#FFB37B"/>
<path d="M1460.99 1555.64C1460.99 1552.11 1458.12 1549.24 1454.59 1549.24C1451.05 1549.24 1448.18 1552.11 1448.18 1555.64C1448.18 1559.18 1451.05 1562.05 1454.59 1562.05C1458.12 1562.05 1460.99 1559.18 1460.99 1555.64Z" fill="#8F3B99"/>
<path d="M1455.18 1552.8C1455.18 1551.69 1454.28 1550.79 1453.17 1550.79C1452.06 1550.79 1451.16 1551.69 1451.16 1552.8C1451.16 1553.91 1452.06 1554.81 1453.17 1554.81C1454.28 1554.81 1455.18 1553.91 1455.18 1552.8Z" fill="#FFB37B"/>
<path d="M900.563 914.714C900.563 911.046 903.537 908.073 907.206 908.073C910.876 908.073 913.849 911.046 913.849 914.714C913.849 918.384 910.876 921.359 907.206 921.359C903.537 921.358 900.563 918.384 900.563 914.714Z" fill="#8F3B99"/>
<path d="M906.588 911.766C906.588 910.615 907.523 909.68 908.673 909.68C909.825 909.68 910.759 910.615 910.759 911.766C910.759 912.916 909.825 913.851 908.673 913.851C907.522 913.851 906.588 912.916 906.588 911.766Z" fill="#FFB37B"/>
<path d="M984.313 908.138C985.995 904.519 990.292 902.95 993.91 904.631C997.53 906.313 999.099 910.609 997.418 914.227C995.737 917.847 991.44 919.417 987.822 917.737C984.202 916.054 982.633 911.757 984.313 908.138Z" fill="#FFA100"/>
<path d="M990.194 907.974C990.194 906.722 991.209 905.707 992.462 905.707C993.714 905.707 994.73 906.722 994.73 907.974C994.73 909.227 993.714 910.243 992.462 910.243C991.209 910.242 990.194 909.227 990.194 907.974Z" fill="#89CFDB"/>
<path d="M870.763 910.288C872.575 906.389 877.206 904.695 881.105 906.508C885.005 908.32 886.699 912.95 884.886 916.851C883.073 920.75 878.443 922.444 874.543 920.632C870.643 918.819 868.95 914.188 870.763 910.288Z" fill="#FFA100"/>
<path d="M877.099 910.11C877.099 908.76 878.193 907.668 879.543 907.668C880.892 907.668 881.986 908.761 881.986 910.11C881.986 911.459 880.891 912.554 879.543 912.554C878.193 912.555 877.099 911.46 877.099 910.11Z" fill="#89CFDB"/>
<path d="M948.268 898.87C948.268 893.787 944.148 889.667 939.065 889.667C933.983 889.667 929.863 893.787 929.863 898.87C929.863 903.953 933.983 908.073 939.065 908.073C944.148 908.073 948.268 903.953 948.268 898.87Z" fill="#8F3B99"/>
<path d="M939.92 894.782C939.92 893.188 938.628 891.895 937.033 891.895C935.437 891.895 934.145 893.188 934.145 894.782C934.145 896.378 935.437 897.672 937.033 897.672C938.628 897.672 939.92 896.378 939.92 894.782Z" fill="#FFB37B"/>
<path d="M1459.43 892.363C1459.43 888.075 1462.91 884.6 1467.2 884.6C1471.48 884.6 1474.96 888.075 1474.96 892.363C1474.96 896.65 1471.48 900.125 1467.2 900.125C1462.91 900.125 1459.43 896.65 1459.43 892.363Z" fill="#8F3B99"/>
<path d="M1466.47 888.915C1466.47 887.569 1467.56 886.479 1468.91 886.479C1470.26 886.479 1471.35 887.57 1471.35 888.915C1471.35 890.26 1470.26 891.351 1468.91 891.351C1467.56 891.351 1466.47 890.26 1466.47 888.915Z" fill="#FFB37B"/>
<path d="M1373.46 889.715C1373.46 885.346 1377 881.805 1381.37 881.805C1385.74 881.805 1389.28 885.346 1389.28 889.715C1389.28 894.085 1385.74 897.627 1381.37 897.627C1377 897.627 1373.46 894.085 1373.46 889.715Z" fill="#8F3B99"/>
<path d="M1380.64 886.203C1380.64 884.832 1381.75 883.721 1383.12 883.721C1384.49 883.721 1385.6 884.832 1385.6 886.203C1385.6 887.574 1384.49 888.685 1383.12 888.685C1381.75 888.685 1380.64 887.574 1380.64 886.203Z" fill="#FFB37B"/>
<path d="M1484.53 909.031C1486.22 905.382 1490.56 903.798 1494.21 905.494C1497.85 907.189 1499.44 911.521 1497.74 915.171C1496.05 918.819 1491.72 920.403 1488.07 918.708C1484.42 917.012 1482.83 912.68 1484.53 909.031Z" fill="#FFA100"/>
<path d="M1490.46 908.865C1490.46 907.602 1491.48 906.579 1492.74 906.579C1494.01 906.579 1495.03 907.602 1495.03 908.865C1495.03 910.128 1494.01 911.152 1492.74 911.152C1491.48 911.152 1490.46 910.128 1490.46 908.865Z" fill="#89CFDB"/>
<path d="M1119.83 636.819C1119.83 632.121 1123.64 628.311 1128.34 628.311C1133.03 628.311 1136.84 632.121 1136.84 636.819C1136.84 641.518 1133.03 645.327 1128.34 645.327C1123.64 645.327 1119.83 641.518 1119.83 636.819Z" fill="#8F3B99"/>
<path d="M1127.55 633.041C1127.55 631.566 1128.74 630.371 1130.22 630.371C1131.69 630.371 1132.89 631.567 1132.89 633.041C1132.89 634.516 1131.69 635.711 1130.22 635.711C1128.74 635.711 1127.55 634.516 1127.55 633.041Z" fill="#FFB37B"/>
<path d="M1151.23 652.137C1152.34 649.751 1155.18 648.716 1157.56 649.825C1159.95 650.935 1160.98 653.767 1159.88 656.153C1158.77 658.539 1155.93 659.575 1153.55 658.465C1151.16 657.357 1150.13 654.523 1151.23 652.137Z" fill="#FFA100"/>
<path d="M1155.11 652.029C1155.11 651.204 1155.78 650.535 1156.61 650.535C1157.43 650.535 1158.1 651.203 1158.1 652.029C1158.1 652.856 1157.43 653.524 1156.61 653.524C1155.78 653.524 1155.11 652.856 1155.11 652.029Z" fill="#89CFDB"/>
<path d="M1350.77 642.379C1350.77 638.245 1354.12 634.896 1358.25 634.896C1362.39 634.896 1365.74 638.245 1365.74 642.379C1365.74 646.511 1362.38 649.862 1358.25 649.862C1354.12 649.862 1350.77 646.511 1350.77 642.379Z" fill="#8F3B99"/>
<path d="M1357.56 639.056C1357.56 637.759 1358.61 636.708 1359.91 636.708C1361.2 636.708 1362.26 637.759 1362.26 639.056C1362.26 640.353 1361.2 641.405 1359.91 641.405C1358.61 641.405 1357.56 640.353 1357.56 639.056Z" fill="#FFB37B"/>
<path d="M1237.61 638.675C1239.17 635.318 1243.16 633.862 1246.52 635.422C1249.87 636.981 1251.33 640.967 1249.77 644.324C1248.21 647.68 1244.22 649.137 1240.87 647.577C1237.51 646.018 1236.06 642.033 1237.61 638.675Z" fill="#FFA100"/>
<path d="M1243.07 638.523C1243.07 637.361 1244.01 636.419 1245.17 636.419C1246.33 636.419 1247.28 637.361 1247.28 638.523C1247.28 639.685 1246.34 640.627 1245.17 640.627C1244.01 640.627 1243.07 639.685 1243.07 638.523Z" fill="#89CFDB"/>
<path d="M1548.58 888.916C1548.58 883.358 1544.08 878.852 1538.52 878.852C1532.96 878.852 1528.45 883.359 1528.45 888.916C1528.45 894.473 1532.96 898.979 1538.52 898.979C1544.08 898.979 1548.58 894.473 1548.58 888.916Z" fill="#8F3B99"/>
<path d="M1539.45 884.447C1539.45 882.703 1538.04 881.288 1536.3 881.288C1534.55 881.288 1533.14 882.703 1533.14 884.447C1533.14 886.191 1534.55 887.604 1536.3 887.604C1538.04 887.605 1539.45 886.191 1539.45 884.447Z" fill="#FFB37B"/>
<path d="M1608.41 1073.95C1608.41 1073.95 1471.7 1123.8 1537.82 1224.07C1537.82 1224.07 1638.65 1185.22 1608.41 1073.95Z" fill="#6F36BB"/>
<path d="M1442.87 1169.08C1442.87 1169.08 1463.36 1256.58 1529.72 1223.44C1529.72 1223.44 1513.33 1158.75 1442.87 1169.08Z" fill="#FFDE69"/>
<path d="M1459.43 1214.38C1459.43 1210.09 1462.91 1206.62 1467.2 1206.62C1471.48 1206.62 1474.96 1210.09 1474.96 1214.38C1474.96 1218.67 1471.48 1222.14 1467.2 1222.14C1462.91 1222.14 1459.43 1218.67 1459.43 1214.38Z" fill="#8F3B99"/>
<path d="M1466.47 1210.93C1466.47 1209.59 1467.56 1208.49 1468.91 1208.49C1470.26 1208.49 1471.35 1209.59 1471.35 1210.93C1471.35 1212.28 1470.26 1213.37 1468.91 1213.37C1467.56 1213.37 1466.47 1212.28 1466.47 1210.93Z" fill="#FFB37B"/>
<path d="M1484.53 1231.05C1486.22 1227.4 1490.56 1225.82 1494.21 1227.51C1497.85 1229.21 1499.44 1233.54 1497.74 1237.19C1496.05 1240.84 1491.72 1242.42 1488.07 1240.72C1484.42 1239.03 1482.83 1234.7 1484.53 1231.05Z" fill="#FFA100"/>
<path d="M1490.46 1230.88C1490.46 1229.62 1491.48 1228.6 1492.74 1228.6C1494.01 1228.6 1495.03 1229.62 1495.03 1230.88C1495.03 1232.15 1494.01 1233.17 1492.74 1233.17C1491.48 1233.17 1490.46 1232.15 1490.46 1230.88Z" fill="#89CFDB"/>
<path d="M1548.58 1210.93C1548.58 1205.37 1544.08 1200.87 1538.52 1200.87C1532.96 1200.87 1528.45 1205.37 1528.45 1210.93C1528.45 1216.49 1532.96 1221 1538.52 1221C1544.08 1221 1548.58 1216.49 1548.58 1210.93Z" fill="#8F3B99"/>
<path d="M1539.45 1206.46C1539.45 1204.72 1538.04 1203.3 1536.3 1203.3C1534.55 1203.3 1533.14 1204.72 1533.14 1206.46C1533.14 1208.21 1534.55 1209.62 1536.3 1209.62C1538.04 1209.62 1539.45 1208.21 1539.45 1206.46Z" fill="#FFB37B"/>
<path d="M1483.83 1469.89L1486.79 1469.16C1477.12 1449.59 1459.77 1434.8 1445.51 1427.14C1433.02 1420.44 1422.67 1417.44 1418.96 1416.47C1418.05 1416.23 1417.09 1416.46 1416.38 1417.07L1413.63 1419.43C1412.27 1420.6 1412.76 1422.81 1414.48 1423.28C1427.73 1426.91 1469.22 1440.34 1483.83 1469.89Z" fill="#8F3B99"/>
<path d="M1534.38 1481.82C1525.4 1445.41 1504.25 1450.62 1478.15 1457.06C1452.05 1463.5 1430.89 1468.72 1439.87 1505.13C1446.31 1531.23 1472.69 1547.17 1498.79 1540.73C1524.88 1534.29 1540.82 1507.92 1534.38 1481.82Z" fill="#6F36BB"/>
<path d="M1511.78 1482.59C1519.56 1498.23 1519.49 1515.72 1513.05 1530.57C1523.61 1518.97 1528.39 1502.48 1524.35 1486.11C1517.81 1459.59 1504.81 1455.14 1488.15 1457.19C1496.57 1460.15 1504.41 1467.75 1511.78 1482.59Z" fill="#522B73"/>
<path d="M1648.03 1174.2L1645.77 1173.64C1653.14 1158.72 1666.38 1147.43 1677.26 1141.59C1686.79 1136.48 1694.68 1134.19 1697.51 1133.45C1698.2 1133.27 1698.94 1133.44 1699.48 1133.91L1701.58 1135.71C1702.61 1136.6 1702.24 1138.29 1700.92 1138.65C1690.82 1141.42 1659.17 1151.66 1648.03 1174.2Z" fill="#522B73"/>
<path d="M1609.47 1183.3C1616.32 1155.53 1632.46 1159.51 1652.36 1164.42C1672.27 1169.33 1688.41 1173.31 1681.56 1201.08C1676.65 1220.99 1656.53 1233.15 1636.62 1228.24C1616.72 1223.33 1604.56 1203.21 1609.47 1183.3Z" fill="#6F36BB"/>
<path d="M1626.71 1183.89C1620.77 1195.82 1620.83 1209.16 1625.74 1220.49C1617.69 1211.64 1614.04 1199.06 1617.13 1186.57C1622.11 1166.35 1632.02 1162.95 1644.74 1164.51C1638.31 1166.78 1632.34 1172.57 1626.71 1183.89Z" fill="#522B73"/>
<defs>
<linearGradient id="paint0_linear_18_1212" x1="693.727" y1="190.277" x2="964.419" y2="460.969" gradientUnits="userSpaceOnUse">
<stop stop-color="#114BDC"/>
<stop offset="1" stop-color="#7DA2FF"/>
</linearGradient>
<linearGradient id="paint1_linear_18_1212" x1="443.457" y1="385.909" x2="443.457" y2="543.558" gradientUnits="userSpaceOnUse">
<stop stop-color="#114BDC"/>
<stop offset="1" stop-color="#7DA2FF"/>
</linearGradient>
<linearGradient id="paint2_linear_18_1212" x1="1172.17" y1="99.7439" x2="1172.17" y2="1623.02" gradientUnits="userSpaceOnUse">
<stop stop-color="#114BDC"/>
<stop offset="1" stop-color="#7DA2FF"/>
</linearGradient>
</defs>
</svg>
