<svg width="498" height="380" viewBox="0 0 498 380" fill="none" xmlns="http://www.w3.org/2000/svg">
<path opacity="0.5" d="M194.087 84.055C116.663 127.214 -35.8208 233.844 8.00021 379.241H430.984C430.984 379.241 580.5 27 430.984 8.75904C281.468 -9.48193 277.294 8.75904 277.294 8.75904C261.716 31.69 235.602 60.913 194.087 84.055Z" fill="url(#paint0_linear_1_274)"/>
<path opacity="0.5" d="M409.462 307.684C381.163 323.459 342.838 347.714 307.735 379.241H430.984V294.27C424.317 298.897 417.155 303.396 409.462 307.684Z" fill="url(#paint1_linear_1_274)"/>
<path d="M322.047 169.483C322.047 169.483 317.005 204.722 302.339 215.055" stroke="url(#paint2_linear_1_274)" stroke-miterlimit="10"/>
<path d="M344.684 160.84C344.684 160.84 324.634 206.388 310.986 218.555" stroke="url(#paint3_linear_1_274)" stroke-miterlimit="10"/>
<path d="M358.306 189.055C358.306 189.055 333.554 215.473 313.672 220.888" stroke="url(#paint4_linear_1_274)" stroke-miterlimit="10"/>
<path d="M345.939 157.498C345.939 157.498 337.603 144.224 338.269 128.535C338.935 112.846 354.881 100.635 367.21 106.056C379.539 111.477 381.062 127.272 374.712 139.155C368.361 151.039 351.566 156.611 345.939 157.498Z" fill="url(#paint5_linear_1_274)"/>
<path opacity="0.5" d="M374.501 125.67C373.493 130.583 371.168 134.257 369.309 133.876C367.449 133.494 366.759 129.202 367.767 124.289C368.775 119.376 371.1 115.702 372.959 116.083C374.818 116.464 375.509 120.757 374.501 125.67Z" fill="url(#paint6_linear_1_274)"/>
<path opacity="0.5" d="M368.636 139.951C368.414 141.033 367.357 141.73 366.275 141.508C365.193 141.286 364.496 140.229 364.718 139.147C364.94 138.065 365.997 137.368 367.079 137.59C368.161 137.812 368.858 138.869 368.636 139.951Z" fill="url(#paint7_linear_1_274)"/>
<path d="M345.939 157.498L342.868 160.441C343.448 161.87 345.006 162.639 346.493 162.232L346.499 162.23L345.939 157.498Z" fill="url(#paint8_linear_1_274)"/>
<path d="M360.719 185.89C360.719 185.89 359.283 170.281 366.967 156.587C374.652 142.893 394.395 139.207 402.943 149.615C411.491 160.023 405.711 174.802 394.676 182.531C383.64 190.261 366.14 187.641 360.719 185.89Z" fill="url(#paint9_linear_1_274)"/>
<path opacity="0.5" d="M400.583 170.406C397.463 174.333 393.729 176.56 392.243 175.379C390.756 174.198 392.08 170.057 395.2 166.13C398.32 162.202 402.054 159.976 403.54 161.157C405.026 162.338 403.702 166.479 400.583 170.406Z" fill="url(#paint10_linear_1_274)"/>
<path opacity="0.5" d="M388.897 180.495C388.21 181.36 386.952 181.504 386.087 180.817C385.222 180.13 385.078 178.872 385.765 178.007C386.452 177.142 387.71 176.998 388.575 177.685C389.44 178.372 389.584 179.63 388.897 180.495Z" fill="url(#paint11_linear_1_274)"/>
<path d="M360.719 185.89L356.65 187.127C356.522 188.664 357.563 190.054 359.074 190.363L359.08 190.364L360.719 185.89Z" fill="url(#paint12_linear_1_274)"/>
<path d="M144.732 164.348C144.732 164.348 148.582 151.888 149.332 151.222C150.082 150.555 150.969 149.389 151.525 149.722C152.082 150.055 157.082 169.389 156.415 171.222C155.748 173.055 153.326 170.889 153.326 170.889C153.326 170.889 143.261 168.987 144.732 164.348Z" fill="url(#paint13_linear_1_274)"/>
<path d="M119.177 206.979C119.177 206.979 121.153 224.722 117.746 230.555" stroke="url(#paint14_linear_1_274)" stroke-miterlimit="10"/>
<path d="M104.695 203.72C104.695 203.72 112.588 220.319 114.213 227.854" stroke="url(#paint15_linear_1_274)" stroke-miterlimit="10"/>
<path d="M108.41 196.183C109.193 194.697 109.206 192.854 108.251 191.327C107.296 189.8 105.634 189.004 103.955 189.057C103.172 190.543 103.159 192.386 104.114 193.913C105.069 195.441 106.73 196.236 108.41 196.183Z" fill="url(#paint16_linear_1_274)"/>
<path d="M103.482 225.554C103.179 223.274 101.733 221.206 99.4559 220.257C97.1789 219.308 94.6929 219.736 92.8599 221.126C93.1629 223.406 94.6089 225.474 96.8859 226.423C99.1629 227.373 101.65 226.944 103.482 225.554Z" fill="url(#paint17_linear_1_274)"/>
<path d="M118.708 196.608C120.775 196.224 122.593 194.807 123.352 192.684C124.111 190.562 123.603 188.313 122.248 186.705C120.181 187.089 118.362 188.506 117.604 190.629C116.845 192.751 117.353 195.001 118.708 196.608Z" fill="url(#paint18_linear_1_274)"/>
<path d="M118.701 226.759C119.74 224.283 119.669 220.441 118.241 216.478C116.813 212.515 114.417 209.51 112.038 208.266C110.999 210.742 111.07 214.584 112.498 218.547C113.926 222.51 116.322 225.515 118.701 226.759Z" fill="url(#paint19_linear_1_274)"/>
<path d="M112.658 227.845C112.915 224.619 111.363 220.64 108.192 217.361C105.021 214.082 101.096 212.397 97.8629 212.546C97.6059 215.772 99.1579 219.751 102.329 223.03C105.5 226.308 109.425 227.993 112.658 227.845Z" fill="url(#paint20_linear_1_274)"/>
<path d="M119.196 227.216C121.738 227.17 124.719 225.654 127.019 222.927C129.319 220.2 130.312 217.006 129.929 214.493C127.387 214.539 124.406 216.055 122.106 218.782C119.806 221.508 118.813 224.702 119.196 227.216Z" fill="url(#paint21_linear_1_274)"/>
<path d="M97.6679 208.874C97.4379 206.784 96.1589 204.866 94.0979 203.952C92.0379 203.038 89.7569 203.379 88.0539 204.611C88.2839 206.701 89.5629 208.619 91.6229 209.533C93.6839 210.447 95.9639 210.106 97.6679 208.874Z" fill="url(#paint22_linear_1_274)"/>
<path d="M117.511 189.264C116.114 188.446 114.397 188.665 113.249 189.687C111.924 188.91 110.197 189.031 108.987 190.107C107.777 191.183 107.455 192.884 108.072 194.291C106.924 195.311 106.505 196.991 107.155 198.474C107.807 199.962 109.333 200.795 110.868 200.636C111.485 202.04 112.938 202.961 114.547 202.802C116.162 202.642 117.409 201.446 117.733 199.941C119.266 199.794 120.6 198.695 120.947 197.11C121.293 195.531 120.547 193.981 119.225 193.204C119.562 191.698 118.913 190.085 117.511 189.264Z" fill="url(#paint23_linear_1_274)"/>
<path d="M115.774 193.352C116.844 194.555 116.736 196.397 115.533 197.466C114.33 198.536 112.488 198.428 111.418 197.225C110.348 196.022 110.456 194.18 111.659 193.11C112.862 192.041 114.704 192.149 115.774 193.352Z" fill="white"/>
<path d="M95.4359 208.601C98.6899 208.194 101.658 210.501 102.065 213.755C102.472 217.009 100.164 219.977 96.9109 220.384C93.6569 220.791 90.6889 218.484 90.2819 215.23C89.8749 211.976 92.1829 209.008 95.4359 208.601Z" fill="url(#paint24_linear_1_274)"/>
<path d="M95.2349 211.02C96.8789 210.814 98.378 211.98 98.584 213.624C98.79 215.268 97.624 216.768 95.98 216.973C94.336 217.179 92.836 216.013 92.631 214.369C92.425 212.725 93.5909 211.225 95.2349 211.02Z" fill="#9D4EC5"/>
<path d="M108.949 196.036C107.961 194.317 106.002 193.507 104.161 193.896C103.224 192.265 101.314 191.345 99.3739 191.753C97.4339 192.162 96.058 193.775 95.859 195.645C94.018 196.032 92.553 197.564 92.342 199.536C92.131 201.515 93.248 203.328 94.976 204.09C94.78 205.958 95.764 207.82 97.571 208.628C99.385 209.439 101.438 208.925 102.698 207.522C104.417 208.297 106.503 207.939 107.835 206.465C109.162 204.996 109.311 202.895 108.378 201.266C109.65 199.871 109.941 197.761 108.949 196.036Z" fill="url(#paint25_linear_1_274)"/>
<path d="M104.617 199.327C105.023 201.256 103.79 203.149 101.861 203.555C99.9319 203.961 98.0389 202.727 97.6329 200.799C97.2259 198.87 98.46 196.977 100.389 196.571C102.318 196.164 104.211 197.398 104.617 199.327Z" fill="white"/>
<path d="M127.463 225.18H98.1719L99.8839 252.055H114.713L127.463 225.18Z" fill="url(#paint26_linear_1_274)"/>
<path d="M102.526 225.18L103.588 252.055" stroke="url(#paint27_linear_1_274)" stroke-miterlimit="10" stroke-linecap="round"/>
<path d="M108.338 225.18V252.055" stroke="url(#paint28_linear_1_274)" stroke-miterlimit="10" stroke-linecap="round"/>
<path d="M114.213 225.18L112.526 252.055" stroke="url(#paint29_linear_1_274)" stroke-miterlimit="10" stroke-linecap="round"/>
<path d="M120.478 225.18L117.746 245.663" stroke="url(#paint30_linear_1_274)" stroke-miterlimit="10" stroke-linecap="round"/>
<path d="M99.8839 252.055L98.1719 225.18H127.463" stroke="url(#paint31_linear_1_274)" stroke-miterlimit="10" stroke-linecap="round"/>
<path d="M266.276 325.294C282.104 325.294 294.936 312.462 294.936 296.634C294.936 280.806 282.104 267.974 266.276 267.974C250.447 267.974 237.616 280.806 237.616 296.634C237.616 312.462 250.447 325.294 266.276 325.294Z" fill="url(#paint32_linear_1_274)"/>
<path d="M266.276 311.994C274.759 311.994 281.636 305.117 281.636 296.634C281.636 288.151 274.759 281.274 266.276 281.274C257.793 281.274 250.916 288.151 250.916 296.634C250.916 305.117 257.793 311.994 266.276 311.994Z" fill="url(#paint33_linear_1_274)"/>
<path d="M266.276 310.009C273.663 310.009 279.651 304.021 279.651 296.634C279.651 289.247 273.663 283.259 266.276 283.259C258.889 283.259 252.901 289.247 252.901 296.634C252.901 304.021 258.889 310.009 266.276 310.009Z" fill="url(#paint34_linear_1_274)"/>
<path d="M266.276 306.759C271.868 306.759 276.401 302.226 276.401 296.634C276.401 291.042 271.868 286.509 266.276 286.509C260.684 286.509 256.151 291.042 256.151 296.634C256.151 302.226 260.684 306.759 266.276 306.759Z" fill="url(#paint35_linear_1_274)"/>
<path d="M269.984 296.634C269.984 298.682 268.324 300.342 266.276 300.342C264.228 300.342 262.568 298.682 262.568 296.634C262.568 294.586 264.228 292.926 266.276 292.926C268.324 292.925 269.984 294.586 269.984 296.634Z" fill="url(#paint36_linear_1_274)"/>
<path d="M294.936 296.634C294.936 280.806 282.105 267.974 266.276 267.974C250.448 267.974 237.616 280.806 237.616 296.634C237.616 299.796 238.136 302.835 239.081 305.679H293.47C294.416 302.835 294.936 299.796 294.936 296.634Z" fill="url(#paint37_linear_1_274)"/>
<path d="M110.009 325.294C125.837 325.294 138.669 312.462 138.669 296.634C138.669 280.806 125.837 267.974 110.009 267.974C94.1805 267.974 81.3489 280.806 81.3489 296.634C81.3489 312.462 94.1805 325.294 110.009 325.294Z" fill="url(#paint38_linear_1_274)"/>
<path d="M110.009 311.994C118.492 311.994 125.369 305.117 125.369 296.634C125.369 288.151 118.492 281.274 110.009 281.274C101.526 281.274 94.6489 288.151 94.6489 296.634C94.6489 305.117 101.526 311.994 110.009 311.994Z" fill="url(#paint39_linear_1_274)"/>
<path d="M110.009 310.009C117.396 310.009 123.384 304.021 123.384 296.634C123.384 289.247 117.396 283.259 110.009 283.259C102.622 283.259 96.6339 289.247 96.6339 296.634C96.6339 304.021 102.622 310.009 110.009 310.009Z" fill="url(#paint40_linear_1_274)"/>
<path d="M110.009 306.759C115.601 306.759 120.134 302.226 120.134 296.634C120.134 291.042 115.601 286.509 110.009 286.509C104.417 286.509 99.8839 291.042 99.8839 296.634C99.8839 302.226 104.417 306.759 110.009 306.759Z" fill="url(#paint41_linear_1_274)"/>
<path d="M113.717 296.634C113.717 298.682 112.057 300.342 110.009 300.342C107.961 300.342 106.301 298.682 106.301 296.634C106.301 294.586 107.961 292.926 110.009 292.926C112.057 292.925 113.717 294.586 113.717 296.634Z" fill="url(#paint42_linear_1_274)"/>
<path d="M133.786 280.628C127.831 274.301 119.384 270.347 110.009 270.347C100.593 270.347 92.1269 274.349 86.1689 280.725C83.8199 284.239 82.231 288.301 81.627 292.678H106.551C110.794 292.678 114.869 294.34 117.901 297.309L123.196 302.492C126.598 305.823 131.17 307.688 135.931 307.688H136.456C137.88 304.286 138.669 300.552 138.669 296.633C138.669 290.706 136.869 285.199 133.786 280.628Z" fill="url(#paint43_linear_1_274)"/>
<path d="M147.997 203.72H137.588V216.09H147.997V203.72Z" fill="url(#paint44_linear_1_274)"/>
<path d="M143.501 294.765C142.815 293.107 142.294 291.39 141.911 289.637C138.708 274.962 125.644 263.973 110.008 263.973C95.8149 263.973 83.7449 273.03 79.2409 285.677C79.1329 285.981 79.365 286.304 79.687 286.304H106.55C110.793 286.304 114.868 287.966 117.9 290.935L123.195 296.118C126.597 299.449 131.169 301.314 135.93 301.314H142.328H143.699C144.895 301.314 145.711 300.104 145.253 298.999C144.724 297.72 144.062 296.12 143.501 294.765Z" fill="url(#paint45_linear_1_274)"/>
<path d="M143.501 294.765C142.815 293.107 142.294 291.39 141.911 289.637C140.867 284.854 138.771 280.468 135.884 276.721H105.99C102.869 276.721 99.9479 278.259 98.1809 280.832L94.424 286.305H106.55C110.793 286.305 114.868 287.967 117.9 290.936L123.195 296.119C126.597 299.45 131.169 301.315 135.931 301.315H142.329H143.7C144.896 301.315 145.711 300.105 145.254 299C144.724 297.72 144.062 296.12 143.501 294.765Z" fill="url(#paint46_linear_1_274)"/>
<path d="M147.672 289.388H182.879C197.4 289.388 209.172 277.616 209.172 263.095C209.172 256.057 205.417 249.554 199.323 246.035C195.703 243.945 193.472 240.082 193.472 235.902V232.389H287.422L302.339 290.609H227.589V299.325H154.339L147.672 289.388Z" fill="url(#paint47_linear_1_274)"/>
<path d="M227.588 299.324C227.588 299.324 207.871 279.555 214.171 256.388C220.472 233.221 258.338 233.721 281.004 245.555C303.671 257.388 307.337 299.324 307.337 299.324H227.588Z" fill="url(#paint48_linear_1_274)"/>
<path d="M233.348 299.324H154.338L161.588 302.805H233.348C234.309 302.805 235.088 302.026 235.088 301.065C235.088 300.103 234.309 299.324 233.348 299.324Z" fill="url(#paint49_linear_1_274)"/>
<path d="M151.838 198.055C151.838 198.055 149.338 193.305 144.463 190.68C140.826 188.722 132.527 188.433 128.547 188.413C127.328 188.407 126.338 189.39 126.338 190.609V203.36C126.338 204.573 127.321 205.555 128.533 205.555H152.082L151.838 198.055Z" fill="url(#paint50_linear_1_274)"/>
<path d="M339.505 304.388L322.338 287.933C322.338 287.933 344.177 284.555 344.341 293.388C344.505 302.222 339.505 304.388 339.505 304.388Z" fill="url(#paint51_linear_1_274)"/>
<path d="M256.338 290.555C256.338 290.555 265.338 304.388 289.171 304.388C313.004 304.388 324.157 287.197 335.831 291.209C347.505 295.221 333.005 299.721 339.505 304.388C346.005 309.055 363.172 300.221 369.005 291.388C374.838 282.555 392.838 273.555 392.838 273.555C392.838 273.555 382.505 266.222 371.171 266.055C359.838 265.888 260.588 260.305 256.338 290.555Z" fill="url(#paint52_linear_1_274)"/>
<path d="M353.658 287.933L331.005 266.555C331.005 266.555 351.172 258.555 356.005 270.222C360.838 281.888 353.658 287.933 353.658 287.933Z" fill="url(#paint53_linear_1_274)"/>
<path d="M289.585 289.831L277.838 273.221C277.838 273.221 287.338 267.554 291.505 274.221C295.672 280.888 289.585 289.831 289.585 289.831Z" fill="url(#paint54_linear_1_274)"/>
<path d="M282.026 139.972C282.026 139.972 291.005 156.526 299.172 164.457C307.339 172.388 317.653 178.344 317.653 178.344C317.653 178.344 310.338 182.18 308.505 189.951C306.672 197.722 299.519 206.055 284.012 202.222C268.505 198.389 257.505 149.272 257.505 149.272L282.026 139.972Z" fill="url(#paint55_linear_1_274)"/>
<path d="M252.088 126.18C252.088 126.18 257.255 117.388 264.005 116.472C270.755 115.555 271.588 120.055 271.588 120.055C271.588 120.055 277.505 119.555 281.755 123.638C286.005 127.721 282.422 131.138 282.422 131.138C282.422 131.138 288.005 135.555 288.255 139.555C288.505 143.555 284.088 144.305 284.088 144.305C284.088 144.305 285.588 153.805 273.921 151.638C262.255 149.472 252.088 126.18 252.088 126.18Z" fill="url(#paint56_linear_1_274)"/>
<path d="M271.588 154.597C271.588 154.597 283.217 159.305 283.361 170.222C283.505 181.139 247.587 169.163 247.587 169.163C247.587 169.163 247.338 157.305 254.838 155.222C262.338 153.138 271.588 154.597 271.588 154.597Z" fill="url(#paint57_linear_1_274)"/>
<path d="M248.838 148.638C248.838 148.638 246.659 146.305 246.655 139.305C246.651 132.305 249.061 126.808 252.088 124.888C255.505 122.721 258.755 124.888 258.755 124.888C258.755 124.888 265.474 122.971 270.922 129.221C275.661 134.658 276.005 146.554 275.589 150.138C275.172 153.721 273.089 156.971 267.922 156.471C262.755 155.971 248.838 148.638 248.838 148.638Z" fill="url(#paint58_linear_1_274)"/>
<path d="M238.338 185.222C238.338 185.222 241.505 191.764 242.838 195.326C244.171 198.888 246.505 211.541 246.505 211.541L288.672 212.222L281.505 174.889L242.005 173.222L238.338 185.222Z" fill="url(#paint59_linear_1_274)"/>
<path d="M254.838 155.222L253.505 163.055L241.338 168.472L242.088 177.139C242.088 177.139 251.088 178.389 262.588 178.139C274.088 177.889 279.463 177.181 279.463 177.181L283.338 189.056L291.213 185.056C291.213 185.056 289.463 174.598 287.463 172.139C285.463 169.681 269.213 161.431 269.213 161.431L268.338 149.272L254.838 155.222Z" fill="url(#paint60_linear_1_274)"/>
<path d="M145.297 200.085C145.297 200.085 137.08 203.822 136.683 205.094C136.285 206.366 143.521 210.307 146.861 207.701C150.201 205.094 145.659 199.876 145.297 200.085Z" fill="url(#paint61_linear_1_274)"/>
<path d="M144.092 202.271C144.092 202.271 139.262 204.468 139.029 205.216C138.795 205.964 143.049 208.28 145.012 206.748C146.974 205.215 144.305 202.148 144.092 202.271Z" fill="url(#paint62_linear_1_274)"/>
<path d="M160.505 195.388C160.505 195.388 152.526 195.93 151.463 196.117C150.4 196.304 144.025 199.68 143.088 201.18C142.151 202.68 144.776 207.93 146.901 209.743C149.026 211.556 152.151 211.681 154.276 210.431C156.401 209.181 157.089 208.118 157.089 208.118C157.089 208.118 162.277 207.68 163.777 204.868C165.277 202.056 160.505 195.388 160.505 195.388Z" fill="url(#paint63_linear_1_274)"/>
<path d="M202.395 211.541L167.178 214.749C160.847 215.326 156.765 221.725 158.912 227.709L180.504 287.888H197.171C197.171 287.888 188.504 247.555 185.671 242.888C185.359 242.374 181.338 236.055 181.338 236.055L220.472 234.011C224.026 233.825 227.376 232.291 229.838 229.722L202.395 211.541Z" fill="url(#paint64_linear_1_274)"/>
<path d="M229.838 229.722L202.395 211.542L180.163 213.567L198.852 235.141L220.472 234.012C224.026 233.825 227.376 232.291 229.838 229.722Z" fill="url(#paint65_linear_1_274)"/>
<path d="M215.338 133.305C215.338 133.305 210.338 129.555 211.713 121.055C213.088 112.555 219.963 114.805 219.963 114.805C219.963 114.805 226.588 109.141 234.088 114.535C241.588 119.93 243.588 126.18 244.838 128.242C246.088 130.304 246.713 130.867 246.651 131.367C246.589 131.867 243.651 131.555 243.651 131.555C243.651 131.555 244.964 137.555 243.026 142.243C241.088 146.931 237.033 149.272 237.033 149.272L215.338 133.305Z" fill="url(#paint66_linear_1_274)"/>
<path d="M237.338 139.972L238.588 153.888H222.505L221.672 149.138L237.338 139.972Z" fill="url(#paint67_linear_1_274)"/>
<path d="M219.213 118.911C219.213 118.911 214.838 125.055 214.338 127.139C213.838 129.222 213.338 139.389 213.838 141.306C214.338 143.223 217.588 150.973 220.088 150.973C222.588 150.973 230.171 148.806 232.838 146.89C235.505 144.973 236.171 141.64 236.171 141.64C236.171 141.64 240.041 141.41 240.773 138.983C241.504 136.557 239.754 134.473 238.338 134.39C236.921 134.307 235.171 136.057 235.171 136.057L234.338 133.724C234.338 133.722 220.672 124.6 219.213 118.911Z" fill="url(#paint68_linear_1_274)"/>
<path d="M160.505 195.388C160.505 195.388 190.338 184.221 192.838 183.388C195.338 182.555 198.838 181.888 198.838 181.888C198.838 181.888 221.171 157.555 224.171 155.721C227.171 153.888 238.052 154.388 240.945 156.554C243.838 158.721 245.004 169.387 243.838 176.221C242.671 183.054 239.005 208.054 238.338 213.721C237.671 219.388 234.505 236.054 234.505 236.054C234.505 236.054 218.172 223.054 210.838 217.554C203.505 212.054 200.177 210.133 200.177 210.133L205.504 207.387L205.837 197.054L163.337 207.387L160.505 195.388Z" fill="url(#paint69_linear_1_274)"/>
<path opacity="0.2" d="M227.673 181.66C231.871 175.374 232.505 170.722 232.505 170.722C232.505 170.722 216.838 187.222 212.838 191.222C208.838 195.222 205.838 197.055 205.838 197.055L205.733 200.308L205.505 207.389C205.505 207.389 223.588 189.056 227.669 181.666L227.677 181.657L227.673 181.66Z" fill="url(#paint70_linear_1_274)"/>
<path d="M180.505 287.888L166.975 293.38C164.978 294.191 163.671 296.131 163.671 298.287V299.388H197.752C199.352 299.388 200.482 297.821 199.976 296.303L197.171 287.888H180.505Z" fill="url(#paint71_linear_1_274)"/>
<path d="M154.213 210.93C156.526 210.93 158.401 209.055 158.401 206.742C158.401 204.429 156.526 202.554 154.213 202.554C151.9 202.554 150.025 204.429 150.025 206.742C150.025 209.055 151.9 210.93 154.213 210.93Z" fill="url(#paint72_linear_1_274)"/>
<path d="M249.505 133.859C249.505 133.859 247.526 144.305 247.589 148.055C247.652 151.805 251.993 156.459 254.777 156.993C257.561 157.526 263.186 154.278 264.981 153.242C266.775 152.206 267.652 150.555 267.652 150.555C267.652 150.555 269.806 150.93 271.277 149.271C272.748 147.613 272.902 145.113 271.965 144.365C271.027 143.617 269.462 144.521 269.462 144.521C269.462 144.521 270.84 137.742 268.152 134.367C265.464 130.992 258.777 127.596 255.214 128.221C251.651 128.846 249.748 132.534 249.505 133.859Z" fill="url(#paint73_linear_1_274)"/>
<path d="M205.001 198.805C205.001 198.805 206.838 197.18 209.588 196.68C212.338 196.18 216.838 196.117 218.088 197.18C219.338 198.243 218.713 200.305 218.713 200.305C218.713 200.305 219.234 201.368 219.005 202.368C218.776 203.368 216.935 204.431 216.935 204.431C216.935 204.431 217.4 205.931 216.775 206.931C216.15 207.931 214.025 207.994 214.025 207.994C214.025 207.994 214.775 209.619 212.9 210.619C211.025 211.619 204.712 210.869 203.712 210.306C202.712 209.743 202.024 207.056 201.774 205.868C201.524 204.68 203.867 199.602 205.001 198.805Z" fill="url(#paint74_linear_1_274)"/>
<path d="M262.588 202.888L268.672 186.305L287.422 202.888L268.338 209.638L262.588 202.888Z" fill="url(#paint75_linear_1_274)"/>
<path d="M274.749 207.371C274.749 207.371 270.505 202.472 269.255 201.305C268.005 200.138 263.505 200.472 263.505 200.472C263.505 200.472 261.672 199.889 260.505 200.055C259.338 200.222 259.172 201.472 258.755 202.722C258.338 203.972 254.588 208.722 256.505 211.222C258.422 213.722 275.16 210.353 274.749 207.371Z" fill="url(#paint76_linear_1_274)"/>
<path d="M290.149 193.994C290.426 196.078 291.748 197.967 293.828 198.834C295.908 199.701 298.18 199.31 299.856 198.04C299.579 195.956 298.258 194.067 296.177 193.2C294.096 192.332 291.824 192.724 290.149 193.994Z" fill="url(#paint77_linear_1_274)"/>
<path d="M283.093 183.013C284.545 181.493 285.192 179.28 284.567 177.115C283.942 174.95 282.215 173.422 280.176 172.91C278.724 174.43 278.077 176.643 278.702 178.808C279.327 180.973 281.054 182.501 283.093 183.013Z" fill="url(#paint78_linear_1_274)"/>
<path d="M270.95 189.108C271.538 186.884 270.988 184.422 269.245 182.677C267.501 180.933 265.039 180.382 262.815 180.969C262.227 183.193 262.776 185.655 264.52 187.4C266.264 189.144 268.726 189.695 270.95 189.108Z" fill="url(#paint79_linear_1_274)"/>
<path d="M292.374 196.878C291.949 195.57 290.735 194.74 289.43 194.74C289.027 193.499 287.863 192.601 286.487 192.601C285.112 192.601 283.947 193.499 283.544 194.74C282.239 194.74 281.025 195.569 280.6 196.878C280.173 198.191 280.672 199.581 281.736 200.346C281.336 201.586 281.737 202.99 282.848 203.798C283.963 204.608 285.43 204.553 286.486 203.78C287.542 204.552 289.009 204.608 290.124 203.798C291.235 202.991 291.637 201.586 291.236 200.346C292.302 199.582 292.8 198.191 292.374 196.878Z" fill="url(#paint80_linear_1_274)"/>
<path d="M288.963 198.492C288.963 199.859 287.854 200.968 286.487 200.968C285.12 200.968 284.011 199.86 284.011 198.492C284.011 197.125 285.119 196.016 286.487 196.016C287.855 196.017 288.963 197.125 288.963 198.492Z" fill="white"/>
<path d="M286.709 182.158C286.292 180.874 285.101 180.06 283.82 180.06C283.425 178.842 282.282 177.961 280.932 177.961C279.582 177.961 278.439 178.842 278.044 180.06C276.763 180.06 275.572 180.874 275.155 182.158C274.736 183.446 275.226 184.811 276.27 185.562C275.877 186.778 276.271 188.157 277.362 188.949C278.456 189.744 279.896 189.69 280.932 188.932C281.968 189.69 283.408 189.744 284.503 188.949C285.593 188.157 285.988 186.778 285.595 185.562C286.638 184.812 287.127 183.447 286.709 182.158Z" fill="url(#paint81_linear_1_274)"/>
<path d="M280.931 186.172C282.273 186.172 283.361 185.084 283.361 183.742C283.361 182.4 282.273 181.312 280.931 181.312C279.589 181.312 278.501 182.4 278.501 183.742C278.501 185.084 279.589 186.172 280.931 186.172Z" fill="white"/>
<path d="M278.463 198.493C281.742 198.493 284.401 195.834 284.401 192.555C284.401 189.276 281.742 186.617 278.463 186.617C275.183 186.617 272.525 189.276 272.525 192.555C272.525 195.834 275.183 198.493 278.463 198.493Z" fill="url(#paint82_linear_1_274)"/>
<path d="M279.026 195.055C280.683 195.055 282.026 193.712 282.026 192.055C282.026 190.398 280.683 189.055 279.026 189.055C277.369 189.055 276.026 190.398 276.026 192.055C276.026 193.712 277.369 195.055 279.026 195.055Z" fill="#9D4EC5"/>
<path d="M277.13 185.347C277.13 187.89 275.069 189.951 272.526 189.951C269.983 189.951 267.922 187.89 267.922 185.347C267.922 182.804 269.983 180.743 272.526 180.743C275.069 180.742 277.13 182.804 277.13 185.347Z" fill="url(#paint83_linear_1_274)"/>
<path d="M271.983 186.617C273.268 186.617 274.309 185.576 274.309 184.291C274.309 183.006 273.268 181.965 271.983 181.965C270.698 181.965 269.657 183.006 269.657 184.291C269.657 185.576 270.698 186.617 271.983 186.617Z" fill="#0197F8"/>
<path d="M289.789 185.609C291.191 186.534 293.023 186.727 294.637 185.927C296.251 185.127 297.205 183.551 297.317 181.875C295.915 180.95 294.083 180.756 292.469 181.557C290.856 182.357 289.901 183.933 289.789 185.609Z" fill="url(#paint84_linear_1_274)"/>
<path d="M294.85 187.574C294.425 186.266 293.211 185.436 291.906 185.436C291.503 184.195 290.339 183.297 288.963 183.297C287.588 183.297 286.423 184.195 286.02 185.436C284.715 185.436 283.501 186.265 283.076 187.574C282.649 188.887 283.148 190.277 284.212 191.042C283.811 192.281 284.213 193.686 285.324 194.494C286.439 195.304 287.906 195.249 288.962 194.477C290.018 195.249 291.485 195.305 292.6 194.494C293.711 193.687 294.113 192.282 293.712 191.042C294.777 190.277 295.276 188.887 294.85 187.574Z" fill="url(#paint85_linear_1_274)"/>
<path d="M291.439 189.188C291.439 190.555 290.33 191.664 288.963 191.664C287.596 191.664 286.487 190.555 286.487 189.188C286.487 187.821 287.595 186.712 288.963 186.712C290.331 186.712 291.439 187.821 291.439 189.188Z" fill="white"/>
<path d="M257.838 209.555C257.838 209.555 239.594 206.786 232.505 219.805C225.415 232.824 230.838 253.055 236.588 261.055C242.338 269.055 256.338 290.555 256.338 290.555C256.338 290.555 270.505 275.555 282.671 275.555C294.837 275.555 285.171 289.222 290.838 290.555C296.505 291.888 332.005 267.888 345.838 270.222C359.671 272.555 349.671 286.889 354.671 288.722C359.671 290.555 367.338 272.222 377.004 271.055C386.671 269.888 392.837 273.555 392.837 273.555C392.837 273.555 328.837 223.555 312.837 216.055C296.837 208.555 288.424 210.937 288.424 210.937C288.424 210.937 277.463 203.805 257.838 209.555Z" fill="url(#paint86_linear_1_274)"/>
<path d="M310.986 270.975C293.634 263.395 259.838 237.555 259.838 237.555L287.698 277.048C288.126 277.448 288.443 277.913 288.671 278.428C290.48 282.512 286.832 289.613 290.838 290.555C294.309 291.372 308.971 282.688 322.993 276.369C320.103 275.02 316.215 273.259 310.986 270.975Z" fill="url(#paint87_linear_1_274)"/>
<path d="M295.002 222.305C295.002 222.305 304.468 238.868 317.653 248.961C328.537 257.293 344.288 267.892 349.459 271.341C357.711 275.452 350.2 287.082 354.672 288.721C359.047 290.325 365.463 276.492 373.473 272.225C358.415 265.222 314.078 243.511 295.002 222.305Z" fill="url(#paint88_linear_1_274)"/>
<path d="M131.588 188.477C130.439 188.435 129.392 188.417 128.547 188.413C127.328 188.407 126.338 189.39 126.338 190.608V203.359C126.338 204.572 127.321 205.554 128.533 205.554H131.588V188.477Z" fill="url(#paint89_linear_1_274)"/>
<path d="M137.088 208.555L118.47 248.451C116.949 251.71 114.156 254.2 110.744 255.337L109.615 255.713C107.597 256.386 106.113 258.114 105.753 260.21L105.088 264.082C116.603 265.019 127.259 270.54 134.666 279.406L149.485 297.145C152.481 300.732 156.914 302.805 161.588 302.805L138.438 267.756C136.169 264.32 135.629 260.024 136.978 256.134L148.108 224.043C150.737 216.464 145.11 208.555 137.088 208.555Z" fill="url(#paint90_linear_1_274)"/>
<path d="M110.745 255.336L109.616 255.712C107.598 256.385 106.114 258.113 105.754 260.209L105.089 264.081C108.235 264.337 111.313 264.947 114.283 265.862C114.284 265.86 114.288 265.855 114.288 265.855L137.09 208.554L118.472 248.45C116.95 251.709 114.156 254.199 110.745 255.336Z" fill="url(#paint91_linear_1_274)"/>
<path d="M161.588 302.805L138.438 267.756C136.169 264.32 135.629 260.024 136.978 256.134L148.108 224.043C150.736 216.465 145.109 208.556 137.087 208.556" stroke="url(#paint92_linear_1_274)" stroke-width="2" stroke-miterlimit="10" stroke-linecap="round"/>
<path d="M110.177 255.526L109.616 255.713C107.598 256.386 106.114 258.114 105.754 260.21L105.089 264.082C106.296 264.18 107.49 264.34 108.675 264.538L110.177 255.526Z" fill="url(#paint93_linear_1_274)"/>
<path d="M108.656 264.027C108.069 263.994 107.479 263.973 106.884 263.973C96.4219 263.973 87.1249 268.904 81.1499 276.557L82.8499 278.53C88.4689 270.113 97.8839 264.469 108.656 264.027Z" fill="url(#paint94_linear_1_274)"/>
<path d="M116.713 247.839H126.338" stroke="url(#paint95_linear_1_274)" stroke-width="2" stroke-miterlimit="10" stroke-linecap="round"/>
<path d="M134.588 225.18H127.463L114.713 252.055H98.838" stroke="url(#paint96_linear_1_274)" stroke-width="2" stroke-miterlimit="10" stroke-linecap="round" stroke-linejoin="round"/>
<path d="M129.073 199.422C128.421 197.416 126.56 196.143 124.559 196.144C123.941 194.241 122.156 192.864 120.047 192.864C117.938 192.864 116.152 194.241 115.535 196.144C113.534 196.143 111.673 197.416 111.021 199.422C110.367 201.435 111.132 203.567 112.763 204.74C112.149 206.641 112.765 208.795 114.469 210.033C116.179 211.275 118.429 211.19 120.048 210.006C121.667 211.19 123.917 211.275 125.627 210.033C127.331 208.795 127.947 206.641 127.333 204.74C128.962 203.567 129.727 201.435 129.073 199.422Z" fill="url(#paint97_linear_1_274)"/>
<path d="M120.047 205.693C122.143 205.693 123.843 203.993 123.843 201.897C123.843 199.801 122.143 198.101 120.047 198.101C117.95 198.101 116.251 199.801 116.251 201.897C116.251 203.993 117.95 205.693 120.047 205.693Z" fill="white"/>
<path d="M128.898 215.055C127.347 217.515 124.095 218.252 121.635 216.7C119.175 215.149 118.438 211.897 119.99 209.437C121.541 206.977 124.793 206.24 127.253 207.792C129.713 209.343 130.45 212.595 128.898 215.055Z" fill="url(#paint98_linear_1_274)"/>
<path d="M126.813 212.313C126.029 213.556 124.386 213.928 123.143 213.144C121.9 212.36 121.528 210.717 122.312 209.474C123.096 208.231 124.739 207.859 125.982 208.643C127.225 209.427 127.597 211.07 126.813 212.313Z" fill="#0197F8"/>
<path opacity="0.5" d="M357.678 325.293H37.1689V351.055H357.678V325.293Z" fill="url(#paint99_radial_1_274)"/>
<path d="M134.588 205.693L132.522 178.791C132.406 177.287 133.037 175.821 134.209 174.871L144.671 166.389" stroke="url(#paint100_linear_1_274)" stroke-width="2" stroke-miterlimit="10" stroke-linecap="round" stroke-linejoin="round"/>
<path d="M156.416 171.222C157.083 169.389 152.083 150.055 151.526 149.722C151.034 149.428 150.285 150.303 149.6 150.971C150.447 155.125 153.039 167.966 153.327 170.889C153.327 170.889 155.749 173.055 156.416 171.222Z" fill="url(#paint101_linear_1_274)"/>
<path d="M141.399 203.593C141.399 203.593 143.622 209.742 142.792 213.305C141.962 216.868 137.699 217.253 136.667 214.805C135.588 212.246 138.087 210.78 139.21 211.03C140.333 211.28 140.333 211.68 140.671 209.994C140.878 208.962 139.592 204.659 139.592 204.659L141.399 203.593Z" fill="url(#paint102_linear_1_274)"/>
<path d="M322.505 167.055C322.505 167.055 311.672 155.726 309.172 140.224C306.672 124.722 319.839 109.555 333.005 112.388C346.172 115.221 350.838 130.388 347.005 143.305C343.172 156.222 327.838 165.055 322.505 167.055Z" fill="url(#paint103_linear_1_274)"/>
<path opacity="0.5" d="M340.651 139.219C342.55 139.219 344.089 135.153 344.089 130.137C344.089 125.121 342.55 121.055 340.651 121.055C338.752 121.055 337.213 125.121 337.213 130.137C337.213 135.153 338.752 139.219 340.651 139.219Z" fill="url(#paint104_linear_1_274)"/>
<path opacity="0.5" d="M339.213 147.305C340.318 147.305 341.213 146.41 341.213 145.305C341.213 144.2 340.318 143.305 339.213 143.305C338.108 143.305 337.213 144.2 337.213 145.305C337.213 146.41 338.108 147.305 339.213 147.305Z" fill="url(#paint105_linear_1_274)"/>
<path d="M322.505 167.055L320.088 170.555C320.944 171.838 322.624 172.279 323.999 171.581L324.004 171.578L322.505 167.055Z" fill="url(#paint106_linear_1_274)"/>
<path d="M266.72 91.482C265.834 89.458 263.476 88.536 261.452 89.421C260.566 87.397 258.208 86.475 256.184 87.36C254.16 88.245 253.238 90.604 254.123 92.628L257.33 99.957L264.659 96.75C266.683 95.864 267.606 93.505 266.72 91.482Z" fill="#FE61CA"/>
<path d="M288.592 85.642C288.941 83.905 287.817 82.214 286.08 81.865C286.429 80.128 285.305 78.437 283.568 78.088C281.831 77.739 280.14 78.863 279.791 80.6L278.526 86.889L284.815 88.154C286.552 88.503 288.243 87.379 288.592 85.642Z" fill="#FE61CA"/>
<path d="M303.196 98.8911C302.8 97.7931 301.589 97.2241 300.491 97.6191C300.095 96.5211 298.885 95.9521 297.786 96.3471C296.688 96.7431 296.119 97.9531 296.514 99.0511L297.947 103.027L301.923 101.595C303.022 101.2 303.591 99.9891 303.196 98.8911Z" fill="#FE61CA"/>
<path d="M332.575 87.547C332.561 86.734 331.891 86.087 331.078 86.101C331.064 85.288 330.394 84.641 329.581 84.655C328.768 84.669 328.121 85.339 328.135 86.152L328.185 89.095L331.128 89.045C331.941 89.03 332.589 88.36 332.575 87.547Z" fill="#FE61CA"/>
<defs>
<linearGradient id="paint0_linear_1_274" x1="454.101" y1="458.604" x2="-4.16941" y2="-58.2573" gradientUnits="userSpaceOnUse">
<stop stop-color="#9D4EC5"/>
<stop offset="0.1595" stop-color="#B172D1"/>
<stop offset="0.4494" stop-color="#D2AEE5"/>
<stop offset="0.6963" stop-color="#EBDAF3"/>
<stop offset="0.8876" stop-color="#F9F5FC"/>
<stop offset="1" stop-color="white"/>
</linearGradient>
<linearGradient id="paint1_linear_1_274" x1="460.929" y1="440.032" x2="320.033" y2="281.122" gradientUnits="userSpaceOnUse">
<stop stop-color="#9D4EC5"/>
<stop offset="0.1595" stop-color="#B172D1"/>
<stop offset="0.4494" stop-color="#D2AEE5"/>
<stop offset="0.6963" stop-color="#EBDAF3"/>
<stop offset="0.8876" stop-color="#F9F5FC"/>
<stop offset="1" stop-color="white"/>
</linearGradient>
<linearGradient id="paint2_linear_1_274" x1="312.296" y1="215.464" x2="312.296" y2="169.412" gradientUnits="userSpaceOnUse">
<stop stop-color="#9D4EC5"/>
<stop offset="0.026" stop-color="#A964CC"/>
<stop offset="0.0767" stop-color="#BD88D8"/>
<stop offset="0.1338" stop-color="#CFA8E3"/>
<stop offset="0.197" stop-color="#DEC4EC"/>
<stop offset="0.2683" stop-color="#EADAF3"/>
<stop offset="0.3516" stop-color="#F4EBF8"/>
<stop offset="0.4546" stop-color="#FAF6FC"/>
<stop offset="0.599" stop-color="#FEFDFE"/>
<stop offset="1" stop-color="white"/>
</linearGradient>
<linearGradient id="paint3_linear_1_274" x1="327.898" y1="218.928" x2="327.898" y2="160.639" gradientUnits="userSpaceOnUse">
<stop stop-color="#9D4EC5"/>
<stop offset="0.0075" stop-color="#A053C7"/>
<stop offset="0.0769" stop-color="#B67BD4"/>
<stop offset="0.1529" stop-color="#CA9FDF"/>
<stop offset="0.2349" stop-color="#DABDE9"/>
<stop offset="0.3247" stop-color="#E8D5F1"/>
<stop offset="0.4257" stop-color="#F2E8F7"/>
<stop offset="0.5441" stop-color="#FAF5FC"/>
<stop offset="0.696" stop-color="#FEFDFE"/>
<stop offset="1" stop-color="white"/>
</linearGradient>
<linearGradient id="paint4_linear_1_274" x1="336.105" y1="221.371" x2="336.105" y2="188.713" gradientUnits="userSpaceOnUse">
<stop stop-color="#9D4EC5"/>
<stop offset="0.0599" stop-color="#AD6BCE"/>
<stop offset="0.1557" stop-color="#C392DB"/>
<stop offset="0.2583" stop-color="#D5B4E6"/>
<stop offset="0.3672" stop-color="#E5CFEF"/>
<stop offset="0.4847" stop-color="#F0E4F6"/>
<stop offset="0.615" stop-color="#F9F3FB"/>
<stop offset="0.768" stop-color="#FEFCFE"/>
<stop offset="1" stop-color="white"/>
</linearGradient>
<linearGradient id="paint5_linear_1_274" x1="344.865" y1="145.076" x2="371.913" y2="110.786" gradientUnits="userSpaceOnUse">
<stop stop-color="#9D4EC5"/>
<stop offset="1" stop-color="#FE61CA"/>
</linearGradient>
<linearGradient id="paint6_linear_1_274" x1="379.676" y1="123.564" x2="366.598" y2="125.731" gradientUnits="userSpaceOnUse">
<stop stop-color="white"/>
<stop offset="1" stop-color="white" stop-opacity="0"/>
</linearGradient>
<linearGradient id="paint7_linear_1_274" x1="370.416" y1="138.93" x2="364.692" y2="139.878" gradientUnits="userSpaceOnUse">
<stop stop-color="white"/>
<stop offset="1" stop-color="white" stop-opacity="0"/>
</linearGradient>
<linearGradient id="paint8_linear_1_274" x1="344.447" y1="162.36" x2="345.609" y2="157.344" gradientUnits="userSpaceOnUse">
<stop stop-color="#9D4EC5"/>
<stop offset="1" stop-color="#FE61CA"/>
</linearGradient>
<linearGradient id="paint9_linear_1_274" x1="365.376" y1="174.321" x2="405.002" y2="155.96" gradientUnits="userSpaceOnUse">
<stop stop-color="#9D4EC5"/>
<stop offset="1" stop-color="#FE61CA"/>
</linearGradient>
<linearGradient id="paint10_linear_1_274" x1="406.15" y1="170.866" x2="393.506" y2="166.888" gradientUnits="userSpaceOnUse">
<stop stop-color="white"/>
<stop offset="1" stop-color="white" stop-opacity="0"/>
</linearGradient>
<linearGradient id="paint11_linear_1_274" x1="390.946" y1="180.388" x2="385.412" y2="178.647" gradientUnits="userSpaceOnUse">
<stop stop-color="white"/>
<stop offset="1" stop-color="white" stop-opacity="0"/>
</linearGradient>
<linearGradient id="paint12_linear_1_274" x1="357.191" y1="189.552" x2="360.495" y2="185.603" gradientUnits="userSpaceOnUse">
<stop stop-color="#9D4EC5"/>
<stop offset="1" stop-color="#FE61CA"/>
</linearGradient>
<linearGradient id="paint13_linear_1_274" x1="158.758" y1="169.318" x2="138.001" y2="147.498" gradientUnits="userSpaceOnUse">
<stop stop-color="#9D4EC5"/>
<stop offset="0.0651" stop-color="#A963CC"/>
<stop offset="0.2291" stop-color="#C392DB"/>
<stop offset="0.3928" stop-color="#D8B9E8"/>
<stop offset="0.5534" stop-color="#E9D8F2"/>
<stop offset="0.7101" stop-color="#F5EEF9"/>
<stop offset="0.8611" stop-color="#FDFBFE"/>
<stop offset="1" stop-color="white"/>
</linearGradient>
<linearGradient id="paint14_linear_1_274" x1="119.071" y1="230.773" x2="118.165" y2="206.981" gradientUnits="userSpaceOnUse">
<stop stop-color="#3B03A6"/>
<stop offset="1" stop-color="#9D4EC5"/>
</linearGradient>
<linearGradient id="paint15_linear_1_274" x1="109.94" y1="228.103" x2="108.997" y2="203.359" gradientUnits="userSpaceOnUse">
<stop stop-color="#3B03A6"/>
<stop offset="1" stop-color="#9D4EC5"/>
</linearGradient>
<linearGradient id="paint16_linear_1_274" x1="103.852" y1="188.674" x2="108.384" y2="196.35" gradientUnits="userSpaceOnUse">
<stop stop-color="#9D4EC5"/>
<stop offset="1" stop-color="#535FE9"/>
</linearGradient>
<linearGradient id="paint17_linear_1_274" x1="92.4423" y1="220.78" x2="103.587" y2="225.761" gradientUnits="userSpaceOnUse">
<stop stop-color="#9D4EC5"/>
<stop offset="1" stop-color="#535FE9"/>
</linearGradient>
<linearGradient id="paint18_linear_1_274" x1="122.545" y1="186.307" x2="118.525" y2="196.713" gradientUnits="userSpaceOnUse">
<stop stop-color="#9D4EC5"/>
<stop offset="1" stop-color="#535FE9"/>
</linearGradient>
<linearGradient id="paint19_linear_1_274" x1="111.874" y1="207.381" x2="118" y2="227.295" gradientUnits="userSpaceOnUse">
<stop stop-color="#9D4EC5"/>
<stop offset="1" stop-color="#535FE9"/>
</linearGradient>
<linearGradient id="paint20_linear_1_274" x1="97.3337" y1="211.719" x2="112.387" y2="228.533" gradientUnits="userSpaceOnUse">
<stop stop-color="#9D4EC5"/>
<stop offset="1" stop-color="#535FE9"/>
</linearGradient>
<linearGradient id="paint21_linear_1_274" x1="130.531" y1="214.016" x2="118.644" y2="227.064" gradientUnits="userSpaceOnUse">
<stop stop-color="#9D4EC5"/>
<stop offset="1" stop-color="#535FE9"/>
</linearGradient>
<linearGradient id="paint22_linear_1_274" x1="87.6787" y1="204.286" x2="97.7587" y2="209.065" gradientUnits="userSpaceOnUse">
<stop stop-color="#9D4EC5"/>
<stop offset="1" stop-color="#535FE9"/>
</linearGradient>
<linearGradient id="paint23_linear_1_274" x1="102.588" y1="191.06" x2="115.586" y2="196.042" gradientUnits="userSpaceOnUse">
<stop stop-color="#9D4EC5"/>
<stop offset="0.82" stop-color="#80BBF4"/>
<stop offset="1" stop-color="#79D3FE"/>
</linearGradient>
<linearGradient id="paint24_linear_1_274" x1="99.2657" y1="218.207" x2="90.8141" y2="208.053" gradientUnits="userSpaceOnUse">
<stop stop-color="#9D4EC5"/>
<stop offset="1" stop-color="#FE61CA"/>
</linearGradient>
<linearGradient id="paint25_linear_1_274" x1="107.616" y1="216.712" x2="99.3578" y2="195.003" gradientUnits="userSpaceOnUse">
<stop stop-color="#9D4EC5"/>
<stop offset="0.82" stop-color="#80BBF4"/>
<stop offset="1" stop-color="#79D3FE"/>
</linearGradient>
<linearGradient id="paint26_linear_1_274" x1="112.817" y1="260.055" x2="112.817" y2="228.072" gradientUnits="userSpaceOnUse">
<stop stop-color="#9D4EC5"/>
<stop offset="0.2008" stop-color="#B56DBE"/>
<stop offset="0.569" stop-color="#DDA1B2"/>
<stop offset="0.8468" stop-color="#F6C1AB"/>
<stop offset="1" stop-color="#FFCDA8"/>
</linearGradient>
<linearGradient id="paint27_linear_1_274" x1="102.026" y1="238.617" x2="104.088" y2="238.617" gradientUnits="userSpaceOnUse">
<stop stop-color="#9D4EC5"/>
<stop offset="0.1111" stop-color="#A257C8"/>
<stop offset="0.2937" stop-color="#B070D0"/>
<stop offset="0.5249" stop-color="#C698DD"/>
<stop offset="0.793" stop-color="#E5CFEF"/>
<stop offset="1" stop-color="white"/>
</linearGradient>
<linearGradient id="paint28_linear_1_274" x1="-nan" y1="-nan" x2="-nan" y2="-nan" gradientUnits="userSpaceOnUse">
<stop stop-color="#9D4EC5"/>
<stop offset="0.1111" stop-color="#A257C8"/>
<stop offset="0.2937" stop-color="#B070D0"/>
<stop offset="0.5249" stop-color="#C698DD"/>
<stop offset="0.793" stop-color="#E5CFEF"/>
<stop offset="1" stop-color="white"/>
</linearGradient>
<linearGradient id="paint29_linear_1_274" x1="112.026" y1="238.617" x2="114.713" y2="238.617" gradientUnits="userSpaceOnUse">
<stop stop-color="#9D4EC5"/>
<stop offset="0.1111" stop-color="#A257C8"/>
<stop offset="0.2937" stop-color="#B070D0"/>
<stop offset="0.5249" stop-color="#C698DD"/>
<stop offset="0.793" stop-color="#E5CFEF"/>
<stop offset="1" stop-color="white"/>
</linearGradient>
<linearGradient id="paint30_linear_1_274" x1="117.246" y1="235.421" x2="120.978" y2="235.421" gradientUnits="userSpaceOnUse">
<stop stop-color="#9D4EC5"/>
<stop offset="0.1111" stop-color="#A257C8"/>
<stop offset="0.2937" stop-color="#B070D0"/>
<stop offset="0.5249" stop-color="#C698DD"/>
<stop offset="0.793" stop-color="#E5CFEF"/>
<stop offset="1" stop-color="white"/>
</linearGradient>
<linearGradient id="paint31_linear_1_274" x1="97.6387" y1="238.617" x2="127.963" y2="238.617" gradientUnits="userSpaceOnUse">
<stop stop-color="#9D4EC5"/>
<stop offset="0.1111" stop-color="#A257C8"/>
<stop offset="0.2937" stop-color="#B070D0"/>
<stop offset="0.5249" stop-color="#C698DD"/>
<stop offset="0.793" stop-color="#E5CFEF"/>
<stop offset="1" stop-color="white"/>
</linearGradient>
<linearGradient id="paint32_linear_1_274" x1="254.278" y1="266.405" x2="279.141" y2="329.047" gradientUnits="userSpaceOnUse">
<stop stop-color="#3B03A6"/>
<stop offset="1" stop-color="#9D4EC5"/>
</linearGradient>
<linearGradient id="paint33_linear_1_274" x1="277.138" y1="278.167" x2="255.123" y2="315.593" gradientUnits="userSpaceOnUse">
<stop stop-color="#9D4EC5"/>
<stop offset="0.0314" stop-color="#A156C8"/>
<stop offset="0.2841" stop-color="#C292DB"/>
<stop offset="0.5162" stop-color="#DDC1EB"/>
<stop offset="0.7203" stop-color="#EFE3F6"/>
<stop offset="0.8885" stop-color="#FBF7FD"/>
<stop offset="1" stop-color="white"/>
</linearGradient>
<linearGradient id="paint34_linear_1_274" x1="274.845" y1="319.041" x2="254.68" y2="266.313" gradientUnits="userSpaceOnUse">
<stop stop-color="#9D4EC5"/>
<stop offset="0.0314" stop-color="#A156C8"/>
<stop offset="0.2841" stop-color="#C292DB"/>
<stop offset="0.5162" stop-color="#DDC1EB"/>
<stop offset="0.7203" stop-color="#EFE3F6"/>
<stop offset="0.8885" stop-color="#FBF7FD"/>
<stop offset="1" stop-color="white"/>
</linearGradient>
<linearGradient id="paint35_linear_1_274" x1="273.994" y1="280.925" x2="258.051" y2="313.373" gradientUnits="userSpaceOnUse">
<stop stop-color="#9D4EC5"/>
<stop offset="0.0314" stop-color="#A156C8"/>
<stop offset="0.2841" stop-color="#C292DB"/>
<stop offset="0.5162" stop-color="#DDC1EB"/>
<stop offset="0.7203" stop-color="#EFE3F6"/>
<stop offset="0.8885" stop-color="#FBF7FD"/>
<stop offset="1" stop-color="white"/>
</linearGradient>
<linearGradient id="paint36_linear_1_274" x1="269.103" y1="290.88" x2="263.263" y2="302.764" gradientUnits="userSpaceOnUse">
<stop stop-color="#9D4EC5"/>
<stop offset="0.0314" stop-color="#A156C8"/>
<stop offset="0.2841" stop-color="#C292DB"/>
<stop offset="0.5162" stop-color="#DDC1EB"/>
<stop offset="0.7203" stop-color="#EFE3F6"/>
<stop offset="0.8885" stop-color="#FBF7FD"/>
<stop offset="1" stop-color="white"/>
</linearGradient>
<linearGradient id="paint37_linear_1_274" x1="290.406" y1="277.387" x2="232.656" y2="314.387" gradientUnits="userSpaceOnUse">
<stop stop-color="#3B03A6"/>
<stop offset="1" stop-color="#3B03A6" stop-opacity="0"/>
</linearGradient>
<linearGradient id="paint38_linear_1_274" x1="98.0109" y1="266.405" x2="122.874" y2="329.047" gradientUnits="userSpaceOnUse">
<stop stop-color="#3B03A6"/>
<stop offset="1" stop-color="#9D4EC5"/>
</linearGradient>
<linearGradient id="paint39_linear_1_274" x1="120.871" y1="278.167" x2="98.8563" y2="315.593" gradientUnits="userSpaceOnUse">
<stop stop-color="#9D4EC5"/>
<stop offset="0.0314" stop-color="#A156C8"/>
<stop offset="0.2841" stop-color="#C292DB"/>
<stop offset="0.5162" stop-color="#DDC1EB"/>
<stop offset="0.7203" stop-color="#EFE3F6"/>
<stop offset="0.8885" stop-color="#FBF7FD"/>
<stop offset="1" stop-color="white"/>
</linearGradient>
<linearGradient id="paint40_linear_1_274" x1="118.578" y1="319.041" x2="98.4132" y2="266.313" gradientUnits="userSpaceOnUse">
<stop stop-color="#9D4EC5"/>
<stop offset="0.0314" stop-color="#A156C8"/>
<stop offset="0.2841" stop-color="#C292DB"/>
<stop offset="0.5162" stop-color="#DDC1EB"/>
<stop offset="0.7203" stop-color="#EFE3F6"/>
<stop offset="0.8885" stop-color="#FBF7FD"/>
<stop offset="1" stop-color="white"/>
</linearGradient>
<linearGradient id="paint41_linear_1_274" x1="117.727" y1="280.925" x2="101.784" y2="313.373" gradientUnits="userSpaceOnUse">
<stop stop-color="#9D4EC5"/>
<stop offset="0.0314" stop-color="#A156C8"/>
<stop offset="0.2841" stop-color="#C292DB"/>
<stop offset="0.5162" stop-color="#DDC1EB"/>
<stop offset="0.7203" stop-color="#EFE3F6"/>
<stop offset="0.8885" stop-color="#FBF7FD"/>
<stop offset="1" stop-color="white"/>
</linearGradient>
<linearGradient id="paint42_linear_1_274" x1="112.836" y1="290.88" x2="106.997" y2="302.764" gradientUnits="userSpaceOnUse">
<stop stop-color="#9D4EC5"/>
<stop offset="0.0314" stop-color="#A156C8"/>
<stop offset="0.2841" stop-color="#C292DB"/>
<stop offset="0.5162" stop-color="#DDC1EB"/>
<stop offset="0.7203" stop-color="#EFE3F6"/>
<stop offset="0.8885" stop-color="#FBF7FD"/>
<stop offset="1" stop-color="white"/>
</linearGradient>
<linearGradient id="paint43_linear_1_274" x1="117.09" y1="279.168" x2="108.211" y2="301.071" gradientUnits="userSpaceOnUse">
<stop stop-color="#3B03A6"/>
<stop offset="1" stop-color="#3B03A6" stop-opacity="0"/>
</linearGradient>
<linearGradient id="paint44_linear_1_274" x1="143.021" y1="215.902" x2="142.51" y2="202.478" gradientUnits="userSpaceOnUse">
<stop stop-color="#3B03A6"/>
<stop offset="1" stop-color="#9D4EC5"/>
</linearGradient>
<linearGradient id="paint45_linear_1_274" x1="100.443" y1="261.698" x2="121.938" y2="315.854" gradientUnits="userSpaceOnUse">
<stop stop-color="#3B03A6"/>
<stop offset="1" stop-color="#9D4EC5"/>
</linearGradient>
<linearGradient id="paint46_linear_1_274" x1="126.35" y1="312.164" x2="113.167" y2="272.639" gradientUnits="userSpaceOnUse">
<stop stop-color="#3B03A6"/>
<stop offset="0.326" stop-color="#3D05A7"/>
<stop offset="0.5089" stop-color="#460BA9"/>
<stop offset="0.6563" stop-color="#5316AE"/>
<stop offset="0.7849" stop-color="#6725B4"/>
<stop offset="0.9" stop-color="#8038BC"/>
<stop offset="1" stop-color="#9D4EC5"/>
</linearGradient>
<linearGradient id="paint47_linear_1_274" x1="225.287" y1="297.396" x2="222.553" y2="225.642" gradientUnits="userSpaceOnUse">
<stop stop-color="#3B03A6"/>
<stop offset="1" stop-color="#9D4EC5"/>
</linearGradient>
<linearGradient id="paint48_linear_1_274" x1="265.86" y1="292.811" x2="246.154" y2="248.83" gradientUnits="userSpaceOnUse">
<stop stop-color="#3B03A6"/>
<stop offset="1" stop-color="#9D4EC5"/>
</linearGradient>
<linearGradient id="paint49_linear_1_274" x1="194.862" y1="304.081" x2="194.602" y2="297.254" gradientUnits="userSpaceOnUse">
<stop stop-color="#3B03A6"/>
<stop offset="1" stop-color="#9D4EC5"/>
</linearGradient>
<linearGradient id="paint50_linear_1_274" x1="139.27" y1="205.51" x2="138.548" y2="186.539" gradientUnits="userSpaceOnUse">
<stop stop-color="#3B03A6"/>
<stop offset="1" stop-color="#9D4EC5"/>
</linearGradient>
<linearGradient id="paint51_linear_1_274" x1="330.96" y1="286.716" x2="356.62" y2="321.532" gradientUnits="userSpaceOnUse">
<stop stop-color="#9D4EC5"/>
<stop offset="0.0418" stop-color="#A257C8"/>
<stop offset="0.384" stop-color="#CA9FDF"/>
<stop offset="0.6689" stop-color="#E6D3F0"/>
<stop offset="0.8823" stop-color="#F8F3FB"/>
<stop offset="1" stop-color="white"/>
</linearGradient>
<linearGradient id="paint52_linear_1_274" x1="301.613" y1="250.887" x2="381.946" y2="359.887" gradientUnits="userSpaceOnUse">
<stop stop-color="#9D4EC5"/>
<stop offset="0.0418" stop-color="#A257C8"/>
<stop offset="0.384" stop-color="#CA9FDF"/>
<stop offset="0.6689" stop-color="#E6D3F0"/>
<stop offset="0.8823" stop-color="#F8F3FB"/>
<stop offset="1" stop-color="white"/>
</linearGradient>
<linearGradient id="paint53_linear_1_274" x1="340.279" y1="263.759" x2="373.732" y2="309.149" gradientUnits="userSpaceOnUse">
<stop stop-color="#9D4EC5"/>
<stop offset="0.0418" stop-color="#A257C8"/>
<stop offset="0.384" stop-color="#CA9FDF"/>
<stop offset="0.6689" stop-color="#E6D3F0"/>
<stop offset="0.8823" stop-color="#F8F3FB"/>
<stop offset="1" stop-color="white"/>
</linearGradient>
<linearGradient id="paint54_linear_1_274" x1="281.792" y1="270.13" x2="303.992" y2="300.253" gradientUnits="userSpaceOnUse">
<stop stop-color="#9D4EC5"/>
<stop offset="0.0418" stop-color="#A257C8"/>
<stop offset="0.384" stop-color="#CA9FDF"/>
<stop offset="0.6689" stop-color="#E6D3F0"/>
<stop offset="0.8823" stop-color="#F8F3FB"/>
<stop offset="1" stop-color="white"/>
</linearGradient>
<linearGradient id="paint55_linear_1_274" x1="254.171" y1="121.487" x2="294.77" y2="184.23" gradientUnits="userSpaceOnUse">
<stop stop-color="#9D4EC5"/>
<stop offset="0.1325" stop-color="#B171D1"/>
<stop offset="0.344" stop-color="#CCA4E1"/>
<stop offset="0.5434" stop-color="#E2CBEE"/>
<stop offset="0.7252" stop-color="#F2E8F7"/>
<stop offset="0.8832" stop-color="#FCF9FD"/>
<stop offset="1" stop-color="white"/>
</linearGradient>
<linearGradient id="paint56_linear_1_274" x1="270.177" y1="176.113" x2="270.177" y2="116.619" gradientUnits="userSpaceOnUse">
<stop stop-color="#9D4EC5"/>
<stop offset="0.0418" stop-color="#A257C8"/>
<stop offset="0.384" stop-color="#CA9FDF"/>
<stop offset="0.6689" stop-color="#E6D3F0"/>
<stop offset="0.8823" stop-color="#F8F3FB"/>
<stop offset="1" stop-color="white"/>
</linearGradient>
<linearGradient id="paint57_linear_1_274" x1="265.662" y1="174.568" x2="264.814" y2="152.296" gradientUnits="userSpaceOnUse">
<stop stop-color="#3B03A6"/>
<stop offset="1" stop-color="#9D4EC5"/>
</linearGradient>
<linearGradient id="paint58_linear_1_274" x1="261.668" y1="155.828" x2="260.341" y2="120.993" gradientUnits="userSpaceOnUse">
<stop stop-color="#3B03A6"/>
<stop offset="1" stop-color="#9D4EC5"/>
</linearGradient>
<linearGradient id="paint59_linear_1_274" x1="263.505" y1="238.674" x2="263.505" y2="173.518" gradientUnits="userSpaceOnUse">
<stop stop-color="#9D4EC5"/>
<stop offset="0.0418" stop-color="#A257C8"/>
<stop offset="0.384" stop-color="#CA9FDF"/>
<stop offset="0.6689" stop-color="#E6D3F0"/>
<stop offset="0.8823" stop-color="#F8F3FB"/>
<stop offset="1" stop-color="white"/>
</linearGradient>
<linearGradient id="paint60_linear_1_274" x1="257.266" y1="141.302" x2="264.659" y2="172.327" gradientUnits="userSpaceOnUse">
<stop stop-color="#9D4EC5"/>
<stop offset="0.8579" stop-color="#F1BBAC"/>
<stop offset="1" stop-color="#FFCDA8"/>
</linearGradient>
<linearGradient id="paint61_linear_1_274" x1="150.889" y1="212.972" x2="134.014" y2="195.472" gradientUnits="userSpaceOnUse">
<stop stop-color="#3B03A6"/>
<stop offset="1" stop-color="#9D4EC5"/>
</linearGradient>
<linearGradient id="paint62_linear_1_274" x1="144.915" y1="204.431" x2="131.268" y2="209.432" gradientUnits="userSpaceOnUse">
<stop stop-color="#3B03A6"/>
<stop offset="1" stop-color="#9D4EC5"/>
</linearGradient>
<linearGradient id="paint63_linear_1_274" x1="154.38" y1="219.38" x2="153.421" y2="201.667" gradientUnits="userSpaceOnUse">
<stop stop-color="#9D4EC5"/>
<stop offset="0.2008" stop-color="#B56DBE"/>
<stop offset="0.569" stop-color="#DDA1B2"/>
<stop offset="0.8468" stop-color="#F6C1AB"/>
<stop offset="1" stop-color="#FFCDA8"/>
</linearGradient>
<linearGradient id="paint64_linear_1_274" x1="271.803" y1="321.454" x2="146.303" y2="203.454" gradientUnits="userSpaceOnUse">
<stop stop-color="#9D4EC5"/>
<stop offset="0.0314" stop-color="#A156C8"/>
<stop offset="0.2841" stop-color="#C292DB"/>
<stop offset="0.5162" stop-color="#DDC1EB"/>
<stop offset="0.7203" stop-color="#EFE3F6"/>
<stop offset="0.8885" stop-color="#FBF7FD"/>
<stop offset="1" stop-color="white"/>
</linearGradient>
<linearGradient id="paint65_linear_1_274" x1="229.271" y1="195.837" x2="199.833" y2="227.139" gradientUnits="userSpaceOnUse">
<stop stop-color="#3B03A6"/>
<stop offset="1" stop-color="#3B03A6" stop-opacity="0"/>
</linearGradient>
<linearGradient id="paint66_linear_1_274" x1="229.852" y1="148.439" x2="228.352" y2="109.064" gradientUnits="userSpaceOnUse">
<stop stop-color="#3B03A6"/>
<stop offset="1" stop-color="#9D4EC5"/>
</linearGradient>
<linearGradient id="paint67_linear_1_274" x1="228.175" y1="139.303" x2="232.999" y2="160.367" gradientUnits="userSpaceOnUse">
<stop stop-color="#9D4EC5"/>
<stop offset="0.2008" stop-color="#B56DBE"/>
<stop offset="0.569" stop-color="#DDA1B2"/>
<stop offset="0.8468" stop-color="#F6C1AB"/>
<stop offset="1" stop-color="#FFCDA8"/>
</linearGradient>
<linearGradient id="paint68_linear_1_274" x1="228.881" y1="167.832" x2="226.877" y2="130.815" gradientUnits="userSpaceOnUse">
<stop stop-color="#9D4EC5"/>
<stop offset="0.2008" stop-color="#B56DBE"/>
<stop offset="0.569" stop-color="#DDA1B2"/>
<stop offset="0.8468" stop-color="#F6C1AB"/>
<stop offset="1" stop-color="#FFCDA8"/>
</linearGradient>
<linearGradient id="paint69_linear_1_274" x1="202.395" y1="291.305" x2="202.395" y2="155.215" gradientUnits="userSpaceOnUse">
<stop stop-color="#9D4EC5"/>
<stop offset="0.0418" stop-color="#A257C8"/>
<stop offset="0.384" stop-color="#CA9FDF"/>
<stop offset="0.6689" stop-color="#E6D3F0"/>
<stop offset="0.8823" stop-color="#F8F3FB"/>
<stop offset="1" stop-color="white"/>
</linearGradient>
<linearGradient id="paint70_linear_1_274" x1="233.189" y1="161.671" x2="206.536" y2="206.67" gradientUnits="userSpaceOnUse">
<stop stop-color="#3B03A6"/>
<stop offset="1" stop-color="#3B03A6" stop-opacity="0"/>
</linearGradient>
<linearGradient id="paint71_linear_1_274" x1="214.058" y1="325.265" x2="167.232" y2="281.237" gradientUnits="userSpaceOnUse">
<stop stop-color="#9D4EC5"/>
<stop offset="0.0314" stop-color="#A156C8"/>
<stop offset="0.2841" stop-color="#C292DB"/>
<stop offset="0.5162" stop-color="#DDC1EB"/>
<stop offset="0.7203" stop-color="#EFE3F6"/>
<stop offset="0.8885" stop-color="#FBF7FD"/>
<stop offset="1" stop-color="white"/>
</linearGradient>
<linearGradient id="paint72_linear_1_274" x1="154.363" y1="210.68" x2="154.028" y2="201.866" gradientUnits="userSpaceOnUse">
<stop stop-color="#3B03A6"/>
<stop offset="1" stop-color="#9D4EC5"/>
</linearGradient>
<linearGradient id="paint73_linear_1_274" x1="261.36" y1="170.847" x2="259.558" y2="137.556" gradientUnits="userSpaceOnUse">
<stop stop-color="#9D4EC5"/>
<stop offset="0.2008" stop-color="#B56DBE"/>
<stop offset="0.569" stop-color="#DDA1B2"/>
<stop offset="0.8468" stop-color="#F6C1AB"/>
<stop offset="1" stop-color="#FFCDA8"/>
</linearGradient>
<linearGradient id="paint74_linear_1_274" x1="217.263" y1="232.432" x2="209.43" y2="198.432" gradientUnits="userSpaceOnUse">
<stop stop-color="#9D4EC5"/>
<stop offset="0.8579" stop-color="#F1BBAC"/>
<stop offset="1" stop-color="#FFCDA8"/>
</linearGradient>
<linearGradient id="paint75_linear_1_274" x1="293.255" y1="176.524" x2="265.38" y2="209.649" gradientUnits="userSpaceOnUse">
<stop stop-color="#9D4EC5"/>
<stop offset="0.0418" stop-color="#A257C8"/>
<stop offset="0.384" stop-color="#CA9FDF"/>
<stop offset="0.6689" stop-color="#E6D3F0"/>
<stop offset="0.8823" stop-color="#F8F3FB"/>
<stop offset="1" stop-color="white"/>
</linearGradient>
<linearGradient id="paint76_linear_1_274" x1="274.701" y1="220.639" x2="260.201" y2="202.514" gradientUnits="userSpaceOnUse">
<stop stop-color="#9D4EC5"/>
<stop offset="0.8579" stop-color="#F1BBAC"/>
<stop offset="1" stop-color="#FFCDA8"/>
</linearGradient>
<linearGradient id="paint77_linear_1_274" x1="300.237" y1="198.357" x2="290.053" y2="193.805" gradientUnits="userSpaceOnUse">
<stop stop-color="#9D4EC5"/>
<stop offset="1" stop-color="#535FE9"/>
</linearGradient>
<linearGradient id="paint78_linear_1_274" x1="280.183" y1="172.413" x2="283.005" y2="183.205" gradientUnits="userSpaceOnUse">
<stop stop-color="#9D4EC5"/>
<stop offset="1" stop-color="#535FE9"/>
</linearGradient>
<linearGradient id="paint79_linear_1_274" x1="262.561" y1="180.489" x2="270.968" y2="189.339" gradientUnits="userSpaceOnUse">
<stop stop-color="#9D4EC5"/>
<stop offset="1" stop-color="#535FE9"/>
</linearGradient>
<linearGradient id="paint80_linear_1_274" x1="281.888" y1="189.594" x2="287.326" y2="200.094" gradientUnits="userSpaceOnUse">
<stop stop-color="#9D4EC5"/>
<stop offset="0.82" stop-color="#80BBF4"/>
<stop offset="1" stop-color="#79D3FE"/>
</linearGradient>
<linearGradient id="paint81_linear_1_274" x1="280.754" y1="190.095" x2="281.066" y2="177.782" gradientUnits="userSpaceOnUse">
<stop stop-color="#9D4EC5"/>
<stop offset="1" stop-color="#FE61CA"/>
</linearGradient>
<linearGradient id="paint82_linear_1_274" x1="274.393" y1="195.162" x2="285.518" y2="188.037" gradientUnits="userSpaceOnUse">
<stop stop-color="#9D4EC5"/>
<stop offset="1" stop-color="#FE61CA"/>
</linearGradient>
<linearGradient id="paint83_linear_1_274" x1="275.303" y1="192.822" x2="271.928" y2="183.739" gradientUnits="userSpaceOnUse">
<stop stop-color="#9D4EC5"/>
<stop offset="0.82" stop-color="#80BBF4"/>
<stop offset="1" stop-color="#79D3FE"/>
</linearGradient>
<linearGradient id="paint84_linear_1_274" x1="297.71" y1="181.811" x2="289.625" y2="185.568" gradientUnits="userSpaceOnUse">
<stop stop-color="#9D4EC5"/>
<stop offset="1" stop-color="#535FE9"/>
</linearGradient>
<linearGradient id="paint85_linear_1_274" x1="290.987" y1="201.417" x2="288.487" y2="185.501" gradientUnits="userSpaceOnUse">
<stop stop-color="#9D4EC5"/>
<stop offset="0.82" stop-color="#80BBF4"/>
<stop offset="1" stop-color="#79D3FE"/>
</linearGradient>
<linearGradient id="paint86_linear_1_274" x1="310.986" y1="347.104" x2="310.986" y2="207.946" gradientUnits="userSpaceOnUse">
<stop stop-color="#9D4EC5"/>
<stop offset="0.0418" stop-color="#A257C8"/>
<stop offset="0.384" stop-color="#CA9FDF"/>
<stop offset="0.6689" stop-color="#E6D3F0"/>
<stop offset="0.8823" stop-color="#F8F3FB"/>
<stop offset="1" stop-color="white"/>
</linearGradient>
<linearGradient id="paint87_linear_1_274" x1="256.459" y1="283.624" x2="290.449" y2="257.699" gradientUnits="userSpaceOnUse">
<stop stop-color="#3B03A6"/>
<stop offset="1" stop-color="#3B03A6" stop-opacity="0"/>
</linearGradient>
<linearGradient id="paint88_linear_1_274" x1="308.449" y1="277.904" x2="334.476" y2="246.982" gradientUnits="userSpaceOnUse">
<stop stop-color="#3B03A6"/>
<stop offset="1" stop-color="#3B03A6" stop-opacity="0"/>
</linearGradient>
<linearGradient id="paint89_linear_1_274" x1="128.728" y1="205.727" x2="129.287" y2="187.543" gradientUnits="userSpaceOnUse">
<stop stop-color="#9D4EC5"/>
<stop offset="0.0106" stop-color="#A053C7"/>
<stop offset="0.1442" stop-color="#C190DB"/>
<stop offset="0.2666" stop-color="#DCC0EA"/>
<stop offset="0.3739" stop-color="#EFE2F6"/>
<stop offset="0.4619" stop-color="#FBF7FC"/>
<stop offset="0.5197" stop-color="white"/>
<stop offset="0.659" stop-color="#FEFDFE"/>
<stop offset="0.7322" stop-color="#F9F5FC"/>
<stop offset="0.7901" stop-color="#F2E7F7"/>
<stop offset="0.84" stop-color="#E7D4F1"/>
<stop offset="0.8847" stop-color="#DABBE9"/>
<stop offset="0.9257" stop-color="#C99DDF"/>
<stop offset="0.9631" stop-color="#B579D3"/>
<stop offset="0.9982" stop-color="#9E50C6"/>
<stop offset="1" stop-color="#9D4EC5"/>
</linearGradient>
<linearGradient id="paint90_linear_1_274" x1="134.009" y1="301.044" x2="130.196" y2="200.953" gradientUnits="userSpaceOnUse">
<stop stop-color="#3B03A6"/>
<stop offset="1" stop-color="#9D4EC5"/>
</linearGradient>
<linearGradient id="paint91_linear_1_274" x1="122.139" y1="263.896" x2="119.878" y2="204.547" gradientUnits="userSpaceOnUse">
<stop stop-color="#3B03A6"/>
<stop offset="1" stop-color="#9D4EC5"/>
</linearGradient>
<linearGradient id="paint92_linear_1_274" x1="149.775" y1="304.256" x2="146.078" y2="207.212" gradientUnits="userSpaceOnUse">
<stop stop-color="white"/>
<stop offset="0.1516" stop-color="#DFC4EC"/>
<stop offset="0.3319" stop-color="#BB85D7"/>
<stop offset="0.4639" stop-color="#A55DCA"/>
<stop offset="0.5323" stop-color="#9D4EC5"/>
<stop offset="0.6004" stop-color="#9F52C6"/>
<stop offset="0.6709" stop-color="#A65FCA"/>
<stop offset="0.7424" stop-color="#B273D1"/>
<stop offset="0.8147" stop-color="#C290DB"/>
<stop offset="0.8875" stop-color="#D6B6E7"/>
<stop offset="0.9598" stop-color="#EFE3F6"/>
<stop offset="1" stop-color="white"/>
</linearGradient>
<linearGradient id="paint93_linear_1_274" x1="107.485" y1="264.588" x2="107.78" y2="254.998" gradientUnits="userSpaceOnUse">
<stop stop-color="#9D4EC5"/>
<stop offset="0.0106" stop-color="#A053C7"/>
<stop offset="0.1442" stop-color="#C190DB"/>
<stop offset="0.2666" stop-color="#DCC0EA"/>
<stop offset="0.3739" stop-color="#EFE2F6"/>
<stop offset="0.4619" stop-color="#FBF7FC"/>
<stop offset="0.5197" stop-color="white"/>
<stop offset="0.659" stop-color="#FEFDFE"/>
<stop offset="0.7322" stop-color="#F9F5FC"/>
<stop offset="0.7901" stop-color="#F2E7F7"/>
<stop offset="0.84" stop-color="#E7D4F1"/>
<stop offset="0.8847" stop-color="#DABBE9"/>
<stop offset="0.9257" stop-color="#C99DDF"/>
<stop offset="0.9631" stop-color="#B579D3"/>
<stop offset="0.9982" stop-color="#9E50C6"/>
<stop offset="1" stop-color="#9D4EC5"/>
</linearGradient>
<linearGradient id="paint94_linear_1_274" x1="109.305" y1="264.521" x2="73.9295" y2="278.146" gradientUnits="userSpaceOnUse">
<stop stop-color="#9D4EC5"/>
<stop offset="0.0204" stop-color="#A053C7"/>
<stop offset="0.2775" stop-color="#C190DB"/>
<stop offset="0.513" stop-color="#DCC0EA"/>
<stop offset="0.7194" stop-color="#EFE2F6"/>
<stop offset="0.8888" stop-color="#FBF7FC"/>
<stop offset="1" stop-color="white"/>
</linearGradient>
<linearGradient id="paint95_linear_1_274" x1="-nan" y1="-nan" x2="-nan" y2="-nan" gradientUnits="userSpaceOnUse">
<stop stop-color="#9D4EC5"/>
<stop offset="0.1111" stop-color="#A257C8"/>
<stop offset="0.2937" stop-color="#B070D0"/>
<stop offset="0.5249" stop-color="#C698DD"/>
<stop offset="0.793" stop-color="#E5CFEF"/>
<stop offset="1" stop-color="white"/>
</linearGradient>
<linearGradient id="paint96_linear_1_274" x1="97.8384" y1="238.617" x2="135.588" y2="238.617" gradientUnits="userSpaceOnUse">
<stop stop-color="white"/>
<stop offset="0.0596" stop-color="#FBF8FD"/>
<stop offset="0.1482" stop-color="#F0E3F6"/>
<stop offset="0.2549" stop-color="#DDC2EB"/>
<stop offset="0.3757" stop-color="#C494DC"/>
<stop offset="0.5069" stop-color="#A45AC9"/>
<stop offset="0.5323" stop-color="#9D4EC5"/>
<stop offset="0.5627" stop-color="#A963CC"/>
<stop offset="0.6394" stop-color="#C392DB"/>
<stop offset="0.716" stop-color="#D8B9E8"/>
<stop offset="0.7911" stop-color="#E9D8F2"/>
<stop offset="0.8644" stop-color="#F5EEF9"/>
<stop offset="0.935" stop-color="#FDFBFE"/>
<stop offset="1" stop-color="white"/>
</linearGradient>
<linearGradient id="paint97_linear_1_274" x1="119.769" y1="211.822" x2="120.257" y2="192.584" gradientUnits="userSpaceOnUse">
<stop stop-color="#9D4EC5"/>
<stop offset="1" stop-color="#FE61CA"/>
</linearGradient>
<linearGradient id="paint98_linear_1_274" x1="122.57" y1="221.173" x2="124.847" y2="210.326" gradientUnits="userSpaceOnUse">
<stop stop-color="#9D4EC5"/>
<stop offset="0.82" stop-color="#80BBF4"/>
<stop offset="1" stop-color="#79D3FE"/>
</linearGradient>
<radialGradient id="paint99_radial_1_274" cx="0" cy="0" r="1" gradientUnits="userSpaceOnUse" gradientTransform="translate(198.15 323.494) scale(148.808 25.0059)">
<stop stop-color="#3B03A6"/>
<stop offset="1" stop-color="#3B03A6" stop-opacity="0"/>
</radialGradient>
<linearGradient id="paint100_linear_1_274" x1="126.072" y1="198.591" x2="152.181" y2="172.483" gradientUnits="userSpaceOnUse">
<stop stop-color="white"/>
<stop offset="0.0596" stop-color="#FBF8FD"/>
<stop offset="0.1482" stop-color="#F0E3F6"/>
<stop offset="0.2549" stop-color="#DDC2EB"/>
<stop offset="0.3757" stop-color="#C494DC"/>
<stop offset="0.5069" stop-color="#A45AC9"/>
<stop offset="0.5323" stop-color="#9D4EC5"/>
<stop offset="0.5627" stop-color="#A963CC"/>
<stop offset="0.6394" stop-color="#C392DB"/>
<stop offset="0.716" stop-color="#D8B9E8"/>
<stop offset="0.7911" stop-color="#E9D8F2"/>
<stop offset="0.8644" stop-color="#F5EEF9"/>
<stop offset="0.935" stop-color="#FDFBFE"/>
<stop offset="1" stop-color="white"/>
</linearGradient>
<linearGradient id="paint101_linear_1_274" x1="158.402" y1="185.166" x2="150.151" y2="149.041" gradientUnits="userSpaceOnUse">
<stop stop-color="#9D4EC5"/>
<stop offset="0.2051" stop-color="#B478D3"/>
<stop offset="0.5874" stop-color="#DCC0EA"/>
<stop offset="0.8621" stop-color="#F5EEF9"/>
<stop offset="1" stop-color="white"/>
</linearGradient>
<linearGradient id="paint102_linear_1_274" x1="138.21" y1="198.484" x2="140.834" y2="222.859" gradientUnits="userSpaceOnUse">
<stop stop-color="#9D4EC5"/>
<stop offset="0.0418" stop-color="#A257C8"/>
<stop offset="0.384" stop-color="#CA9FDF"/>
<stop offset="0.6689" stop-color="#E6D3F0"/>
<stop offset="0.8823" stop-color="#F8F3FB"/>
<stop offset="1" stop-color="white"/>
</linearGradient>
<linearGradient id="paint103_linear_1_274" x1="318.956" y1="155.101" x2="338.563" y2="116.076" gradientUnits="userSpaceOnUse">
<stop stop-color="#9D4EC5"/>
<stop offset="1" stop-color="#FE61CA"/>
</linearGradient>
<linearGradient id="paint104_linear_1_274" x1="348.734" y1="127.034" x2="336.359" y2="131.784" gradientUnits="userSpaceOnUse">
<stop stop-color="white"/>
<stop offset="1" stop-color="white" stop-opacity="0"/>
</linearGradient>
<linearGradient id="paint105_linear_1_274" x1="342.751" y1="143.947" x2="337.335" y2="146.026" gradientUnits="userSpaceOnUse">
<stop stop-color="white"/>
<stop offset="1" stop-color="white" stop-opacity="0"/>
</linearGradient>
<linearGradient id="paint106_linear_1_274" x1="322.02" y1="172.118" x2="322.151" y2="166.97" gradientUnits="userSpaceOnUse">
<stop stop-color="#9D4EC5"/>
<stop offset="1" stop-color="#FE61CA"/>
</linearGradient>
</defs>
</svg>
