<svg width="393" height="381" viewBox="0 0 393 381" fill="none" xmlns="http://www.w3.org/2000/svg">
<path d="M222.635 87.129C222.635 83.202 219.452 80.019 215.525 80.019C212.712 80.019 210.304 81.666 209.151 84.036C207.998 81.666 205.589 80.019 202.777 80.019C198.851 80.019 195.667 83.202 195.667 87.129C195.667 88.884 196.327 90.4691 197.381 91.7101L197.359 91.7271L209.887 106.838L221.381 91.163L221.378 91.1581C222.168 90.0111 222.635 88.626 222.635 87.129Z" fill="#4D5BE2"/>
<path d="M195.68 45.094C195.68 43.186 194.134 41.64 192.226 41.64C190.86 41.64 189.69 42.44 189.129 43.591C188.569 42.44 187.399 41.64 186.032 41.64C184.124 41.64 182.578 43.187 182.578 45.094C182.578 45.947 182.899 46.717 183.411 47.319L183.4 47.327L189.487 54.668L195.071 47.052L195.069 47.05C195.453 46.495 195.68 45.822 195.68 45.094Z" fill="#4D5BE2"/>
<path d="M214.108 128.994C214.108 127.086 212.561 125.54 210.654 125.54C209.288 125.54 208.117 126.34 207.557 127.491C206.997 126.34 205.827 125.54 204.46 125.54C202.552 125.54 201.006 127.086 201.006 128.994C201.006 129.847 201.327 130.617 201.839 131.219L201.828 131.227L207.914 138.568L213.498 130.952L213.497 130.95C213.881 130.394 214.108 129.721 214.108 128.994Z" fill="#4D5BE2"/>
<path d="M250.673 54.485C250.673 51.259 248.058 48.644 244.832 48.644C242.521 48.644 240.543 49.997 239.595 51.944C238.648 49.997 236.669 48.644 234.358 48.644C231.132 48.644 228.517 51.259 228.517 54.485C228.517 55.927 229.059 57.229 229.925 58.248L229.907 58.262L240.199 70.676L249.642 57.798L249.639 57.794C250.289 56.853 250.673 55.715 250.673 54.485Z" fill="#4D5BE2"/>
<path d="M228.519 9.56402C228.519 4.42402 224.352 0.257019 219.212 0.257019C215.53 0.257019 212.377 2.41301 210.868 5.51501C209.359 2.41301 206.205 0.257019 202.523 0.257019C197.383 0.257019 193.216 4.42402 193.216 9.56402C193.216 11.861 194.08 13.937 195.459 15.56L195.43 15.582L211.83 35.363L226.877 14.842L226.873 14.836C227.907 13.337 228.519 11.524 228.519 9.56402Z" fill="#4D5BE2"/>
<path d="M287.901 139.641C296.141 139.641 302.82 132.962 302.82 124.722C302.82 116.482 296.141 109.803 287.901 109.803C279.661 109.803 272.982 116.482 272.982 124.722C272.982 132.962 279.661 139.641 287.901 139.641Z" fill="black"/>
<path d="M306.716 152.223C314.956 152.223 321.635 145.544 321.635 137.304C321.635 129.064 314.956 122.385 306.716 122.385C298.476 122.385 291.797 129.064 291.797 137.304C291.797 145.544 298.476 152.223 306.716 152.223Z" fill="black"/>
<path d="M302.82 171.512C311.06 171.512 317.739 164.833 317.739 156.593C317.739 148.353 311.06 141.674 302.82 141.674C294.58 141.674 287.901 148.353 287.901 156.593C287.901 164.833 294.58 171.512 302.82 171.512Z" fill="black"/>
<path d="M302.098 191.837L275.745 189.931L279.636 202.572L302.098 191.837Z" fill="#D8D9DD"/>
<path d="M163.657 181.249C163.657 181.249 144.143 178.971 142.44 179.501C140.737 180.032 141.379 182.127 144.749 182.341C148.119 182.556 158.277 184.073 158.277 184.073C158.277 184.073 141.662 183.634 140.865 184.524C140.068 185.415 140.612 186.992 142.886 186.815C145.161 186.638 156.256 187.544 156.256 187.544C156.256 187.544 146.613 188.451 144.618 189.226C142.623 190 145.411 191.235 147.52 190.916C149.63 190.596 157.813 189.948 157.813 189.948C157.813 189.948 150.862 192.773 150.188 193.78C149.513 194.787 150.443 195.183 151.373 194.999C152.303 194.814 160.197 191.476 160.197 191.476C160.197 191.476 168.189 192.791 171.912 189.055C175.635 185.32 174.158 182.575 173.396 182.203C172.634 181.831 159.307 174.847 157.028 174.585C154.75 174.323 155.126 177.445 158.612 178.797C162.1 180.148 164.617 180.55 163.657 181.249Z" fill="#E5906A"/>
<path d="M272.293 196.34L173.109 180.907L170.559 193.037L246.332 235.881L272.293 196.34Z" fill="black"/>
<path d="M224.4 359.644L234.931 373.422L221.425 371.715L213.519 361.769L224.4 359.644Z" fill="#4A72B2"/>
<path d="M233.071 380.585H194.573C192.522 380.585 192.099 377.688 194.064 377.101L216.069 370.525H234.218L240.459 380.585H233.071Z" fill="#111111"/>
<path d="M366.393 363.26L383.734 363.057L374.29 372.862L361.591 373.252L366.393 363.26Z" fill="#4A72B2"/>
<path d="M370.955 362.448L347.326 359.13C342.917 358.601 332.191 355.053 324.37 355.563C315.997 356.109 305.856 355.642 306.809 349.846C312.469 315.439 308.048 306.342 308.048 306.342C308.048 306.342 268.217 313.081 263.308 325.734C260.848 323.132 259.083 321.303 259.083 321.303C259.083 321.303 265.308 359.207 294.71 374.396C294.849 374.493 294.986 374.592 295.126 374.688C298.52 377.013 303.251 378.477 308.706 379.321C314.501 380.518 320.943 380.923 328.11 380.279L327.98 380.189C349.059 379.479 370.954 374.687 370.954 374.687L370.955 362.448Z" fill="black"/>
<path d="M273.025 295.121C273.025 295.121 199.577 289 177.815 302.602C156.053 316.203 213.179 366.533 213.179 366.533L230.011 363.809C230.011 363.809 198.958 326.438 213.689 321.135C226.44 316.545 299.208 363.469 308.049 306.343L273.025 295.121Z" fill="#1E1E1E"/>
<path d="M245.329 293.829C245.329 293.829 302.924 297.008 309.522 326.318L315.019 271.235L338.693 236.03C346.852 223.897 340.791 207.279 326.705 203.359C306.175 197.645 278.769 192.493 260.783 198.807C228.82 210.028 245.329 292.316 245.329 292.316" fill="#111111"/>
<path d="M272.38 196.187C271.767 197.136 270.824 197.87 269.548 198.16C269.117 198.275 268.648 198.34 268.137 198.34C268.069 198.34 268.005 198.332 267.938 198.33C264.515 206.563 249.389 245.54 257.958 272.215C257.958 272.215 276.425 238.591 277.445 237.911C278.465 237.231 303.907 198.14 303.907 198.14C303.907 198.14 289.483 193.996 272.38 196.187Z" fill="#EDEEF0"/>
<path d="M303.907 198.14L308.048 219.209L286.626 228.39L290.706 245.732L254.492 281.946C254.492 281.946 274.263 220.425 303.907 198.14Z" fill="#1E1E1E"/>
<path d="M272.293 196.34C272.293 196.34 255.813 227.801 257.958 272.215L246.332 240.043L254.493 225.33L246.332 211.559C246.332 211.559 254.779 196.378 272.293 196.34Z" fill="#1E1E1E"/>
<path d="M392.781 362.909L380.986 361.896L370.134 376.444L368.62 380.585H379.595L388.363 368.831L392.781 362.909Z" fill="#111111"/>
<path d="M379.595 380.585H363.51C362.023 380.585 361.77 378.457 363.216 378.109L370.134 376.444L379.595 380.585Z" fill="#111111"/>
<path d="M199.757 209.474V216.027C199.757 216.91 200.473 217.626 201.356 217.626H218.363C219.246 217.626 219.962 216.91 219.962 216.027V209.474C219.962 208.591 219.246 207.875 218.363 207.875H201.356C200.473 207.875 199.757 208.591 199.757 209.474Z" fill="#4D5BE2"/>
<path d="M219.963 189.931C219.08 189.931 218.364 190.647 218.364 191.53V208.537C218.364 209.42 219.08 210.136 219.963 210.136C224.465 210.136 228.115 206.486 228.115 201.983V198.082C228.115 193.581 224.465 189.931 219.963 189.931Z" fill="#4D5BE2"/>
<path d="M201.356 207.875C201.356 207.875 209.391 202.882 218.363 207.875H201.356Z" fill="white"/>
<g opacity="0.07">
<path d="M212.662 211.463H202.191C201.437 211.463 200.819 210.846 200.819 210.091V209.34C200.819 208.586 201.436 207.968 202.191 207.968H212.662C213.416 207.968 214.034 208.585 214.034 209.34V210.091C214.034 210.846 213.417 211.463 212.662 211.463Z" fill="white"/>
</g>
<g opacity="0.07">
<path d="M218.216 195.59V192.262C218.216 191.47 218.864 190.822 219.656 190.822H220.269C221.061 190.822 221.709 191.47 221.709 192.263V195.591C221.709 196.383 221.061 197.031 220.269 197.031H219.656C218.864 197.031 218.216 196.382 218.216 195.59Z" fill="white"/>
</g>
<path d="M210.012 206.765H208.272L207.793 199.585C207.793 198.82 208.413 198.2 209.178 198.2C209.943 198.2 210.563 198.82 210.563 199.585L210.012 206.765Z" fill="#E6B54A"/>
<path d="M208.267 198.669L206.988 196.31L207.856 195.041H210.665L211.367 196.297L210.118 198.669H208.267Z" fill="#05AD71"/>
<g opacity="0.49">
<path d="M208.624 195.174C208.624 195.174 207.853 195.262 207.6 195.791C207.347 196.32 207.435 196.672 208.999 196.595C210.563 196.517 209.557 195.065 208.624 195.174Z" fill="white"/>
</g>
<path d="M208.184 198.764L207.666 197.861C207.666 197.861 207.622 197.53 208.25 197.784C208.878 198.037 208.79 197.641 209.23 197.575C209.67 197.509 209.66 197.752 209.902 197.862C210.144 197.972 210.562 197.41 210.618 197.862L210.222 198.765H208.184V198.764Z" fill="#DB9600"/>
<g opacity="0.49">
<path d="M209.243 202.346L208.53 202.393C208.305 202.408 208.109 202.236 208.094 202.011L207.94 199.676C207.925 199.451 208.097 199.255 208.322 199.24L209.035 199.193C209.26 199.178 209.456 199.35 209.471 199.575L209.625 201.91C209.64 202.135 209.468 202.331 209.243 202.346Z" fill="white"/>
</g>
<path d="M243.289 223.995L225.648 213.943C225.648 213.943 216.59 210.387 211.92 215.694C207.25 221.001 199.501 220.006 198.227 215.382C196.953 210.758 193.981 213.213 194.618 215.382C195.255 217.551 197.166 223.644 203.322 223.994C209.478 224.344 213.936 223.994 213.936 223.994L220.164 223.057L237.242 235.79L243.289 223.995Z" fill="#E5906A"/>
<path d="M219.116 215.255C218.247 213.696 216.499 212.829 214.715 212.893C212.89 212.959 210.386 213.308 208.629 214.58C205.551 216.809 203.561 215.349 202.367 215.382C200.483 215.434 198.97 217.988 202.367 219.043C205.763 220.098 209.966 219.438 212.875 220.284C215.685 221.103 221.246 219.076 219.116 215.255Z" fill="#F79974"/>
<path d="M173.062 181.131L171.466 180.669L168.868 191.603L170.618 192.757L173.062 181.131Z" fill="white"/>
<path d="M237.562 218.778L235.717 217.627L222.997 226.542L224.492 228.278L237.562 218.778Z" fill="white"/>
<path d="M272.293 196.34L275.745 189.931L281.271 200.034L275.235 206.765L272.293 196.34Z" fill="white"/>
<path d="M276.782 208.394L266.76 218.184C266.185 218.745 265.758 219.44 265.516 220.206L259.764 238.421L257.044 265.454L257.959 272.215L265.715 259.163L272.294 240.042L278.539 223.756C278.702 223.245 278.779 222.711 278.768 222.176L278.551 211.496L276.782 208.394Z" fill="#4A72B2"/>
<path d="M280.378 201.825L275.074 207.162C274.668 207.571 274.483 208.149 274.576 208.718L275.052 211.608C275.289 213.047 277.053 213.617 278.087 212.588L280.387 210.299C280.759 209.929 280.95 209.415 280.911 208.893L280.378 201.825Z" fill="#5C8ACC"/>
<path d="M313.757 210.963C318.887 206.057 326.434 204.299 333.017 206.956C337.434 208.738 341.417 212.366 342.304 219.532C344.487 237.171 288.386 270.118 270.198 268.185C252.01 266.252 224.263 228.445 224.263 228.445L238.283 218.254C238.283 218.254 268.553 243.269 280.112 238.21C288.464 234.553 305.146 219.199 313.757 210.963Z" fill="#1E1E1E"/>
<g opacity="0.05">
<path d="M318.165 207.812C318.165 207.812 324.184 220.257 305.504 233.939C286.823 247.621 277.502 238.998 277.502 238.998C277.502 238.998 283.103 237.125 288.122 233.245C293.141 229.364 315.314 208.998 318.165 207.812Z" fill="white"/>
</g>
<path d="M281.271 293.748C281.271 293.748 282.291 318.67 252.198 311.784C222.105 304.898 189.717 305.918 191.757 318.67C193.797 331.421 222.274 365.061 222.274 365.061" stroke="#111111" stroke-miterlimit="10"/>
<path d="M300.845 182.599L295.708 201.825L280.336 199.913L276.47 191.256L280.123 175.855L300.845 182.599Z" fill="#D67B5B"/>
<path d="M282.166 136.088L270.253 173.503L300.119 185.191L306.874 159.936C306.874 159.936 310.629 165.469 315.449 157.894C320.269 150.319 314.301 145.958 310.629 149.631L313.914 134.711L282.166 136.088Z" fill="#E5906A"/>
<path d="M284.571 165.043C284.571 165.043 282.585 163.955 280.908 163.988C279.231 164.02 277.619 164.67 277.338 166.787C277.057 168.905 279.169 170.414 281.722 171.634C283.227 172.353 288.273 173.08 290.96 171.693C293.647 170.307 295.045 169.224 295.594 167.366C296.143 165.508 294.63 163.675 293.162 163.181C291.694 162.687 290.213 163.443 289.53 164.019C288.844 164.594 287.174 165.994 284.571 165.043Z" fill="white"/>
<path d="M281.271 209.716L280.811 199.972L302.098 191.837L303.907 198.14L281.271 209.716Z" fill="white"/>
<path d="M282.118 136.088C282.118 136.088 273.888 124.462 276.469 118.857C286.509 97.052 303.827 131.334 314.168 130.427C321.054 129.823 325.134 146.145 311.141 147.083C311.141 147.083 314.12 137.092 307.149 138.112C300.18 139.131 287.18 140.696 282.118 136.088Z" fill="black"/>
<path d="M292.915 149.884C292.624 151.106 292.014 152.007 291.551 151.897C291.089 151.787 290.949 150.707 291.24 149.486C291.531 148.264 292.141 147.363 292.604 147.473C293.066 147.583 293.206 148.663 292.915 149.884Z" fill="black"/>
<path d="M282.874 147.14C282.583 148.362 281.973 149.263 281.51 149.153C281.048 149.043 280.908 147.963 281.199 146.742C281.49 145.52 282.1 144.619 282.563 144.729C283.026 144.839 283.165 145.919 282.874 147.14Z" fill="black"/>
<path d="M284.126 147.555C283.246 151.339 280.841 154.013 278.754 153.528C276.668 153.042 275.69 149.581 276.57 145.798C277.45 142.014 279.855 139.34 281.942 139.825C284.029 140.31 285.007 143.771 284.126 147.555Z" stroke="#111111" stroke-miterlimit="10"/>
<path d="M289.687 139.641L278.768 158.683H287.646L289.687 139.641Z" fill="#4D5BE2"/>
<path d="M295.575 150.564C294.695 154.348 292.289 157.022 290.203 156.537C288.116 156.052 287.139 152.59 288.019 148.807C288.899 145.023 291.304 142.349 293.391 142.834C295.478 143.319 296.455 146.78 295.575 150.564Z" stroke="#111111" stroke-miterlimit="10"/>
<path d="M284.04 142.126L291.088 143.452" stroke="#111111" stroke-miterlimit="10"/>
<path d="M310.9 148.398L295.329 144.72" stroke="#111111" stroke-miterlimit="10"/>
<path d="M122.854 52.7087C127.575 33.3133 115.679 13.763 96.2834 9.04192C76.888 4.32083 57.3377 16.2167 52.6166 35.6121C47.8955 55.0075 59.7914 74.5578 79.1868 79.2789C98.5822 84 118.132 72.1041 122.854 52.7087Z" fill="black"/>
<path d="M109.282 39.9541C109.282 39.9541 108.948 6.98307 77.708 13.0001C46.469 19.0171 55.614 43.5641 46.95 56.0791C38.286 68.5941 27.938 65.9461 20.477 82.5521C13.016 99.1581 19.514 112.256 26.494 119.425C33.473 126.594 55.626 131.028 66.33 119.425C77.034 107.822 84.494 62.3371 84.494 62.3371L107.038 44.9151L109.282 39.9541Z" fill="black"/>
<path d="M97.656 89.129C97.656 89.129 97.104 78.075 93.982 77.362C90.859 76.649 93.982 88.433 93.982 88.433L97.656 89.129Z" fill="#EDEEF0"/>
<path d="M123.261 111.612C123.261 111.612 111.081 134.828 90.281 144.59C90.281 144.59 92.729 117.254 88.203 103.852C86.509 98.836 83.341 99.779 81.034 95.01C79.634 96.897 78.674 91.876 77.528 94.116C73.754 101.5 68.532 95.596 65.31 103.353C65.223 122.254 72.21 154.864 81.002 168.461C92.501 186.246 129.999 113.78 129.999 113.78L123.261 111.612Z" fill="#D67B5B"/>
<path d="M125.467 104.154C125.467 104.154 131.071 86.475 132.187 85.215C133.304 83.955 134.859 85.32 133.736 88.304C132.614 91.288 129.983 100.619 129.983 100.619C129.983 100.619 136.046 86.148 137.121 85.807C138.197 85.466 139.344 86.546 138.309 88.435C137.275 90.324 133.753 100.225 133.753 100.225C133.753 100.225 138.272 92.277 139.712 90.86C141.151 89.443 141.134 92.321 140.041 94.013C138.948 95.705 135.218 102.497 135.218 102.497C135.218 102.497 140.344 97.61 141.472 97.419C142.6 97.228 142.581 98.183 142.061 98.912C141.541 99.641 135.608 105.142 135.608 105.142C135.608 105.142 133.641 112.53 128.983 114.287C124.325 116.043 122.534 113.708 122.51 112.908C122.486 112.108 121.64 97.93 122.298 95.867C122.956 93.804 125.497 95.339 125.309 98.863C125.123 102.387 124.494 104.709 125.467 104.154Z" fill="#D67B5B"/>
<path d="M86.886 354.927L88.811 373.825L79.308 372.881L76.933 359.948L86.886 354.927Z" fill="#2939DA"/>
<path d="M80.187 380.585H109.668C111.238 380.585 111.563 378.367 110.058 377.917L93.206 372.881H79.307L74.527 380.585H80.187Z" fill="#111111"/>
<path d="M33.349 269.062L15.362 262.952L20.174 254.703L32.922 257.922L33.349 269.062Z" fill="#2939DA"/>
<path d="M12.802 252.297L0.538995 279.107C-0.114005 280.535 1.76799 281.753 2.80299 280.572L14.392 267.342L20.462 254.069L14.84 247.841L12.802 252.297Z" fill="#111111"/>
<path d="M73.27 67.731L69.1 99.082L84.566 103.339L86.266 94.504L90.69 73.124L73.27 67.731Z" fill="#D67B5B"/>
<path d="M108.089 41.545L99.423 74.289L72.873 70.749L75.004 54.58C75.004 54.58 69.22 58.387 67.607 49.23C65.994 40.073 73.432 38.264 75.491 43.232L78.256 27.655L108.089 41.545Z" fill="#E5906A"/>
<path d="M119.868 192.48C119.868 192.48 122.918 249.28 103.857 278.633C84.797 307.986 88.81 365.935 88.81 365.935L77.539 367.324C77.539 367.324 68.023 322.472 78.316 287.401C88.609 252.33 90.129 188.527 90.129 188.527L119.868 192.48Z" fill="black"/>
<path d="M101.189 250.424C101.189 250.424 101.811 298.007 79.46 291.976C55.444 285.495 20.462 265.042 20.462 265.042L24.185 254.808C24.185 254.808 52.795 253.596 73.19 270.94C73.19 270.94 48.38 209.013 78.508 182.95C102.821 161.917 103.858 193.814 103.858 193.814L101.189 250.424Z" fill="#1E1E1E"/>
<path d="M93.752 86.316C78.803 76.378 58.471 86.934 58.443 104.885C58.442 105.33 58.449 105.782 58.464 106.242C58.806 117.12 68.275 192.152 68.275 192.152L119.933 200.295C119.933 200.295 122.437 151.882 124.941 134.353C126.788 121.415 111.359 98.02 93.752 86.316Z" fill="#818CF8"/>
<path d="M128.47 111.612C128.47 111.612 116.29 134.828 95.491 144.59C95.491 144.59 97.939 117.254 93.413 103.852C91.719 98.836 88.551 99.779 86.245 95.01C84.845 96.897 83.885 91.876 82.739 94.116C78.965 101.5 73.743 95.596 70.521 103.353C70.434 122.254 77.421 154.864 86.213 168.461C97.712 186.246 135.21 113.78 135.21 113.78L128.47 111.612Z" fill="#E5906A"/>
<path d="M130.676 104.154C130.676 104.154 136.28 86.475 137.396 85.215C138.513 83.955 140.068 85.32 138.945 88.304C137.823 91.288 135.192 100.619 135.192 100.619C135.192 100.619 141.255 86.148 142.33 85.807C143.406 85.466 144.553 86.546 143.519 88.435C142.485 90.324 138.963 100.225 138.963 100.225C138.963 100.225 143.482 92.277 144.922 90.86C146.361 89.443 146.344 92.321 145.251 94.013C144.158 95.705 140.427 102.497 140.427 102.497C140.427 102.497 145.553 97.61 146.681 97.419C147.809 97.228 147.79 98.183 147.27 98.912C146.751 99.641 140.817 105.142 140.817 105.142C140.817 105.142 138.85 112.53 134.192 114.287C129.534 116.043 127.743 113.708 127.719 112.908C127.695 112.108 126.849 97.93 127.507 95.867C128.165 93.804 130.706 95.339 130.518 98.863C130.332 102.387 129.703 104.709 130.676 104.154Z" fill="#E5906A"/>
<path d="M70.842 128.062L99.08 118.756C99.08 118.756 93.896 84.263 76.618 92.547C59.34 100.831 70.842 128.062 70.842 128.062Z" fill="#2939DA"/>
<path d="M92.711 89.1181C92.711 89.1181 96.878 79.4581 94.785 77.7671C92.692 76.0761 76.525 75.1131 71.344 75.9151C62.193 77.3301 62.926 88.9531 68.034 87.3281C83.252 82.4891 92.711 89.1181 92.711 89.1181Z" fill="white"/>
<path d="M108.089 41.5451C108.089 41.5451 91.882 48.1371 81.133 33.3761C81.133 33.3761 81.564 41.2151 75.492 43.2321L74.715 33.3761L78.759 23.2681L87.735 26.4771L108.089 41.5451Z" fill="black"/>
<path d="M92.162 62.8311C92.162 62.8311 89.893 63.3741 89.757 65.6801C89.621 67.9861 91.995 68.8301 93.488 67.8661C94.98 66.9011 95.381 62.9671 92.162 62.8311Z" fill="#2738DD"/>
<path d="M107.22 50.9721C107.22 54.7411 104.749 57.7961 101.702 57.7961C98.654 57.7961 96.184 54.7411 96.184 50.9721C96.184 47.2031 98.655 44.1481 101.702 44.1481C104.749 44.1471 107.22 47.2031 107.22 50.9721Z" stroke="white" stroke-miterlimit="10"/>
<path d="M95.822 46.051L97.246 58.565H90.76L95.822 46.051Z" fill="#4D5BE2"/>
<path d="M87.179 55.754C90.9478 55.754 94.003 52.6988 94.003 48.93C94.003 45.1612 90.9478 42.106 87.179 42.106C83.4102 42.106 80.355 45.1612 80.355 48.93C80.355 52.6988 83.4102 55.754 87.179 55.754Z" stroke="white" stroke-miterlimit="10"/>
<path d="M74.714 40.595L84.223 42.779" stroke="white" stroke-miterlimit="10"/>
<path d="M92.73 44.9611L98.392 45.5151" stroke="white" stroke-miterlimit="10"/>
<path d="M104.623 50.6351C104.704 49.6081 103.937 48.7101 102.911 48.6291C102.086 48.5641 101.352 49.0501 101.05 49.7741C100.866 49.0111 100.217 48.4161 99.392 48.3501C98.365 48.2691 97.467 49.0351 97.386 50.0621C97.362 50.3711 97.421 50.6641 97.534 50.9311L97.527 50.9331L97.551 50.9681C97.643 51.1741 97.77 51.3591 97.928 51.5171L100.622 55.4481L103.952 51.9241L103.951 51.9231C104.326 51.6131 104.581 51.1591 104.623 50.6351Z" fill="white"/>
<path d="M90.797 48.341C90.878 47.314 90.112 46.416 89.085 46.335C88.26 46.27 87.526 46.756 87.224 47.48C87.04 46.717 86.391 46.122 85.566 46.056C84.539 45.975 83.641 46.741 83.56 47.768C83.536 48.077 83.595 48.37 83.708 48.637L83.701 48.639L83.725 48.6741C83.817 48.8801 83.944 49.065 84.102 49.223L86.796 53.154L90.126 49.63L90.125 49.629C90.5 49.319 90.756 48.865 90.797 48.341Z" fill="white"/>
</svg>
